SplineFontDB: 3.2
FontName: RobotoLegacy-Regular
FullName: Roboto Legacy Regular
FamilyName: Roboto Legacy
Weight: Regular
Copyright: Font data copyright Google 2011
Version: 1.00000; 2011
ItalicAngle: 0
UnderlinePosition: -200
UnderlineWidth: 100
Ascent: 1536
Descent: 512
InvalidEm: 0
sfntRevision: 0x00010000
LayerCount: 2
Layer: 0 1 "Back" 1
Layer: 1 1 "Fore" 0
XUID: [1021 474 -1613799265 25488]
StyleMap: 0x0040
FSType: 4
OS2Version: 3
OS2_WeightWidthSlopeOnly: 0
OS2_UseTypoMetrics: 0
CreationTime: 1221222574
ModificationTime: 1743743766
PfmFamily: 81
TTFWeight: 400
TTFWidth: 5
LineGap: 0
VLineGap: 0
Panose: 0 0 0 0 0 0 0 0 0 0
OS2TypoAscent: 1536
OS2TypoAOffset: 0
OS2TypoDescent: -512
OS2TypoDOffset: 0
OS2TypoLinegap: 102
OS2WinAscent: 1946
OS2WinAOffset: 0
OS2WinDescent: 512
OS2WinDOffset: 0
HheadAscent: 1900
HheadAOffset: 0
HheadDescent: -500
HheadDOffset: 0
OS2SubXSize: 1434
OS2SubYSize: 1331
OS2SubXOff: 0
OS2SubYOff: 287
OS2SupXSize: 1434
OS2SupYSize: 1331
OS2SupXOff: 0
OS2SupYOff: 977
OS2StrikeYSize: 102
OS2StrikeYPos: 512
OS2CapHeight: 1456
OS2XHeight: 1082
OS2Vendor: 'pyrs'
OS2CodePages: 2000019f.4f010000
OS2UnicodeRanges: e00002ef.5000205b.00000020.00000000
Lookup: 1 0 0 "'smcp' Lowercase to Small Capitals lookup 0" { "'smcp' Lowercase to Small Capitals lookup 0 subtable"  } ['smcp' ('DFLT' <'dflt' > ) ]
Lookup: 4 0 1 "'liga' Standard Ligatures lookup 1" { "'liga' Standard Ligatures lookup 1 subtable"  } ['liga' ('DFLT' <'dflt' > ) ]
Lookup: 258 0 0 "'kern' Horizontal Kerning lookup 0" { "'kern' Horizontal Kerning lookup 0 per glyph data 0"  "'kern' Horizontal Kerning lookup 0 per glyph data 1"  "'kern' Horizontal Kerning lookup 0 per glyph data 2"  "'kern' Horizontal Kerning lookup 0 kerning class 3"  } ['kern' ('DFLT' <'dflt' > ) ]
MarkAttachClasses: 1
DEI: 91125
KernClass2: 32+ 29 "'kern' Horizontal Kerning lookup 0 kerning class 3"

StartChar: exclam
Encoding: 33 33 4
Width: 539
GlyphClass: 1
Flags: W
LayerCount: 2
Fore
SplineSet
368 478 m 1,0,-1
 171 478 l 1,1,-1
 171 1456 l 1,2,-1
 368 1456 l 1,3,-1
 368 478 l 1,0,-1
369 0 m 1,4,-1
 171 0 l 1,5,-1
 171 204 l 1,6,-1
 369 204 l 1,7,-1
 369 0 l 1,4,-1
EndSplineSet
Validated: 1
EndChar

StartChar: quotedbl
Encoding: 34 34 5
Width: 733
GlyphClass: 1
Flags: W
LayerCount: 2
Fore
SplineSet
633 1186 m 1,0,-1
 532 936 l 1,1,-1
 435 936 l 1,2,-1
 435 1456 l 1,3,-1
 633 1456 l 1,4,-1
 633 1186 l 1,0,-1
324 1186 m 1,5,-1
 223 936 l 1,6,-1
 126 936 l 1,7,-1
 127 1176 l 1,8,-1
 127 1456 l 1,9,-1
 324 1456 l 1,10,-1
 324 1186 l 1,5,-1
EndSplineSet
Validated: 1
EndChar

StartChar: numbersign
Encoding: 35 35 6
Width: 1276
GlyphClass: 1
Flags: W
LayerCount: 2
Fore
SplineSet
712 410 m 1,0,-1
 457 410 l 1,1,-1
 377 0 l 1,2,-1
 226 0 l 1,3,-1
 306 410 l 1,4,-1
 70 410 l 1,5,-1
 70 550 l 1,6,-1
 334 550 l 1,7,-1
 402 898 l 1,8,-1
 146 898 l 1,9,-1
 146 1040 l 1,10,-1
 430 1040 l 1,11,-1
 512 1456 l 1,12,-1
 663 1456 l 1,13,-1
 581 1040 l 1,14,-1
 836 1040 l 1,15,-1
 918 1456 l 1,16,-1
 1069 1456 l 1,17,-1
 987 1040 l 1,18,-1
 1186 1040 l 1,19,-1
 1186 898 l 1,20,-1
 960 898 l 1,21,-1
 892 550 l 1,22,-1
 1111 550 l 1,23,-1
 1111 410 l 1,24,-1
 864 410 l 1,25,-1
 784 0 l 1,26,-1
 632 0 l 1,27,-1
 712 410 l 1,0,-1
485 550 m 1,28,-1
 740 550 l 1,29,-1
 808 898 l 1,30,-1
 553 898 l 1,31,-1
 485 550 l 1,28,-1
EndSplineSet
Validated: 1
EndChar

StartChar: dollar
Encoding: 36 36 7
Width: 1193
GlyphClass: 1
Flags: W
LayerCount: 2
Fore
SplineSet
865 376 m 0,0,1
 865 466 865 466 801.5 529.5 c 128,-1,2
 738 593 738 593 591 643 c 1,3,4
 389 704 389 704 286 806 c 128,-1,5
 183 908 183 908 183 1078 c 0,6,7
 183 1243 183 1243 278 1347 c 128,-1,8
 373 1451 373 1451 539 1472 c 1,9,-1
 539 1693 l 1,10,-1
 697 1693 l 1,11,-1
 697 1471 l 1,12,13
 864 1449 864 1449 956.5 1334 c 128,-1,14
 1049 1219 1049 1219 1049 1026 c 1,15,-1
 853 1026 l 1,16,17
 853 1153 853 1153 790 1232 c 128,-1,18
 727 1311 727 1311 616 1311 c 0,19,20
 498 1311 498 1311 439 1249.5 c 128,-1,21
 380 1188 380 1188 380 1081 c 0,22,23
 380 984 380 984 441 924 c 128,-1,24
 502 864 502 864 660 810 c 0,25,26
 864 744 864 744 963 645.5 c 128,-1,27
 1062 547 1062 547 1062 378 c 0,28,29
 1062 206 1062 206 959 104.5 c 128,-1,30
 856 3 856 3 676 -16 c 1,31,-1
 676 -208 l 1,32,-1
 519 -208 l 1,33,-1
 519 -17 l 1,34,35
 347 1 347 1 237 108.5 c 128,-1,36
 127 216 127 216 131 424 c 1,37,-1
 133 429 l 1,38,-1
 323 429 l 1,39,40
 323 275 323 275 401 209.5 c 128,-1,41
 479 144 479 144 591 144 c 0,42,43
 720 144 720 144 792.5 205.5 c 128,-1,44
 865 267 865 267 865 376 c 0,0,1
EndSplineSet
Validated: 33
EndChar

StartChar: percent
Encoding: 37 37 8
Width: 1498
GlyphClass: 1
Flags: W
LayerCount: 2
Fore
SplineSet
104 1176 m 2,0,1
 104 1303 104 1303 186 1390 c 128,-1,2
 268 1477 268 1477 405 1477 c 256,3,4
 542 1477 542 1477 624 1390.5 c 128,-1,5
 706 1304 706 1304 706 1176 c 2,6,-1
 706 1099 l 2,7,8
 706 972 706 972 624.5 886 c 128,-1,9
 543 800 543 800 407 800 c 0,10,11
 269 800 269 800 186.5 886 c 128,-1,12
 104 972 104 972 104 1099 c 2,13,-1
 104 1176 l 2,0,1
250 1099 m 2,14,15
 250 1025 250 1025 290.5 973.5 c 128,-1,16
 331 922 331 922 407 922 c 0,17,18
 480 922 480 922 520 973 c 128,-1,19
 560 1024 560 1024 560 1099 c 2,20,-1
 560 1176 l 2,21,22
 560 1250 560 1250 519.5 1302.5 c 128,-1,23
 479 1355 479 1355 405 1355 c 0,24,25
 330 1355 330 1355 290 1302.5 c 128,-1,26
 250 1250 250 1250 250 1176 c 2,27,-1
 250 1099 l 2,14,15
809 357 m 2,28,29
 809 484 809 484 891 570.5 c 128,-1,30
 973 657 973 657 1110 657 c 0,31,32
 1246 657 1246 657 1328.5 570.5 c 128,-1,33
 1411 484 1411 484 1411 357 c 2,34,-1
 1411 279 l 2,35,36
 1411 151 1411 151 1329 65 c 128,-1,37
 1247 -21 1247 -21 1112 -21 c 0,38,39
 974 -21 974 -21 891.5 65 c 128,-1,40
 809 151 809 151 809 279 c 2,41,-1
 809 357 l 2,28,29
955 279 m 2,42,43
 955 204 955 204 995.5 152.5 c 128,-1,44
 1036 101 1036 101 1112 101 c 0,45,46
 1185 101 1185 101 1225 152.5 c 128,-1,47
 1265 204 1265 204 1265 279 c 2,48,-1
 1265 357 l 2,49,50
 1265 431 1265 431 1224 483 c 128,-1,51
 1183 535 1183 535 1110 535 c 0,52,53
 1036 535 1036 535 995.5 483 c 128,-1,54
 955 431 955 431 955 357 c 2,55,-1
 955 279 l 2,42,43
458 110 m 1,56,-1
 349 177 l 1,57,-1
 1060 1315 l 1,58,-1
 1169 1248 l 1,59,-1
 458 110 l 1,56,-1
EndSplineSet
Validated: 1
EndChar

StartChar: ampersand
Encoding: 38 38 9
Width: 1276
GlyphClass: 1
Flags: W
LayerCount: 2
Fore
SplineSet
64 392 m 0,0,1
 64 514 64 514 134.5 605.5 c 128,-1,2
 205 697 205 697 345 789 c 1,3,4
 267 888 267 888 229 965.5 c 128,-1,5
 191 1043 191 1043 191 1125 c 0,6,7
 191 1294 191 1294 288.5 1385.5 c 128,-1,8
 386 1477 386 1477 557 1477 c 0,9,10
 715 1477 715 1477 814 1386 c 128,-1,11
 913 1295 913 1295 913 1167 c 0,12,13
 913 1069 913 1069 860.5 997.5 c 128,-1,14
 808 926 808 926 705 851 c 2,15,-1
 596 771 l 1,16,-1
 936 362 l 1,17,18
 977 427 977 427 1000 506 c 128,-1,19
 1023 585 1023 585 1023 673 c 1,20,-1
 1199 673 l 1,21,22
 1199 541 1199 541 1160 429 c 128,-1,23
 1121 317 1121 317 1047 228 c 1,24,-1
 1232 5 l 1,25,-1
 1230 0 l 1,26,-1
 1001 0 l 1,27,-1
 916 102 l 1,28,29
 836 42 836 42 739 10.5 c 128,-1,30
 642 -21 642 -21 538 -21 c 0,31,32
 321 -21 321 -21 192.5 94 c 128,-1,33
 64 209 64 209 64 392 c 0,0,1
538 133 m 0,34,35
 610 133 610 133 680 157.5 c 128,-1,36
 750 182 750 182 812 228 c 1,37,-1
 451 663 l 1,38,-1
 411 634 l 2,39,40
 320 566 320 566 290.5 504 c 128,-1,41
 261 442 261 442 261 392 c 0,42,43
 261 279 261 279 332 206 c 128,-1,44
 403 133 403 133 538 133 c 0,34,35
388 1127 m 0,45,46
 388 1074 388 1074 415 1016.5 c 128,-1,47
 442 959 442 959 496 891 c 1,48,-1
 634 986 l 2,49,50
 691 1024 691 1024 711.5 1068.5 c 128,-1,51
 732 1113 732 1113 732 1167 c 0,52,53
 732 1228 732 1228 683.5 1275 c 128,-1,54
 635 1322 635 1322 557 1322 c 0,55,56
 476 1322 476 1322 432 1265.5 c 128,-1,57
 388 1209 388 1209 388 1127 c 0,45,46
EndSplineSet
Validated: 1
EndChar

StartChar: quotesingle
Encoding: 39 39 10
Width: 445
GlyphClass: 1
Flags: W
LayerCount: 2
Fore
SplineSet
324 1233 m 1,0,-1
 223 951 l 1,1,-1
 126 951 l 1,2,-1
 127 1216 l 1,3,-1
 127 1456 l 1,4,-1
 324 1456 l 1,5,-1
 324 1233 l 1,0,-1
EndSplineSet
Validated: 1
EndChar

StartChar: parenleft
Encoding: 40 40 11
Width: 679
GlyphClass: 1
Flags: W
LayerCount: 2
Fore
SplineSet
132 591 m 2,0,1
 132 985 132 985 291 1264 c 128,-1,2
 450 1543 450 1543 625 1636 c 1,3,-1
 631 1635 l 1,4,-1
 669 1519 l 1,5,6
 532 1412 532 1412 430.5 1176 c 128,-1,7
 329 940 329 940 329 593 c 2,8,-1
 329 580 l 2,9,10
 329 233 329 233 430 -3 c 128,-1,11
 531 -239 531 -239 669 -355 c 1,12,-1
 631 -463 l 1,13,-1
 625 -463 l 1,14,15
 450 -370 450 -370 291 -91.5 c 128,-1,16
 132 187 132 187 132 582 c 2,17,-1
 132 591 l 2,0,1
EndSplineSet
Validated: 1
EndChar

StartChar: parenright
Encoding: 41 41 12
Width: 687
GlyphClass: 1
Flags: W
LayerCount: 2
Fore
SplineSet
543 582 m 2,0,1
 543 187 543 187 383.5 -91.5 c 128,-1,2
 224 -370 224 -370 50 -463 c 1,3,-1
 44 -463 l 1,4,-1
 6 -355 l 1,5,6
 141 -250 141 -250 243.5 -9.5 c 128,-1,7
 346 231 346 231 346 580 c 2,8,-1
 346 593 l 2,9,10
 346 935 346 935 240.5 1176.5 c 128,-1,11
 135 1418 135 1418 6 1528 c 1,12,-1
 44 1636 l 1,13,-1
 50 1636 l 1,14,15
 224 1543 224 1543 383.5 1264 c 128,-1,16
 543 985 543 985 543 591 c 2,17,-1
 543 582 l 2,0,1
EndSplineSet
Validated: 1
EndChar

StartChar: asterisk
Encoding: 42 42 13
Width: 884
GlyphClass: 1
Flags: W
LayerCount: 2
Fore
SplineSet
324 696 m 1,0,-1
 88 763 l 1,1,-1
 137 917 l 1,2,-1
 373 827 l 1,3,-1
 363 1081 l 1,4,-1
 524 1081 l 1,5,-1
 514 821 l 1,6,-1
 747 910 l 1,7,-1
 795 754 l 1,8,-1
 553 686 l 1,9,-1
 706 486 l 1,10,-1
 574 390 l 1,11,-1
 434 608 l 1,12,-1
 299 398 l 1,13,-1
 166 490 l 1,14,-1
 324 696 l 1,0,-1
EndSplineSet
Validated: 1
EndChar

StartChar: plus
Encoding: 43 43 14
Width: 1162
GlyphClass: 1
Flags: W
LayerCount: 2
Fore
SplineSet
677 783 m 1,0,-1
 1076 783 l 1,1,-1
 1076 605 l 1,2,-1
 677 605 l 1,3,-1
 677 146 l 1,4,-1
 480 146 l 1,5,-1
 480 605 l 1,6,-1
 78 605 l 1,7,-1
 78 783 l 1,8,-1
 480 783 l 1,9,-1
 480 1206 l 1,10,-1
 677 1206 l 1,11,-1
 677 783 l 1,0,-1
EndSplineSet
Validated: 1
EndChar

StartChar: comma
Encoding: 44 44 15
Width: 404
GlyphClass: 1
Flags: W
LayerCount: 2
Fore
SplineSet
315 48 m 1,0,-1
 165 -258 l 1,1,-1
 48 -258 l 1,2,-1
 118 58 l 1,3,-1
 118 221 l 1,4,-1
 315 221 l 1,5,-1
 315 48 l 1,0,-1
EndSplineSet
Validated: 1
EndChar

StartChar: hyphen
Encoding: 45 45 16
Width: 923
GlyphClass: 1
Flags: W
LayerCount: 2
Fore
SplineSet
757 538 m 1,0,-1
 167 538 l 1,1,-1
 167 692 l 1,2,-1
 757 692 l 1,3,-1
 757 538 l 1,0,-1
EndSplineSet
Validated: 1
EndChar

StartChar: period
Encoding: 46 46 17
Width: 548
GlyphClass: 1
Flags: W
LayerCount: 2
Fore
SplineSet
358 0 m 1,0,-1
 161 0 l 1,1,-1
 161 202 l 1,2,-1
 358 202 l 1,3,-1
 358 0 l 1,0,-1
EndSplineSet
Validated: 1
EndChar

StartChar: slash
Encoding: 47 47 18
Width: 850
GlyphClass: 1
Flags: W
LayerCount: 2
Fore
SplineSet
184 -125 m 1,0,-1
 16 -125 l 1,1,-1
 624 1456 l 1,2,-1
 791 1456 l 1,3,-1
 184 -125 l 1,0,-1
EndSplineSet
Validated: 1
EndChar

StartChar: zero
Encoding: 48 48 19
Width: 1153
GlyphClass: 1
Flags: W
LayerCount: 2
Fore
SplineSet
1040 514 m 2,0,1
 1040 267 1040 267 914.5 123 c 128,-1,2
 789 -21 789 -21 577 -21 c 0,3,4
 366 -21 366 -21 239.5 123 c 128,-1,5
 113 267 113 267 113 514 c 2,6,-1
 113 942 l 2,7,8
 113 1187 113 1187 238.5 1332 c 128,-1,9
 364 1477 364 1477 575 1477 c 0,10,11
 787 1477 787 1477 913.5 1332 c 128,-1,12
 1040 1187 1040 1187 1040 942 c 2,13,-1
 1040 514 l 2,0,1
843 983 m 2,14,15
 843 1140 843 1140 773 1231 c 128,-1,16
 703 1322 703 1322 575 1322 c 0,17,18
 448 1322 448 1322 379 1231 c 128,-1,19
 310 1140 310 1140 310 983 c 2,20,-1
 310 474 l 2,21,22
 310 317 310 317 380.5 225 c 128,-1,23
 451 133 451 133 577 133 c 0,24,25
 705 133 705 133 774 224.5 c 128,-1,26
 843 316 843 316 843 474 c 2,27,-1
 843 983 l 2,14,15
EndSplineSet
Validated: 1
EndChar

StartChar: one
Encoding: 49 49 20
Width: 1153
GlyphClass: 1
Flags: W
LayerCount: 2
Fore
SplineSet
710 0 m 1,0,-1
 512 0 l 1,1,-1
 512 1274 l 1,2,-1
 195 1271 l 1,3,-1
 195 1423 l 1,4,-1
 710 1477 l 1,5,-1
 710 0 l 1,0,-1
EndSplineSet
Validated: 1
EndChar

StartChar: two
Encoding: 50 50 21
Width: 1153
GlyphClass: 1
Flags: W
LayerCount: 2
Fore
SplineSet
1054 0 m 1,0,-1
 150 0 l 1,1,-1
 150 135 l 1,2,-1
 607 680 l 2,3,4
 729 828 729 828 772.5 915.5 c 128,-1,5
 816 1003 816 1003 816 1092 c 0,6,7
 816 1193 816 1193 757 1257.5 c 128,-1,8
 698 1322 698 1322 594 1322 c 0,9,10
 465 1322 465 1322 397.5 1243 c 128,-1,11
 330 1164 330 1164 330 1046 c 1,12,-1
 140 1046 l 1,13,-1
 138 1052 l 1,14,15
 133 1230 133 1230 257 1353.5 c 128,-1,16
 381 1477 381 1477 594 1477 c 0,17,18
 789 1477 789 1477 901 1369 c 128,-1,19
 1013 1261 1013 1261 1013 1090 c 0,20,21
 1013 975 1013 975 949.5 865 c 128,-1,22
 886 755 886 755 756 589 c 1,23,-1
 389 159 l 1,24,-1
 391 154 l 1,25,-1
 1054 154 l 1,26,-1
 1054 0 l 1,0,-1
EndSplineSet
Validated: 33
EndChar

StartChar: three
Encoding: 51 51 22
Width: 1153
GlyphClass: 1
Flags: W
LayerCount: 2
Fore
SplineSet
579 828 m 2,0,1
 711 828 711 828 765.5 893.5 c 128,-1,2
 820 959 820 959 820 1077 c 0,3,4
 820 1187 820 1187 760.5 1254.5 c 128,-1,5
 701 1322 701 1322 584 1322 c 0,6,7
 470 1322 470 1322 395.5 1251.5 c 128,-1,8
 321 1181 321 1181 321 1075 c 1,9,-1
 133 1075 l 1,10,-1
 130 1081 l 1,11,12
 125 1245 125 1245 254 1361 c 128,-1,13
 383 1477 383 1477 584 1477 c 0,14,15
 787 1477 787 1477 902 1374.5 c 128,-1,16
 1017 1272 1017 1272 1017 1073 c 0,17,18
 1017 971 1017 971 963.5 887 c 128,-1,19
 910 803 910 803 814 756 c 1,20,21
 924 712 924 712 981.5 622.5 c 128,-1,22
 1039 533 1039 533 1039 406 c 0,23,24
 1039 206 1039 206 912.5 92.5 c 128,-1,25
 786 -21 786 -21 584 -21 c 0,26,27
 398 -21 398 -21 256.5 88.5 c 128,-1,28
 115 198 115 198 120 378 c 1,29,-1
 122 384 l 1,30,-1
 310 384 l 1,31,32
 310 278 310 278 386.5 205.5 c 128,-1,33
 463 133 463 133 584 133 c 0,34,35
 704 133 704 133 773 207.5 c 128,-1,36
 842 282 842 282 842 402 c 0,37,38
 842 539 842 539 778.5 607 c 128,-1,39
 715 675 715 675 579 675 c 2,40,-1
 417 675 l 1,41,-1
 417 828 l 1,42,-1
 579 828 l 2,0,1
EndSplineSet
Validated: 33
EndChar

StartChar: four
Encoding: 52 52 23
Width: 1153
GlyphClass: 1
Flags: W
LayerCount: 2
Fore
SplineSet
893 490 m 1,0,-1
 1094 490 l 1,1,-1
 1094 336 l 1,2,-1
 893 336 l 1,3,-1
 893 0 l 1,4,-1
 697 0 l 1,5,-1
 697 336 l 1,6,-1
 72 336 l 1,7,-1
 72 447 l 1,8,-1
 685 1456 l 1,9,-1
 893 1456 l 1,10,-1
 893 490 l 1,0,-1
283 490 m 1,11,-1
 697 490 l 1,12,-1
 697 1173 l 1,13,-1
 691 1174 l 1,14,-1
 672 1124 l 1,15,-1
 283 490 l 1,11,-1
EndSplineSet
Validated: 1
EndChar

StartChar: five
Encoding: 53 53 24
Width: 1153
GlyphClass: 1
Flags: W
LayerCount: 2
Fore
SplineSet
175 647 m 1,0,-1
 259 1456 l 1,1,-1
 988 1456 l 1,2,-1
 988 1281 l 1,3,-1
 425 1281 l 1,4,-1
 378 862 l 1,5,6
 425 897 425 897 482 919.5 c 128,-1,7
 539 942 539 942 612 943 c 0,8,9
 814 945 814 945 928.5 816.5 c 128,-1,10
 1043 688 1043 688 1043 464 c 0,11,12
 1043 245 1043 245 925.5 112 c 128,-1,13
 808 -21 808 -21 583 -21 c 0,14,15
 398 -21 398 -21 275 80 c 128,-1,16
 152 181 152 181 157 377 c 1,17,-1
 159 383 l 1,18,-1
 337 383 l 1,19,20
 337 264 337 264 405.5 198.5 c 128,-1,21
 474 133 474 133 583 133 c 0,22,23
 708 133 708 133 777 221 c 128,-1,24
 846 309 846 309 846 462 c 0,25,26
 846 601 846 601 776.5 687 c 128,-1,27
 707 773 707 773 583 773 c 0,28,29
 467 773 467 773 415 738 c 128,-1,30
 363 703 363 703 338 630 c 1,31,-1
 175 647 l 1,0,-1
EndSplineSet
Validated: 33
EndChar

StartChar: six
Encoding: 54 54 25
Width: 1153
GlyphClass: 1
Flags: W
LayerCount: 2
Fore
SplineSet
641 1477 m 0,0,1
 727 1477 727 1477 811 1460 c 128,-1,2
 895 1443 895 1443 950 1417 c 1,3,-1
 908 1266 l 1,4,5
 851 1291 851 1291 788 1306.5 c 128,-1,6
 725 1322 725 1322 641 1322 c 0,7,8
 504 1322 504 1322 418.5 1205 c 128,-1,9
 333 1088 333 1088 333 909 c 2,10,-1
 333 796 l 1,11,12
 394 857 394 857 477.5 892 c 128,-1,13
 561 927 561 927 657 927 c 0,14,15
 845 927 845 927 954.5 801 c 128,-1,16
 1064 675 1064 675 1064 470 c 0,17,18
 1064 246 1064 246 941.5 112.5 c 128,-1,19
 819 -21 819 -21 611 -21 c 0,20,21
 409 -21 409 -21 273 132.5 c 128,-1,22
 137 286 137 286 137 552 c 2,23,-1
 137 887 l 2,24,25
 137 1143 137 1143 282.5 1310 c 128,-1,26
 428 1477 428 1477 641 1477 c 0,0,1
594 780 m 0,27,28
 501 780 501 780 434.5 740.5 c 128,-1,29
 368 701 368 701 333 634 c 1,30,-1
 333 533 l 2,31,32
 333 348 333 348 413.5 240.5 c 128,-1,33
 494 133 494 133 611 133 c 0,34,35
 734 133 734 133 800.5 226.5 c 128,-1,36
 867 320 867 320 867 470 c 0,37,38
 867 612 867 612 795.5 696 c 128,-1,39
 724 780 724 780 594 780 c 0,27,28
EndSplineSet
Validated: 1
EndChar

StartChar: seven
Encoding: 55 55 26
Width: 1153
GlyphClass: 1
Flags: W
LayerCount: 2
Fore
SplineSet
1063 1301 m 1,0,1
 787 973 787 973 690 722 c 128,-1,2
 593 471 593 471 593 159 c 2,3,-1
 593 0 l 1,4,-1
 396 0 l 1,5,-1
 396 159 l 2,6,7
 396 489 396 489 517.5 753.5 c 128,-1,8
 639 1018 639 1018 869 1301 c 1,9,-1
 97 1301 l 1,10,-1
 97 1456 l 1,11,-1
 1063 1456 l 1,12,-1
 1063 1301 l 1,0,1
EndSplineSet
Validated: 1
EndChar

StartChar: eight
Encoding: 56 56 27
Width: 1153
GlyphClass: 1
Flags: W
LayerCount: 2
Fore
SplineSet
1010 1084 m 0,0,1
 1010 970 1010 970 946 883.5 c 128,-1,2
 882 797 882 797 776 754 c 1,3,4
 900 711 900 711 975 617 c 128,-1,5
 1050 523 1050 523 1050 400 c 0,6,7
 1050 199 1050 199 919.5 89 c 128,-1,8
 789 -21 789 -21 587 -21 c 0,9,10
 373 -21 373 -21 237.5 89 c 128,-1,11
 102 199 102 199 102 400 c 0,12,13
 102 523 102 523 178.5 617 c 128,-1,14
 255 711 255 711 385 755 c 1,15,16
 273 797 273 797 208 883.5 c 128,-1,17
 143 970 143 970 143 1084 c 0,18,19
 143 1275 143 1275 265.5 1376 c 128,-1,20
 388 1477 388 1477 585 1477 c 0,21,22
 771 1477 771 1477 890.5 1375.5 c 128,-1,23
 1010 1274 1010 1274 1010 1084 c 0,0,1
854 404 m 0,24,25
 854 523 854 523 776.5 600 c 128,-1,26
 699 677 699 677 585 677 c 0,27,28
 461 677 461 677 380 600 c 128,-1,29
 299 523 299 523 299 404 c 0,30,31
 299 281 299 281 379.5 207 c 128,-1,32
 460 133 460 133 587 133 c 0,33,34
 701 133 701 133 777.5 207.5 c 128,-1,35
 854 282 854 282 854 404 c 0,24,25
813 1081 m 0,36,37
 813 1186 813 1186 747.5 1254 c 128,-1,38
 682 1322 682 1322 585 1322 c 0,39,40
 478 1322 478 1322 409 1256.5 c 128,-1,41
 340 1191 340 1191 340 1081 c 0,42,43
 340 970 340 970 410 901 c 128,-1,44
 480 832 480 832 587 832 c 0,45,46
 684 832 684 832 748.5 901 c 128,-1,47
 813 970 813 970 813 1081 c 0,36,37
EndSplineSet
Validated: 1
EndChar

StartChar: nine
Encoding: 57 57 28
Width: 1153
GlyphClass: 1
Flags: W
LayerCount: 2
Fore
SplineSet
501 133 m 0,0,1
 643 133 643 133 730.5 231 c 128,-1,2
 818 329 818 329 818 509 c 2,3,-1
 818 633 l 1,4,5
 770 562 770 562 698.5 525.5 c 128,-1,6
 627 489 627 489 542 489 c 0,7,8
 332 489 332 489 212.5 618.5 c 128,-1,9
 93 748 93 748 93 978 c 0,10,11
 93 1198 93 1198 220 1337.5 c 128,-1,12
 347 1477 347 1477 534 1477 c 0,13,14
 752 1477 752 1477 884 1340 c 128,-1,15
 1016 1203 1016 1203 1016 953 c 2,16,-1
 1016 511 l 2,17,18
 1016 260 1016 260 872 119.5 c 128,-1,19
 728 -21 728 -21 501 -21 c 0,20,21
 424 -21 424 -21 343.5 -5 c 128,-1,22
 263 11 263 11 193 42 c 1,23,-1
 223 192 l 1,24,25
 289 160 289 160 352.5 146.5 c 128,-1,26
 416 133 416 133 501 133 c 0,0,1
542 643 m 0,27,28
 645 643 645 643 715.5 690 c 128,-1,29
 786 737 786 737 818 810 c 1,30,-1
 818 982 l 2,31,32
 818 1145 818 1145 745 1233.5 c 128,-1,33
 672 1322 672 1322 540 1322 c 0,34,35
 433 1322 433 1322 361.5 1226.5 c 128,-1,36
 290 1131 290 1131 290 978 c 0,37,38
 290 828 290 828 356 735.5 c 128,-1,39
 422 643 422 643 542 643 c 0,27,28
EndSplineSet
Validated: 1
EndChar

StartChar: less
Encoding: 60 60 31
Width: 1040
GlyphClass: 1
Flags: W
LayerCount: 2
Fore
SplineSet
328 579 m 1,0,-1
 243 561 l 1,1,-1
 243 555 l 1,2,-1
 328 536 l 1,3,-1
 887 308 l 1,4,-1
 887 107 l 1,5,-1
 71 486 l 1,6,-1
 71 635 l 1,7,-1
 887 1013 l 1,8,-1
 887 812 l 1,9,-1
 328 579 l 1,0,-1
EndSplineSet
Validated: 1
EndChar

StartChar: equal
Encoding: 61 61 32
Width: 1153
GlyphClass: 1
Flags: W
LayerCount: 2
Fore
SplineSet
986 823 m 1,0,-1
 152 823 l 1,1,-1
 152 987 l 1,2,-1
 986 987 l 1,3,-1
 986 823 l 1,0,-1
986 407 m 1,4,-1
 152 407 l 1,5,-1
 152 571 l 1,6,-1
 986 571 l 1,7,-1
 986 407 l 1,4,-1
EndSplineSet
Validated: 1
EndChar

StartChar: greater
Encoding: 62 62 33
Width: 1072
GlyphClass: 1
Flags: W
LayerCount: 2
Fore
SplineSet
136 798 m 1,0,-1
 136 993 l 1,1,-1
 992 615 l 1,2,-1
 992 466 l 1,3,-1
 136 87 l 1,4,-1
 136 283 l 1,5,-1
 734 521 l 1,6,-1
 819 538 l 1,7,-1
 819 544 l 1,8,-1
 734 564 l 1,9,-1
 136 798 l 1,0,-1
EndSplineSet
Validated: 1
EndChar

StartChar: question
Encoding: 63 63 34
Width: 974
GlyphClass: 1
Flags: W
LayerCount: 2
Fore
SplineSet
355 410 m 1,0,1
 356 555 356 555 380 611 c 128,-1,2
 404 667 404 667 506 759 c 1,3,4
 605 876 605 876 647 939 c 128,-1,5
 689 1002 689 1002 689 1091 c 0,6,7
 689 1197 689 1197 632.5 1254 c 128,-1,8
 576 1311 576 1311 471 1311 c 0,9,10
 380 1311 380 1311 316 1261.5 c 128,-1,11
 252 1212 252 1212 252 1116 c 1,12,-1
 64 1116 l 1,13,-1
 61 1122 l 1,14,15
 58 1283 58 1283 174.5 1380 c 128,-1,16
 291 1477 291 1477 471 1477 c 0,17,18
 668 1477 668 1477 777 1376.5 c 128,-1,19
 886 1276 886 1276 886 1096 c 0,20,21
 886 967 886 967 815.5 860 c 128,-1,22
 745 753 745 753 629 641 c 0,23,24
 575 587 575 587 563.5 544 c 128,-1,25
 552 501 552 501 552 410 c 1,26,-1
 355 410 l 1,0,1
559 0 m 1,27,-1
 353 0 l 1,28,-1
 353 208 l 1,29,-1
 559 208 l 1,30,-1
 559 0 l 1,27,-1
EndSplineSet
Validated: 33
EndChar

StartChar: at
Encoding: 64 64 35
Width: 1833
GlyphClass: 1
Flags: W
LayerCount: 2
Fore
SplineSet
1732 502 m 0,0,1
 1723 288 1723 288 1612 133.5 c 128,-1,2
 1501 -21 1501 -21 1280 -21 c 0,3,4
 1207 -21 1207 -21 1154 20.5 c 128,-1,5
 1101 62 1101 62 1078 138 c 1,6,7
 1028 58 1028 58 956 18.5 c 128,-1,8
 884 -21 884 -21 788 -21 c 0,9,10
 663 -21 663 -21 594 99.5 c 128,-1,11
 525 220 525 220 543 416 c 0,12,13
 566 675 566 675 680.5 831.5 c 128,-1,14
 795 988 795 988 960 988 c 0,15,16
 1065 988 1065 988 1129 962 c 128,-1,17
 1193 936 1193 936 1268 882 c 1,18,-1
 1264 878 l 1,19,-1
 1270 878 l 1,20,-1
 1219 293 l 2,21,22
 1210 183 1210 183 1240.5 141.5 c 128,-1,23
 1271 100 1271 100 1322 100 c 0,24,25
 1445 100 1445 100 1519 213.5 c 128,-1,26
 1593 327 1593 327 1601 502 c 0,27,28
 1617 884 1617 884 1457 1097.5 c 128,-1,29
 1297 1311 1297 1311 961 1311 c 0,30,31
 653 1311 653 1311 465.5 1080 c 128,-1,32
 278 849 278 849 263 478 c 0,33,34
 245 102 245 102 413 -116.5 c 128,-1,35
 581 -335 581 -335 895 -335 c 0,36,37
 983 -335 983 -335 1073.5 -313.5 c 128,-1,38
 1164 -292 1164 -292 1226 -257 c 1,39,-1
 1264 -364 l 1,40,41
 1197 -406 1197 -406 1093.5 -429.5 c 128,-1,42
 990 -453 990 -453 891 -453 c 0,43,44
 511 -453 511 -453 303.5 -203.5 c 128,-1,45
 96 46 96 46 114 478 c 0,46,47
 133 901 133 901 363 1166 c 128,-1,48
 593 1431 593 1431 965 1431 c 0,49,50
 1344 1431 1344 1431 1546.5 1181 c 128,-1,51
 1749 931 1749 931 1732 502 c 0,0,1
720 416 m 0,52,53
 709 274 709 274 741.5 200 c 128,-1,54
 774 126 774 126 848 126 c 0,55,56
 912 126 912 126 965 150.5 c 128,-1,57
 1018 175 1018 175 1062 238 c 1,58,59
 1061 250 1061 250 1061.5 263.5 c 128,-1,60
 1062 277 1062 277 1064 293 c 2,61,-1
 1111 831 l 1,62,63
 1085 843 1085 843 1056.5 850 c 128,-1,64
 1028 857 1028 857 997 857 c 0,65,66
 872 857 872 857 806 747.5 c 128,-1,67
 740 638 740 638 720 416 c 0,52,53
EndSplineSet
Validated: 33
EndChar

StartChar: A
Encoding: 65 65 36
Width: 1295
GlyphClass: 1
Flags: W
LayerCount: 2
Fore
SplineSet
922 375 m 1,0,-1
 374 375 l 1,1,-1
 244 0 l 1,2,-1
 43 0 l 1,3,-1
 568 1456 l 1,4,-1
 737 1456 l 1,5,-1
 1251 0 l 1,6,-1
 1050 0 l 1,7,-1
 922 375 l 1,0,-1
431 540 m 1,8,-1
 866 540 l 1,9,-1
 654 1165 l 1,10,-1
 648 1165 l 1,11,-1
 431 540 l 1,8,-1
EndSplineSet
Validated: 1
Substitution2: "'smcp' Lowercase to Small Capitals lookup 0 subtable" A.smcp
EndChar

StartChar: B
Encoding: 66 66 37
Width: 1302
GlyphClass: 1
Flags: W
LayerCount: 2
Fore
SplineSet
170 0 m 1,0,-1
 170 1456 l 1,1,-1
 645 1456 l 2,2,3
 873 1456 873 1456 1002 1357.5 c 128,-1,4
 1131 1259 1131 1259 1131 1062 c 0,5,6
 1131 968 1131 968 1073 893.5 c 128,-1,7
 1015 819 1015 819 919 780 c 1,8,9
 1062 760 1062 760 1145.5 656 c 128,-1,10
 1229 552 1229 552 1229 411 c 0,11,12
 1229 211 1229 211 1099 105.5 c 128,-1,13
 969 0 969 0 747 0 c 2,14,-1
 170 0 l 1,0,-1
367 683 m 1,15,-1
 367 154 l 1,16,-1
 747 154 l 2,17,18
 882 154 882 154 956.5 220.5 c 128,-1,19
 1031 287 1031 287 1031 409 c 0,20,21
 1031 530 1031 530 955 604 c 128,-1,22
 879 678 879 678 750 683 c 1,23,-1
 737 683 l 1,24,-1
 367 683 l 1,15,-1
367 837 m 1,25,-1
 686 837 l 2,26,27
 796 837 796 837 865 897.5 c 128,-1,28
 934 958 934 958 934 1066 c 0,29,30
 934 1184 934 1184 859.5 1242.5 c 128,-1,31
 785 1301 785 1301 645 1301 c 2,32,-1
 367 1301 l 1,33,-1
 367 837 l 1,25,-1
EndSplineSet
Validated: 1
Substitution2: "'smcp' Lowercase to Small Capitals lookup 0 subtable" B.smcp
EndChar

StartChar: C
Encoding: 67 67 38
Width: 1297
GlyphClass: 1
Flags: W
LayerCount: 2
Fore
SplineSet
1209 466 m 1,0,-1
 1211 460 l 1,1,2
 1215 255 1215 255 1067 117 c 128,-1,3
 919 -21 919 -21 676 -21 c 0,4,5
 429 -21 429 -21 273.5 154 c 128,-1,6
 118 329 118 329 118 598 c 2,7,-1
 118 857 l 2,8,9
 118 1126 118 1126 273.5 1301.5 c 128,-1,10
 429 1477 429 1477 676 1477 c 256,11,12
 923 1477 923 1477 1069 1345.5 c 128,-1,13
 1215 1214 1215 1214 1211 997 c 1,14,-1
 1209 991 l 1,15,-1
 1020 991 l 1,16,17
 1020 1144 1020 1144 930 1233 c 128,-1,18
 840 1322 840 1322 676 1322 c 0,19,20
 511 1322 511 1322 413 1189 c 128,-1,21
 315 1056 315 1056 315 859 c 2,22,-1
 315 598 l 2,23,24
 315 399 315 399 413 266 c 128,-1,25
 511 133 511 133 676 133 c 0,26,27
 840 133 840 133 930 221.5 c 128,-1,28
 1020 310 1020 310 1020 466 c 1,29,-1
 1209 466 l 1,0,-1
EndSplineSet
Validated: 33
Substitution2: "'smcp' Lowercase to Small Capitals lookup 0 subtable" C.smcp
EndChar

StartChar: D
Encoding: 68 68 39
Width: 1387
GlyphClass: 1
Flags: W
LayerCount: 2
Fore
SplineSet
170 0 m 1,0,-1
 170 1456 l 1,1,-1
 628 1456 l 2,2,3
 913 1456 913 1456 1086.5 1280.5 c 128,-1,4
 1260 1105 1260 1105 1260 827 c 2,5,-1
 1260 628 l 2,6,7
 1260 349 1260 349 1086.5 174.5 c 128,-1,8
 913 0 913 0 628 0 c 2,9,-1
 170 0 l 1,0,-1
367 1301 m 1,10,-1
 367 154 l 1,11,-1
 628 154 l 2,12,13
 830 154 830 154 946.5 287 c 128,-1,14
 1063 420 1063 420 1063 628 c 2,15,-1
 1063 829 l 2,16,17
 1063 1035 1063 1035 946.5 1168 c 128,-1,18
 830 1301 830 1301 628 1301 c 2,19,-1
 367 1301 l 1,10,-1
EndSplineSet
Validated: 1
Substitution2: "'smcp' Lowercase to Small Capitals lookup 0 subtable" D.smcp
EndChar

StartChar: E
Encoding: 69 69 40
Width: 1130
GlyphClass: 1
Flags: W
LayerCount: 2
Fore
SplineSet
965 675 m 1,0,-1
 367 675 l 1,1,-1
 367 154 l 1,2,-1
 1067 154 l 1,3,-1
 1067 0 l 1,4,-1
 170 0 l 1,5,-1
 170 1456 l 1,6,-1
 1056 1456 l 1,7,-1
 1056 1301 l 1,8,-1
 367 1301 l 1,9,-1
 367 830 l 1,10,-1
 965 830 l 1,11,-1
 965 675 l 1,0,-1
EndSplineSet
Validated: 1
Substitution2: "'smcp' Lowercase to Small Capitals lookup 0 subtable" E.smcp
EndChar

StartChar: F
Encoding: 70 70 41
Width: 1130
GlyphClass: 1
Flags: W
LayerCount: 2
Fore
SplineSet
981 644 m 1,0,-1
 367 644 l 1,1,-1
 367 0 l 1,2,-1
 170 0 l 1,3,-1
 170 1456 l 1,4,-1
 1083 1456 l 1,5,-1
 1083 1301 l 1,6,-1
 367 1301 l 1,7,-1
 367 799 l 1,8,-1
 981 799 l 1,9,-1
 981 644 l 1,0,-1
EndSplineSet
Validated: 1
Substitution2: "'smcp' Lowercase to Small Capitals lookup 0 subtable" F.smcp
EndChar

StartChar: G
Encoding: 71 71 42
Width: 1387
GlyphClass: 1
Flags: W
LayerCount: 2
Fore
SplineSet
1217 196 m 1,0,1
 1165 115 1165 115 1036.5 47 c 128,-1,2
 908 -21 908 -21 703 -21 c 0,3,4
 451 -21 451 -21 286 146 c 128,-1,5
 121 313 121 313 121 578 c 2,6,-1
 121 878 l 2,7,8
 121 1143 121 1143 280 1310 c 128,-1,9
 439 1477 439 1477 690 1477 c 0,10,11
 933 1477 933 1477 1074 1347.5 c 128,-1,12
 1215 1218 1215 1218 1211 1018 c 1,13,-1
 1209 1012 l 1,14,-1
 1020 1012 l 1,15,16
 1020 1145 1020 1145 934 1233.5 c 128,-1,17
 848 1322 848 1322 690 1322 c 0,18,19
 523 1322 523 1322 421 1197 c 128,-1,20
 319 1072 319 1072 319 880 c 2,21,-1
 319 578 l 2,22,23
 319 384 319 384 427 258.5 c 128,-1,24
 535 133 535 133 703 133 c 0,25,26
 832 133 832 133 907.5 166.5 c 128,-1,27
 983 200 983 200 1020 246 c 1,28,-1
 1020 574 l 1,29,-1
 690 574 l 1,30,-1
 690 728 l 1,31,-1
 1217 728 l 1,32,-1
 1217 196 l 1,0,1
EndSplineSet
Validated: 33
Substitution2: "'smcp' Lowercase to Small Capitals lookup 0 subtable" G.smcp
EndChar

StartChar: H
Encoding: 72 72 43
Width: 1441
GlyphClass: 1
Flags: W
LayerCount: 2
Fore
SplineSet
1271 0 m 1,0,-1
 1074 0 l 1,1,-1
 1074 643 l 1,2,-1
 367 643 l 1,3,-1
 367 0 l 1,4,-1
 170 0 l 1,5,-1
 170 1456 l 1,6,-1
 367 1456 l 1,7,-1
 367 798 l 1,8,-1
 1074 798 l 1,9,-1
 1074 1456 l 1,10,-1
 1271 1456 l 1,11,-1
 1271 0 l 1,0,-1
EndSplineSet
Validated: 1
Substitution2: "'smcp' Lowercase to Small Capitals lookup 0 subtable" H.smcp
EndChar

StartChar: I
Encoding: 73 73 44
Width: 579
GlyphClass: 1
Flags: W
LayerCount: 2
Fore
SplineSet
388 0 m 1,0,-1
 190 0 l 1,1,-1
 190 1456 l 1,2,-1
 388 1456 l 1,3,-1
 388 0 l 1,0,-1
EndSplineSet
Validated: 1
Substitution2: "'smcp' Lowercase to Small Capitals lookup 0 subtable" I.smcp
EndChar

StartChar: J
Encoding: 74 74 45
Width: 1123
GlyphClass: 1
Flags: W
LayerCount: 2
Fore
SplineSet
759 1456 m 1,0,-1
 956 1456 l 1,1,-1
 956 422 l 2,2,3
 956 219 956 219 832.5 99 c 128,-1,4
 709 -21 709 -21 512 -21 c 0,5,6
 311 -21 311 -21 192.5 85.5 c 128,-1,7
 74 192 74 192 79 395 c 1,8,-1
 81 401 l 1,9,-1
 270 401 l 1,10,11
 270 265 270 265 333 199 c 128,-1,12
 396 133 396 133 512 133 c 0,13,14
 621 133 621 133 690 212 c 128,-1,15
 759 291 759 291 759 422 c 2,16,-1
 759 1456 l 1,0,-1
EndSplineSet
Validated: 33
Substitution2: "'smcp' Lowercase to Small Capitals lookup 0 subtable" J.smcp
EndChar

StartChar: K
Encoding: 75 75 46
Width: 1302
GlyphClass: 1
Flags: W
LayerCount: 2
Fore
SplineSet
495 658 m 1,0,-1
 367 658 l 1,1,-1
 367 0 l 1,2,-1
 170 0 l 1,3,-1
 170 1456 l 1,4,-1
 367 1456 l 1,5,-1
 367 812 l 1,6,-1
 475 812 l 1,7,-1
 1015 1456 l 1,8,-1
 1237 1456 l 1,9,-1
 1239 1451 l 1,10,-1
 649 762 l 1,11,-1
 1281 5 l 1,12,-1
 1279 0 l 1,13,-1
 1040 0 l 1,14,-1
 495 658 l 1,0,-1
EndSplineSet
Validated: 1
Substitution2: "'smcp' Lowercase to Small Capitals lookup 0 subtable" K.smcp
EndChar

StartChar: L
Encoding: 76 76 47
Width: 1126
GlyphClass: 1
Flags: W
LayerCount: 2
Fore
SplineSet
367 154 m 1,0,-1
 1077 154 l 1,1,-1
 1077 0 l 1,2,-1
 170 0 l 1,3,-1
 170 1456 l 1,4,-1
 367 1456 l 1,5,-1
 367 154 l 1,0,-1
EndSplineSet
Validated: 1
Substitution2: "'smcp' Lowercase to Small Capitals lookup 0 subtable" L.smcp
EndChar

StartChar: M
Encoding: 77 77 48
Width: 1779
GlyphClass: 1
Flags: W
LayerCount: 2
Fore
SplineSet
892 273 m 1,0,-1
 898 273 l 1,1,-1
 1363 1456 l 1,2,-1
 1608 1456 l 1,3,-1
 1608 0 l 1,4,-1
 1411 0 l 1,5,-1
 1411 1091 l 1,6,-1
 1405 1092 l 1,7,-1
 964 0 l 1,8,-1
 827 0 l 1,9,-1
 373 1128 l 1,10,-1
 367 1127 l 1,11,-1
 367 0 l 1,12,-1
 170 0 l 1,13,-1
 170 1456 l 1,14,-1
 429 1456 l 1,15,-1
 892 273 l 1,0,-1
EndSplineSet
Validated: 1
Substitution2: "'smcp' Lowercase to Small Capitals lookup 0 subtable" M.smcp
EndChar

StartChar: N
Encoding: 78 78 49
Width: 1442
GlyphClass: 1
Flags: W
LayerCount: 2
Fore
SplineSet
1271 0 m 1,0,-1
 1074 0 l 1,1,-1
 373 1112 l 1,2,-1
 367 1110 l 1,3,-1
 367 0 l 1,4,-1
 170 0 l 1,5,-1
 170 1456 l 1,6,-1
 367 1456 l 1,7,-1
 1068 345 l 1,8,-1
 1074 347 l 1,9,-1
 1074 1456 l 1,10,-1
 1271 1456 l 1,11,-1
 1271 0 l 1,0,-1
EndSplineSet
Validated: 1
Substitution2: "'smcp' Lowercase to Small Capitals lookup 0 subtable" N.smcp
EndChar

StartChar: O
Encoding: 79 79 50
Width: 1396
GlyphClass: 1
Flags: W
LayerCount: 2
Fore
SplineSet
1282 598 m 2,0,1
 1282 331 1282 331 1116.5 155 c 128,-1,2
 951 -21 951 -21 687 -21 c 0,3,4
 432 -21 432 -21 272.5 155 c 128,-1,5
 113 331 113 331 113 598 c 2,6,-1
 113 857 l 2,7,8
 113 1123 113 1123 272.5 1300 c 128,-1,9
 432 1477 432 1477 687 1477 c 0,10,11
 951 1477 951 1477 1116.5 1300.5 c 128,-1,12
 1282 1124 1282 1124 1282 857 c 2,13,-1
 1282 598 l 2,0,1
1085 859 m 2,14,15
 1085 1059 1085 1059 977 1187 c 128,-1,16
 869 1315 869 1315 687 1315 c 0,17,18
 515 1315 515 1315 412.5 1187 c 128,-1,19
 310 1059 310 1059 310 859 c 2,20,-1
 310 598 l 2,21,22
 310 396 310 396 412.5 268 c 128,-1,23
 515 140 515 140 687 140 c 0,24,25
 870 140 870 140 977.5 267.5 c 128,-1,26
 1085 395 1085 395 1085 598 c 2,27,-1
 1085 859 l 2,14,15
EndSplineSet
Validated: 1
Substitution2: "'smcp' Lowercase to Small Capitals lookup 0 subtable" O.smcp
EndChar

StartChar: P
Encoding: 80 80 51
Width: 1302
GlyphClass: 1
Flags: W
LayerCount: 2
Fore
SplineSet
367 584 m 1,0,-1
 367 0 l 1,1,-1
 170 0 l 1,2,-1
 170 1456 l 1,3,-1
 727 1456 l 2,4,5
 960 1456 960 1456 1089.5 1336 c 128,-1,6
 1219 1216 1219 1216 1219 1020 c 0,7,8
 1219 822 1219 822 1089.5 703 c 128,-1,9
 960 584 960 584 727 584 c 2,10,-1
 367 584 l 1,0,-1
367 738 m 1,11,-1
 727 738 l 2,12,13
 875 738 875 738 948 817.5 c 128,-1,14
 1021 897 1021 897 1021 1018 c 256,15,16
 1021 1139 1021 1139 947.5 1220 c 128,-1,17
 874 1301 874 1301 727 1301 c 2,18,-1
 367 1301 l 1,19,-1
 367 738 l 1,11,-1
EndSplineSet
Validated: 1
Substitution2: "'smcp' Lowercase to Small Capitals lookup 0 subtable" P.smcp
EndChar

StartChar: Q
Encoding: 81 81 52
Width: 1427
GlyphClass: 1
Flags: W
LayerCount: 2
Fore
SplineSet
1282 598 m 2,0,1
 1282 483 1282 483 1248.5 380.5 c 128,-1,2
 1215 278 1215 278 1153 197 c 1,3,-1
 1370 -14 l 1,4,-1
 1235 -143 l 1,5,-1
 1013 70 l 1,6,7
 943 25 943 25 861 2 c 128,-1,8
 779 -21 779 -21 687 -21 c 0,9,10
 432 -21 432 -21 272.5 155 c 128,-1,11
 113 331 113 331 113 598 c 2,12,-1
 113 857 l 2,13,14
 113 1123 113 1123 272.5 1300 c 128,-1,15
 432 1477 432 1477 687 1477 c 0,16,17
 951 1477 951 1477 1116.5 1300.5 c 128,-1,18
 1282 1124 1282 1124 1282 857 c 2,19,-1
 1282 598 l 2,0,1
1085 859 m 2,20,21
 1085 1059 1085 1059 977 1187 c 128,-1,22
 869 1315 869 1315 687 1315 c 0,23,24
 515 1315 515 1315 412.5 1187 c 128,-1,25
 310 1059 310 1059 310 859 c 2,26,-1
 310 598 l 2,27,28
 310 396 310 396 412.5 268 c 128,-1,29
 515 140 515 140 687 140 c 0,30,31
 870 140 870 140 977.5 267.5 c 128,-1,32
 1085 395 1085 395 1085 598 c 2,33,-1
 1085 859 l 2,20,21
EndSplineSet
Validated: 1
Substitution2: "'smcp' Lowercase to Small Capitals lookup 0 subtable" Q.smcp
EndChar

StartChar: R
Encoding: 82 82 53
Width: 1303
GlyphClass: 1
Flags: W
LayerCount: 2
Fore
SplineSet
367 631 m 1,0,-1
 367 0 l 1,1,-1
 170 0 l 1,2,-1
 170 1455 l 1,3,-1
 668 1455 l 2,4,5
 907 1455 907 1455 1033 1349 c 128,-1,6
 1159 1243 1159 1243 1159 1041 c 0,7,8
 1159 929 1159 929 1100.5 846 c 128,-1,9
 1042 763 1042 763 930 714 c 1,10,11
 1050 675 1050 675 1102.5 587.5 c 128,-1,12
 1155 500 1155 500 1155 371 c 2,13,-1
 1155 234 l 2,14,15
 1155 166 1155 166 1170 112 c 128,-1,16
 1185 58 1185 58 1222 24 c 1,17,-1
 1222 0 l 1,18,-1
 1019 0 l 1,19,20
 980 34 980 34 969 100 c 128,-1,21
 958 166 958 166 958 236 c 2,22,-1
 958 369 l 2,23,24
 958 487 958 487 889 559 c 128,-1,25
 820 631 820 631 704 631 c 2,26,-1
 367 631 l 1,0,-1
367 786 m 1,27,-1
 648 786 l 2,28,29
 815 786 815 786 888.5 849.5 c 128,-1,30
 962 913 962 913 962 1043 c 0,31,32
 962 1166 962 1166 890.5 1233.5 c 128,-1,33
 819 1301 819 1301 668 1301 c 2,34,-1
 367 1301 l 1,35,-1
 367 786 l 1,27,-1
EndSplineSet
Validated: 1
Substitution2: "'smcp' Lowercase to Small Capitals lookup 0 subtable" R.smcp
EndChar

StartChar: S
Encoding: 83 83 54
Width: 1252
GlyphClass: 1
Flags: W
LayerCount: 2
Fore
SplineSet
946 367 m 0,0,1
 946 466 946 466 875 533 c 128,-1,2
 804 600 804 600 625 647 c 0,3,4
 403 702 403 702 278.5 809 c 128,-1,5
 154 916 154 916 154 1078 c 0,6,7
 154 1249 154 1249 288 1363 c 128,-1,8
 422 1477 422 1477 636 1477 c 0,9,10
 866 1477 866 1477 1002.5 1346.5 c 128,-1,11
 1139 1216 1139 1216 1135 1042 c 1,12,-1
 1132 1036 l 1,13,-1
 944 1036 l 1,14,15
 944 1160 944 1160 857.5 1241 c 128,-1,16
 771 1322 771 1322 636 1322 c 0,17,18
 498 1322 498 1322 424.5 1255 c 128,-1,19
 351 1188 351 1188 351 1081 c 0,20,21
 351 986 351 986 431.5 922.5 c 128,-1,22
 512 859 512 859 693 811 c 0,23,24
 913 754 913 754 1028 643 c 128,-1,25
 1143 532 1143 532 1143 369 c 0,26,27
 1143 193 1143 193 1004.5 86 c 128,-1,28
 866 -21 866 -21 643 -21 c 0,29,30
 432 -21 432 -21 270.5 97 c 128,-1,31
 109 215 109 215 114 413 c 1,32,-1
 116 419 l 1,33,-1
 304 419 l 1,34,35
 304 282 304 282 408 207.5 c 128,-1,36
 512 133 512 133 643 133 c 0,37,38
 783 133 783 133 864.5 196 c 128,-1,39
 946 259 946 259 946 367 c 0,0,1
EndSplineSet
Validated: 33
Substitution2: "'smcp' Lowercase to Small Capitals lookup 0 subtable" S.smcp
EndChar

StartChar: T
Encoding: 84 84 55
Width: 1225
GlyphClass: 1
Flags: W
LayerCount: 2
Fore
SplineSet
1188 1301 m 1,0,-1
 708 1301 l 1,1,-1
 708 0 l 1,2,-1
 511 0 l 1,3,-1
 511 1301 l 1,4,-1
 37 1301 l 1,5,-1
 37 1456 l 1,6,-1
 1188 1456 l 1,7,-1
 1188 1301 l 1,0,-1
EndSplineSet
Validated: 1
Substitution2: "'smcp' Lowercase to Small Capitals lookup 0 subtable" T.smcp
EndChar

StartChar: U
Encoding: 85 85 56
Width: 1386
GlyphClass: 1
Flags: W
LayerCount: 2
Fore
SplineSet
1244 1456 m 1,0,-1
 1244 489 l 2,1,2
 1244 249 1244 249 1088 114 c 128,-1,3
 932 -21 932 -21 686 -21 c 0,4,5
 449 -21 449 -21 298 114.5 c 128,-1,6
 147 250 147 250 147 489 c 2,7,-1
 147 1456 l 1,8,-1
 344 1456 l 1,9,-1
 344 489 l 2,10,11
 344 322 344 322 439.5 227.5 c 128,-1,12
 535 133 535 133 686 133 c 0,13,14
 846 133 846 133 946.5 227.5 c 128,-1,15
 1047 322 1047 322 1047 489 c 2,16,-1
 1047 1456 l 1,17,-1
 1244 1456 l 1,0,-1
EndSplineSet
Validated: 1
Substitution2: "'smcp' Lowercase to Small Capitals lookup 0 subtable" U.smcp
EndChar

StartChar: V
Encoding: 86 86 57
Width: 1295
GlyphClass: 1
Flags: W
LayerCount: 2
Fore
SplineSet
612 382 m 1,0,-1
 645 261 l 1,1,-1
 651 261 l 1,2,-1
 684 382 l 1,3,-1
 1060 1456 l 1,4,-1
 1273 1456 l 1,5,-1
 732 0 l 1,6,-1
 563 0 l 1,7,-1
 22 1456 l 1,8,-1
 236 1456 l 1,9,-1
 612 382 l 1,0,-1
EndSplineSet
Validated: 1
Substitution2: "'smcp' Lowercase to Small Capitals lookup 0 subtable" V.smcp
EndChar

StartChar: W
Encoding: 87 87 58
Width: 1763
GlyphClass: 1
Flags: W
LayerCount: 2
Fore
SplineSet
462 505 m 1,0,-1
 487 314 l 1,1,-1
 493 313 l 1,2,-1
 527 505 l 1,3,-1
 785 1456 l 1,4,-1
 978 1456 l 1,5,-1
 1238 505 l 1,6,-1
 1272 310 l 1,7,-1
 1278 310 l 1,8,-1
 1305 505 l 1,9,-1
 1513 1456 l 1,10,-1
 1727 1456 l 1,11,-1
 1375 0 l 1,12,-1
 1199 0 l 1,13,-1
 908 1010 l 1,14,-1
 886 1141 l 1,15,-1
 880 1141 l 1,16,-1
 859 1010 l 1,17,-1
 564 0 l 1,18,-1
 388 0 l 1,19,-1
 37 1456 l 1,20,-1
 250 1456 l 1,21,-1
 462 505 l 1,0,-1
EndSplineSet
Validated: 1
Substitution2: "'smcp' Lowercase to Small Capitals lookup 0 subtable" W.smcp
EndChar

StartChar: X
Encoding: 88 88 59
Width: 1295
GlyphClass: 1
Flags: W
LayerCount: 2
Fore
SplineSet
650 888 m 1,0,-1
 990 1456 l 1,1,-1
 1228 1456 l 1,2,-1
 766 734 l 1,3,-1
 1238 0 l 1,4,-1
 1003 0 l 1,5,-1
 654 578 l 1,6,-1
 304 0 l 1,7,-1
 66 0 l 1,8,-1
 538 734 l 1,9,-1
 76 1456 l 1,10,-1
 312 1456 l 1,11,-1
 650 888 l 1,0,-1
EndSplineSet
Validated: 1
Substitution2: "'smcp' Lowercase to Small Capitals lookup 0 subtable" X.smcp
EndChar

StartChar: Y
Encoding: 89 89 60
Width: 1295
GlyphClass: 1
Flags: W
LayerCount: 2
Fore
SplineSet
645 716 m 1,0,-1
 1025 1456 l 1,1,-1
 1250 1456 l 1,2,-1
 739 512 l 1,3,-1
 739 0 l 1,4,-1
 543 0 l 1,5,-1
 543 527 l 1,6,-1
 40 1456 l 1,7,-1
 265 1456 l 1,8,-1
 645 716 l 1,0,-1
EndSplineSet
Validated: 1
Substitution2: "'smcp' Lowercase to Small Capitals lookup 0 subtable" Y.smcp
EndChar

StartChar: Z
Encoding: 90 90 61
Width: 1225
GlyphClass: 1
Flags: W
LayerCount: 2
Fore
SplineSet
319 154 m 1,0,-1
 1133 154 l 1,1,-1
 1133 0 l 1,2,-1
 97 0 l 1,3,-1
 97 146 l 1,4,-1
 875 1301 l 1,5,-1
 108 1301 l 1,6,-1
 108 1456 l 1,7,-1
 1100 1456 l 1,8,-1
 1100 1315 l 1,9,-1
 319 154 l 1,0,-1
EndSplineSet
Validated: 1
Substitution2: "'smcp' Lowercase to Small Capitals lookup 0 subtable" Z.smcp
EndChar

StartChar: bracketleft
Encoding: 91 91 62
Width: 552
GlyphClass: 1
Flags: W
LayerCount: 2
Fore
SplineSet
528 1509 m 1,0,-1
 340 1509 l 1,1,-1
 340 -157 l 1,2,-1
 528 -157 l 1,3,-1
 528 -312 l 1,4,-1
 143 -312 l 1,5,-1
 143 1664 l 1,6,-1
 528 1664 l 1,7,-1
 528 1509 l 1,0,-1
EndSplineSet
Validated: 1
EndChar

StartChar: backslash
Encoding: 92 92 63
Width: 846
GlyphClass: 1
Flags: W
LayerCount: 2
Fore
SplineSet
39 1456 m 1,0,-1
 225 1456 l 1,1,-1
 833 -125 l 1,2,-1
 647 -125 l 1,3,-1
 39 1456 l 1,0,-1
EndSplineSet
Validated: 1
EndChar

StartChar: bracketright
Encoding: 93 93 64
Width: 552
GlyphClass: 1
Flags: W
LayerCount: 2
Fore
SplineSet
11 1664 m 1,0,-1
 397 1664 l 1,1,-1
 397 -312 l 1,2,-1
 11 -312 l 1,3,-1
 11 -157 l 1,4,-1
 200 -157 l 1,5,-1
 200 1509 l 1,6,-1
 11 1509 l 1,7,-1
 11 1664 l 1,0,-1
EndSplineSet
Validated: 1
EndChar

StartChar: asciicircum
Encoding: 94 94 65
Width: 856
GlyphClass: 1
Flags: W
LayerCount: 2
Fore
SplineSet
244 729 m 1,0,-1
 61 729 l 1,1,-1
 360 1456 l 1,2,-1
 494 1456 l 1,3,-1
 792 729 l 1,4,-1
 611 729 l 1,5,-1
 445 1148 l 1,6,-1
 429 1218 l 1,7,-1
 423 1218 l 1,8,-1
 407 1148 l 1,9,-1
 244 729 l 1,0,-1
EndSplineSet
Validated: 1
EndChar

StartChar: underscore
Encoding: 95 95 66
Width: 931
GlyphClass: 1
Flags: W
LayerCount: 2
Fore
SplineSet
927 -154 m 1,0,-1
 4 -154 l 1,1,-1
 4 0 l 1,2,-1
 927 0 l 1,3,-1
 927 -154 l 1,0,-1
EndSplineSet
Validated: 1
EndChar

StartChar: grave
Encoding: 96 96 67
Width: 641
GlyphClass: 1
Flags: W
LayerCount: 2
Fore
SplineSet
490 1252 m 1,0,-1
 332 1252 l 1,1,-1
 82 1512 l 1,2,-1
 85 1518 l 1,3,-1
 315 1518 l 1,4,-1
 490 1252 l 1,0,-1
EndSplineSet
Validated: 1
EndChar

StartChar: a
Encoding: 97 97 68
Width: 1126
GlyphClass: 1
Flags: W
LayerCount: 2
Fore
SplineSet
808 0 m 1,0,1
 798 49 798 49 792.5 86.5 c 128,-1,2
 787 124 787 124 786 162 c 1,3,4
 731 84 731 84 642.5 31.5 c 128,-1,5
 554 -21 554 -21 452 -21 c 0,6,7
 283 -21 283 -21 194.5 65.5 c 128,-1,8
 106 152 106 152 106 304 c 0,9,10
 106 459 106 459 231.5 546.5 c 128,-1,11
 357 634 357 634 572 634 c 2,12,-1
 786 634 l 1,13,-1
 786 741 l 2,14,15
 786 836 786 836 728 891.5 c 128,-1,16
 670 947 670 947 564 947 c 0,17,18
 468 947 468 947 409 899 c 128,-1,19
 350 851 350 851 350 784 c 1,20,-1
 163 782 l 1,21,-1
 161 788 l 1,22,23
 154 906 154 906 271.5 1004 c 128,-1,24
 389 1102 389 1102 575 1102 c 0,25,26
 759 1102 759 1102 871 1008.5 c 128,-1,27
 983 915 983 915 983 739 c 2,28,-1
 983 218 l 2,29,30
 983 160 983 160 989 106 c 128,-1,31
 995 52 995 52 1011 0 c 1,32,-1
 808 0 l 1,0,1
481 144 m 0,33,34
 588 144 588 144 674 199 c 128,-1,35
 760 254 760 254 786 325 c 1,36,-1
 786 501 l 1,37,-1
 565 501 l 2,38,39
 446 501 446 501 374.5 441 c 128,-1,40
 303 381 303 381 303 300 c 0,41,42
 303 228 303 228 348 186 c 128,-1,43
 393 144 393 144 481 144 c 0,33,34
EndSplineSet
Validated: 33
Substitution2: "'smcp' Lowercase to Small Capitals lookup 0 subtable" A.smcp
EndChar

StartChar: b
Encoding: 98 98 69
Width: 1164
GlyphClass: 1
Flags: W
LayerCount: 2
Fore
SplineSet
1067 500 m 2,0,1
 1067 266 1067 266 954.5 122.5 c 128,-1,2
 842 -21 842 -21 645 -21 c 0,3,4
 537 -21 537 -21 457.5 21.5 c 128,-1,5
 378 64 378 64 326 147 c 1,6,-1
 294 0 l 1,7,-1
 143 0 l 1,8,-1
 143 1560 l 1,9,-1
 340 1560 l 1,10,-1
 340 954 l 1,11,12
 391 1026 391 1026 466.5 1064 c 128,-1,13
 542 1102 542 1102 643 1102 c 0,14,15
 843 1102 843 1102 955 942 c 128,-1,16
 1067 782 1067 782 1067 521 c 2,17,-1
 1067 500 l 2,0,1
870 521 m 2,18,19
 870 707 870 707 801.5 824.5 c 128,-1,20
 733 942 733 942 593 942 c 0,21,22
 502 942 502 942 439.5 897.5 c 128,-1,23
 377 853 377 853 340 778 c 1,24,-1
 340 309 l 1,25,26
 378 229 378 229 439.5 184 c 128,-1,27
 501 139 501 139 595 139 c 0,28,29
 734 139 734 139 802 238 c 128,-1,30
 870 337 870 337 870 500 c 2,31,-1
 870 521 l 2,18,19
EndSplineSet
Validated: 1
Substitution2: "'smcp' Lowercase to Small Capitals lookup 0 subtable" B.smcp
EndChar

StartChar: c
Encoding: 99 99 70
Width: 1072
GlyphClass: 1
Flags: W
LayerCount: 2
Fore
SplineSet
573 133 m 0,0,1
 664 133 664 133 732 193.5 c 128,-1,2
 800 254 800 254 800 342 c 1,3,-1
 978 342 l 1,4,-1
 981 336 l 1,5,6
 985 196 985 196 861 87.5 c 128,-1,7
 737 -21 737 -21 573 -21 c 0,8,9
 345 -21 345 -21 221 134 c 128,-1,10
 97 289 97 289 97 520 c 2,11,-1
 97 562 l 2,12,13
 97 791 97 791 221.5 946.5 c 128,-1,14
 346 1102 346 1102 573 1102 c 0,15,16
 754 1102 754 1102 869.5 990 c 128,-1,17
 985 878 985 878 981 715 c 1,18,-1
 979 709 l 1,19,-1
 800 709 l 1,20,21
 800 808 800 808 735.5 877.5 c 128,-1,22
 671 947 671 947 573 947 c 0,23,24
 428 947 428 947 361.5 834.5 c 128,-1,25
 295 722 295 722 295 562 c 2,26,-1
 295 520 l 2,27,28
 295 357 295 357 360.5 245 c 128,-1,29
 426 133 426 133 573 133 c 0,0,1
EndSplineSet
Validated: 33
Substitution2: "'smcp' Lowercase to Small Capitals lookup 0 subtable" C.smcp
EndChar

StartChar: d
Encoding: 100 100 71
Width: 1164
GlyphClass: 1
Flags: W
LayerCount: 2
Fore
SplineSet
98 521 m 2,0,1
 98 782 98 782 209.5 942 c 128,-1,2
 321 1102 321 1102 522 1102 c 0,3,4
 617 1102 617 1102 690.5 1067 c 128,-1,5
 764 1032 764 1032 816 965 c 1,6,-1
 816 1560 l 1,7,-1
 1013 1560 l 1,8,-1
 1013 0 l 1,9,-1
 862 0 l 1,10,-1
 832 137 l 1,11,12
 779 59 779 59 701 19 c 128,-1,13
 623 -21 623 -21 520 -21 c 0,14,15
 322 -21 322 -21 210 122.5 c 128,-1,16
 98 266 98 266 98 500 c 2,17,-1
 98 521 l 2,0,1
295 500 m 2,18,19
 295 336 295 336 362 237.5 c 128,-1,20
 429 139 429 139 570 139 c 0,21,22
 658 139 658 139 718 179 c 128,-1,23
 778 219 778 219 816 291 c 1,24,-1
 816 796 l 1,25,26
 778 863 778 863 717.5 902.5 c 128,-1,27
 657 942 657 942 572 942 c 0,28,29
 430 942 430 942 362.5 825 c 128,-1,30
 295 708 295 708 295 521 c 2,31,-1
 295 500 l 2,18,19
EndSplineSet
Validated: 1
Substitution2: "'smcp' Lowercase to Small Capitals lookup 0 subtable" D.smcp
EndChar

StartChar: e
Encoding: 101 101 72
Width: 1072
GlyphClass: 1
Flags: W
LayerCount: 2
Fore
SplineSet
591 -21 m 0,0,1
 358 -21 358 -21 227.5 128 c 128,-1,2
 97 277 97 277 97 520 c 2,3,-1
 97 564 l 2,4,5
 97 797 97 797 231.5 949.5 c 128,-1,6
 366 1102 366 1102 560 1102 c 0,7,8
 777 1102 777 1102 885.5 967 c 128,-1,9
 994 832 994 832 994 608 c 2,10,-1
 994 504 l 1,11,-1
 302 504 l 1,12,-1
 299 499 l 1,13,14
 299 336 299 336 371 234.5 c 128,-1,15
 443 133 443 133 591 133 c 0,16,17
 691 133 691 133 766.5 161.5 c 128,-1,18
 842 190 842 190 896 240 c 1,19,-1
 973 112 l 1,20,21
 915 56 915 56 820 17.5 c 128,-1,22
 725 -21 725 -21 591 -21 c 0,0,1
560 947 m 0,23,24
 457 947 457 947 389.5 867.5 c 128,-1,25
 322 788 322 788 307 664 c 1,26,-1
 309 659 l 1,27,-1
 797 659 l 1,28,-1
 797 675 l 2,29,30
 797 793 797 793 739 870 c 128,-1,31
 681 947 681 947 560 947 c 0,23,24
EndSplineSet
Validated: 1
Substitution2: "'smcp' Lowercase to Small Capitals lookup 0 subtable" E.smcp
EndChar

StartChar: f
Encoding: 102 102 73
Width: 674
GlyphClass: 1
Flags: W
LayerCount: 2
Fore
SplineSet
225 0 m 1,0,-1
 225 936 l 1,1,-1
 56 936 l 1,2,-1
 56 1082 l 1,3,-1
 225 1082 l 1,4,-1
 225 1219 l 2,5,6
 225 1392 225 1392 315.5 1486.5 c 128,-1,7
 406 1581 406 1581 568 1581 c 0,8,9
 602 1581 602 1581 636.5 1575.5 c 128,-1,10
 671 1570 671 1570 713 1560 c 1,11,-1
 689 1410 l 1,12,13
 671 1414 671 1414 645.5 1417 c 128,-1,14
 620 1420 620 1420 592 1420 c 0,15,16
 506 1420 506 1420 464 1368.5 c 128,-1,17
 422 1317 422 1317 422 1219 c 2,18,-1
 422 1082 l 1,19,-1
 618 1082 l 1,20,-1
 618 936 l 1,21,-1
 422 936 l 1,22,-1
 422 0 l 1,23,-1
 225 0 l 1,0,-1
EndSplineSet
Validated: 1
Substitution2: "'smcp' Lowercase to Small Capitals lookup 0 subtable" F.smcp
EndChar

StartChar: g
Encoding: 103 103 74
Width: 1164
GlyphClass: 1
Flags: W
LayerCount: 2
Fore
SplineSet
108 521 m 2,0,1
 108 782 108 782 219.5 942 c 128,-1,2
 331 1102 331 1102 531 1102 c 0,3,4
 634 1102 634 1102 712 1060.5 c 128,-1,5
 790 1019 790 1019 843 941 c 1,6,-1
 867 1082 l 1,7,-1
 1024 1082 l 1,8,-1
 1024 -6 l 2,9,10
 1024 -214 1024 -214 903 -325.5 c 128,-1,11
 782 -437 782 -437 554 -437 c 0,12,13
 476 -437 476 -437 385.5 -415.5 c 128,-1,14
 295 -394 295 -394 226 -357 c 1,15,-1
 256 -204 l 1,16,17
 313 -234 313 -234 393.5 -252.5 c 128,-1,18
 474 -271 474 -271 552 -271 c 0,19,20
 696 -271 696 -271 761.5 -205.5 c 128,-1,21
 827 -140 827 -140 827 -6 c 2,22,-1
 827 117 l 1,23,24
 774 49 774 49 700 14 c 128,-1,25
 626 -21 626 -21 529 -21 c 0,26,27
 331 -21 331 -21 219.5 122.5 c 128,-1,28
 108 266 108 266 108 500 c 2,29,-1
 108 521 l 2,0,1
305 500 m 2,30,31
 305 337 305 337 372 238 c 128,-1,32
 439 139 439 139 579 139 c 0,33,34
 668 139 668 139 728 179.5 c 128,-1,35
 788 220 788 220 827 294 c 1,36,-1
 827 792 l 1,37,38
 789 861 789 861 728 901.5 c 128,-1,39
 667 942 667 942 581 942 c 0,40,41
 440 942 440 942 372.5 825 c 128,-1,42
 305 708 305 708 305 521 c 2,43,-1
 305 500 l 2,30,31
EndSplineSet
Validated: 1
Substitution2: "'smcp' Lowercase to Small Capitals lookup 0 subtable" G.smcp
EndChar

StartChar: h
Encoding: 104 104 75
Width: 1164
GlyphClass: 1
Flags: W
LayerCount: 2
Fore
SplineSet
340 937 m 1,0,1
 396 1015 396 1015 477.5 1058.5 c 128,-1,2
 559 1102 559 1102 658 1102 c 0,3,4
 831 1102 831 1102 927.5 998 c 128,-1,5
 1024 894 1024 894 1024 678 c 2,6,-1
 1024 0 l 1,7,-1
 827 0 l 1,8,-1
 827 680 l 2,9,10
 827 814 827 814 769.5 878 c 128,-1,11
 712 942 712 942 598 942 c 0,12,13
 510 942 510 942 445 907.5 c 128,-1,14
 380 873 380 873 340 811 c 1,15,-1
 340 0 l 1,16,-1
 143 0 l 1,17,-1
 143 1560 l 1,18,-1
 340 1560 l 1,19,-1
 340 937 l 1,0,1
EndSplineSet
Validated: 1
Substitution2: "'smcp' Lowercase to Small Capitals lookup 0 subtable" H.smcp
EndChar

StartChar: i
Encoding: 105 105 76
Width: 516
GlyphClass: 1
Flags: W
LayerCount: 2
Fore
SplineSet
356 0 m 1,0,-1
 159 0 l 1,1,-1
 159 1082 l 1,2,-1
 356 1082 l 1,3,-1
 356 0 l 1,0,-1
356 1359 m 1,4,-1
 159 1359 l 1,5,-1
 159 1560 l 1,6,-1
 356 1560 l 1,7,-1
 356 1359 l 1,4,-1
EndSplineSet
Validated: 1
Substitution2: "'smcp' Lowercase to Small Capitals lookup 0 subtable" I.smcp
EndChar

StartChar: j
Encoding: 106 106 77
Width: 530
GlyphClass: 1
Flags: W
LayerCount: 2
Fore
SplineSet
370 1082 m 1,0,-1
 370 -89 l 2,1,2
 370 -256 370 -256 284 -346.5 c 128,-1,3
 198 -437 198 -437 45 -437 c 0,4,5
 14 -437 14 -437 -11.5 -432.5 c 128,-1,6
 -37 -428 -37 -428 -66 -419 c 1,7,-1
 -52 -264 l 1,8,9
 -38 -269 -38 -269 -12 -272.5 c 128,-1,10
 14 -276 14 -276 31 -276 c 0,11,12
 96 -276 96 -276 134.5 -232 c 128,-1,13
 173 -188 173 -188 173 -89 c 2,14,-1
 173 1082 l 1,15,-1
 370 1082 l 1,0,-1
364 1363 m 1,16,-1
 167 1363 l 1,17,-1
 167 1560 l 1,18,-1
 364 1560 l 1,19,-1
 364 1363 l 1,16,-1
EndSplineSet
Validated: 1
Substitution2: "'smcp' Lowercase to Small Capitals lookup 0 subtable" J.smcp
EndChar

StartChar: k
Encoding: 107 107 78
Width: 1050
GlyphClass: 1
Flags: W
LayerCount: 2
Fore
SplineSet
442 499 m 1,0,-1
 341 499 l 1,1,-1
 341 0 l 1,2,-1
 144 0 l 1,3,-1
 144 1560 l 1,4,-1
 341 1560 l 1,5,-1
 341 656 l 1,6,-1
 440 656 l 1,7,-1
 765 1082 l 1,8,-1
 1001 1082 l 1,9,-1
 608 583 l 1,10,-1
 1035 0 l 1,11,-1
 802 0 l 1,12,-1
 442 499 l 1,0,-1
EndSplineSet
Validated: 1
Substitution2: "'smcp' Lowercase to Small Capitals lookup 0 subtable" K.smcp
EndChar

StartChar: l
Encoding: 108 108 79
Width: 516
GlyphClass: 1
Flags: W
LayerCount: 2
Fore
SplineSet
356 0 m 1,0,-1
 159 0 l 1,1,-1
 159 1560 l 1,2,-1
 356 1560 l 1,3,-1
 356 0 l 1,0,-1
EndSplineSet
Validated: 1
Substitution2: "'smcp' Lowercase to Small Capitals lookup 0 subtable" L.smcp
EndChar

StartChar: m
Encoding: 109 109 80
Width: 1790
GlyphClass: 1
Flags: W
LayerCount: 2
Fore
SplineSet
319 1082 m 1,0,-1
 333 940 l 1,1,2
 386 1017 386 1017 467.5 1059.5 c 128,-1,3
 549 1102 549 1102 657 1102 c 256,4,5
 765 1102 765 1102 842.5 1052 c 128,-1,6
 920 1002 920 1002 959 902 c 1,7,8
 1011 995 1011 995 1094.5 1048.5 c 128,-1,9
 1178 1102 1178 1102 1290 1102 c 0,10,11
 1455 1102 1455 1102 1551 988.5 c 128,-1,12
 1647 875 1647 875 1647 647 c 2,13,-1
 1647 0 l 1,14,-1
 1450 0 l 1,15,-1
 1450 649 l 2,16,17
 1450 809 1450 809 1395 875.5 c 128,-1,18
 1340 942 1340 942 1231 942 c 0,19,20
 1130 942 1130 942 1067.5 872 c 128,-1,21
 1005 802 1005 802 994 695 c 1,22,-1
 994 687 l 1,23,-1
 994 0 l 1,24,-1
 796 0 l 1,25,-1
 796 649 l 2,26,27
 796 801 796 801 739.5 871.5 c 128,-1,28
 683 942 683 942 577 942 c 0,29,30
 487 942 487 942 429 905 c 128,-1,31
 371 868 371 868 340 801 c 1,32,-1
 340 0 l 1,33,-1
 143 0 l 1,34,-1
 143 1082 l 1,35,-1
 319 1082 l 1,0,-1
EndSplineSet
Validated: 1
Substitution2: "'smcp' Lowercase to Small Capitals lookup 0 subtable" M.smcp
EndChar

StartChar: n
Encoding: 110 110 81
Width: 1164
GlyphClass: 1
Flags: W
LayerCount: 2
Fore
SplineSet
319 1082 m 1,0,-1
 333 921 l 1,1,2
 387 1007 387 1007 468.5 1054.5 c 128,-1,3
 550 1102 550 1102 654 1102 c 0,4,5
 829 1102 829 1102 925 999.5 c 128,-1,6
 1021 897 1021 897 1021 683 c 2,7,-1
 1021 0 l 1,8,-1
 824 0 l 1,9,-1
 824 679 l 2,10,11
 824 822 824 822 767.5 882 c 128,-1,12
 711 942 711 942 595 942 c 0,13,14
 504 942 504 942 440.5 905.5 c 128,-1,15
 377 869 377 869 340 803 c 1,16,-1
 340 0 l 1,17,-1
 143 0 l 1,18,-1
 143 1082 l 1,19,-1
 319 1082 l 1,0,-1
EndSplineSet
Validated: 1
Substitution2: "'smcp' Lowercase to Small Capitals lookup 0 subtable" N.smcp
EndChar

StartChar: o
Encoding: 111 111 82
Width: 1164
GlyphClass: 1
Flags: W
LayerCount: 2
Fore
SplineSet
97 551 m 2,0,1
 97 791 97 791 227 946.5 c 128,-1,2
 357 1102 357 1102 580 1102 c 0,3,4
 805 1102 805 1102 935.5 947 c 128,-1,5
 1066 792 1066 792 1066 551 c 2,6,-1
 1066 529 l 2,7,8
 1066 287 1066 287 936 133 c 128,-1,9
 806 -21 806 -21 582 -21 c 256,10,11
 358 -21 358 -21 227.5 133.5 c 128,-1,12
 97 288 97 288 97 529 c 2,13,-1
 97 551 l 2,0,1
294 529 m 2,14,15
 294 357 294 357 366.5 245 c 128,-1,16
 439 133 439 133 582 133 c 0,17,18
 723 133 723 133 796 245 c 128,-1,19
 869 357 869 357 869 529 c 2,20,-1
 869 551 l 2,21,22
 869 721 869 721 795.5 834 c 128,-1,23
 722 947 722 947 580 947 c 0,24,25
 439 947 439 947 366.5 834 c 128,-1,26
 294 721 294 721 294 551 c 2,27,-1
 294 529 l 2,14,15
EndSplineSet
Validated: 1
Substitution2: "'smcp' Lowercase to Small Capitals lookup 0 subtable" O.smcp
EndChar

StartChar: p
Encoding: 112 112 83
Width: 1164
GlyphClass: 1
Flags: W
LayerCount: 2
Fore
SplineSet
1065 500 m 2,0,1
 1065 266 1065 266 953 122.5 c 128,-1,2
 841 -21 841 -21 644 -21 c 0,3,4
 544 -21 544 -21 468.5 12.5 c 128,-1,5
 393 46 393 46 340 113 c 1,6,-1
 340 -416 l 1,7,-1
 143 -416 l 1,8,-1
 143 1082 l 1,9,-1
 294 1082 l 1,10,-1
 325 942 l 1,11,12
 378 1020 378 1020 457 1061 c 128,-1,13
 536 1102 536 1102 641 1102 c 0,14,15
 842 1102 842 1102 953.5 942.5 c 128,-1,16
 1065 783 1065 783 1065 521 c 2,17,-1
 1065 500 l 2,0,1
868 521 m 2,18,19
 868 705 868 705 795.5 823.5 c 128,-1,20
 723 942 723 942 582 942 c 0,21,22
 497 942 497 942 437 903.5 c 128,-1,23
 377 865 377 865 340 798 c 1,24,-1
 340 275 l 1,25,26
 377 208 377 208 437 170.5 c 128,-1,27
 497 133 497 133 584 133 c 0,28,29
 724 133 724 133 796 235.5 c 128,-1,30
 868 338 868 338 868 500 c 2,31,-1
 868 521 l 2,18,19
EndSplineSet
Validated: 1
Substitution2: "'smcp' Lowercase to Small Capitals lookup 0 subtable" P.smcp
EndChar

StartChar: q
Encoding: 113 113 84
Width: 1164
GlyphClass: 1
Flags: W
LayerCount: 2
Fore
SplineSet
98 521 m 2,0,1
 98 782 98 782 209.5 942 c 128,-1,2
 321 1102 321 1102 522 1102 c 0,3,4
 620 1102 620 1102 695 1064.5 c 128,-1,5
 770 1027 770 1027 823 956 c 1,6,-1
 851 1082 l 1,7,-1
 1002 1082 l 1,8,-1
 1002 -416 l 1,9,-1
 805 -416 l 1,10,-1
 805 102 l 1,11,12
 753 41 753 41 682 10 c 128,-1,13
 611 -21 611 -21 520 -21 c 0,14,15
 322 -21 322 -21 210 122.5 c 128,-1,16
 98 266 98 266 98 500 c 2,17,-1
 98 521 l 2,0,1
295 500 m 2,18,19
 295 336 295 336 362.5 234.5 c 128,-1,20
 430 133 430 133 570 133 c 0,21,22
 651 133 651 133 708.5 169 c 128,-1,23
 766 205 766 205 805 270 c 1,24,-1
 805 816 l 1,25,26
 766 877 766 877 708.5 912 c 128,-1,27
 651 947 651 947 572 947 c 0,28,29
 431 947 431 947 363 827.5 c 128,-1,30
 295 708 295 708 295 521 c 2,31,-1
 295 500 l 2,18,19
EndSplineSet
Validated: 1
Substitution2: "'smcp' Lowercase to Small Capitals lookup 0 subtable" Q.smcp
EndChar

StartChar: r
Encoding: 114 114 85
Width: 717
GlyphClass: 1
Flags: W
LayerCount: 2
Fore
SplineSet
655 908 m 1,0,-1
 554 914 l 1,1,2
 476 914 476 914 422.5 877 c 128,-1,3
 369 840 369 840 340 773 c 1,4,-1
 340 0 l 1,5,-1
 143 0 l 1,6,-1
 143 1082 l 1,7,-1
 319 1082 l 1,8,-1
 338 924 l 1,9,10
 384 1008 384 1008 451.5 1055 c 128,-1,11
 519 1102 519 1102 607 1102 c 0,12,13
 629 1102 629 1102 649 1098.5 c 128,-1,14
 669 1095 669 1095 682 1091 c 1,15,-1
 655 908 l 1,0,-1
EndSplineSet
Validated: 1
Substitution2: "'smcp' Lowercase to Small Capitals lookup 0 subtable" R.smcp
EndChar

StartChar: s
Encoding: 115 115 86
Width: 1071
GlyphClass: 1
Flags: W
LayerCount: 2
Fore
SplineSet
772 291 m 0,0,1
 772 356 772 356 722.5 397 c 128,-1,2
 673 438 673 438 535 469 c 0,3,4
 344 510 344 510 241.5 584 c 128,-1,5
 139 658 139 658 139 782 c 0,6,7
 139 914 139 914 251.5 1008 c 128,-1,8
 364 1102 364 1102 543 1102 c 0,9,10
 727 1102 727 1102 841 1002 c 128,-1,11
 955 902 955 902 950 769 c 1,12,-1
 948 763 l 1,13,-1
 760 763 l 1,14,15
 760 833 760 833 698.5 890 c 128,-1,16
 637 947 637 947 543 947 c 0,17,18
 439 947 439 947 387.5 900 c 128,-1,19
 336 853 336 853 336 788 c 0,20,21
 336 724 336 724 380.5 689 c 128,-1,22
 425 654 425 654 564 625 c 0,23,24
 763 583 763 583 866 506 c 128,-1,25
 969 429 969 429 969 305 c 0,26,27
 969 161 969 161 852.5 70 c 128,-1,28
 736 -21 736 -21 548 -21 c 0,29,30
 341 -21 341 -21 222 84 c 128,-1,31
 103 189 103 189 109 329 c 1,32,-1
 111 335 l 1,33,-1
 299 335 l 1,34,35
 304 230 304 230 377 181.5 c 128,-1,36
 450 133 450 133 548 133 c 0,37,38
 653 133 653 133 712.5 177.5 c 128,-1,39
 772 222 772 222 772 291 c 0,0,1
EndSplineSet
Validated: 33
Substitution2: "'smcp' Lowercase to Small Capitals lookup 0 subtable" S.smcp
EndChar

StartChar: t
Encoding: 116 116 87
Width: 690
GlyphClass: 1
Flags: W
LayerCount: 2
Fore
SplineSet
417 1343 m 1,0,-1
 417 1082 l 1,1,-1
 622 1082 l 1,2,-1
 622 936 l 1,3,-1
 417 936 l 1,4,-1
 417 279 l 2,5,6
 417 203 417 203 448.5 172 c 128,-1,7
 480 141 480 141 532 141 c 0,8,9
 549 141 549 141 570 145.5 c 128,-1,10
 591 150 591 150 605 155 c 1,11,-1
 632 20 l 1,12,13
 610 2 610 2 567 -9.5 c 128,-1,14
 524 -21 524 -21 482 -21 c 0,15,16
 362 -21 362 -21 291 51.5 c 128,-1,17
 220 124 220 124 220 279 c 2,18,-1
 220 936 l 1,19,-1
 48 936 l 1,20,-1
 48 1082 l 1,21,-1
 220 1082 l 1,22,-1
 220 1343 l 1,23,-1
 417 1343 l 1,0,-1
EndSplineSet
Validated: 1
Substitution2: "'smcp' Lowercase to Small Capitals lookup 0 subtable" T.smcp
EndChar

StartChar: u
Encoding: 117 117 88
Width: 1164
GlyphClass: 1
Flags: W
LayerCount: 2
Fore
SplineSet
830 160 m 1,0,1
 779 73 779 73 699 26 c 128,-1,2
 619 -21 619 -21 514 -21 c 0,3,4
 337 -21 337 -21 238 92 c 128,-1,5
 139 205 139 205 139 444 c 2,6,-1
 139 1082 l 1,7,-1
 336 1082 l 1,8,-1
 336 442 l 2,9,10
 336 269 336 269 387 204 c 128,-1,11
 438 139 438 139 546 139 c 0,12,13
 651 139 651 139 719.5 181.5 c 128,-1,14
 788 224 788 224 823 302 c 1,15,-1
 823 1082 l 1,16,-1
 1020 1082 l 1,17,-1
 1020 0 l 1,18,-1
 843 0 l 1,19,-1
 830 160 l 1,0,1
EndSplineSet
Validated: 1
Substitution2: "'smcp' Lowercase to Small Capitals lookup 0 subtable" U.smcp
EndChar

StartChar: v
Encoding: 118 118 89
Width: 1030
GlyphClass: 1
Flags: W
LayerCount: 2
Fore
SplineSet
504 319 m 1,0,-1
 521 243 l 1,1,-1
 527 243 l 1,2,-1
 546 319 l 1,3,-1
 795 1082 l 1,4,-1
 996 1082 l 1,5,-1
 598 0 l 1,6,-1
 449 0 l 1,7,-1
 46 1082 l 1,8,-1
 248 1082 l 1,9,-1
 504 319 l 1,0,-1
EndSplineSet
Validated: 1
Substitution2: "'smcp' Lowercase to Small Capitals lookup 0 subtable" V.smcp
EndChar

StartChar: w
Encoding: 119 119 90
Width: 1550
GlyphClass: 1
Flags: W
LayerCount: 2
Fore
SplineSet
420 394 m 1,0,-1
 445 255 l 1,1,-1
 451 255 l 1,2,-1
 477 394 l 1,3,-1
 693 1082 l 1,4,-1
 851 1082 l 1,5,-1
 1068 394 l 1,6,-1
 1096 239 l 1,7,-1
 1102 239 l 1,8,-1
 1134 394 l 1,9,-1
 1294 1082 l 1,10,-1
 1500 1082 l 1,11,-1
 1186 0 l 1,12,-1
 1027 0 l 1,13,-1
 813 659 l 1,14,-1
 772 831 l 1,15,-1
 766 831 l 1,16,-1
 728 659 l 1,17,-1
 518 0 l 1,18,-1
 359 0 l 1,19,-1
 45 1082 l 1,20,-1
 250 1082 l 1,21,-1
 420 394 l 1,0,-1
EndSplineSet
Validated: 1
Substitution2: "'smcp' Lowercase to Small Capitals lookup 0 subtable" W.smcp
EndChar

StartChar: x
Encoding: 120 120 91
Width: 1030
GlyphClass: 1
Flags: W
LayerCount: 2
Fore
SplineSet
510 683 m 1,0,-1
 740 1082 l 1,1,-1
 970 1082 l 1,2,-1
 619 547 l 1,3,-1
 980 0 l 1,4,-1
 754 0 l 1,5,-1
 514 409 l 1,6,-1
 274 0 l 1,7,-1
 46 0 l 1,8,-1
 407 547 l 1,9,-1
 56 1082 l 1,10,-1
 283 1082 l 1,11,-1
 510 683 l 1,0,-1
EndSplineSet
Validated: 1
Substitution2: "'smcp' Lowercase to Small Capitals lookup 0 subtable" X.smcp
EndChar

StartChar: y
Encoding: 121 121 92
Width: 1030
GlyphClass: 1
Flags: W
LayerCount: 2
Fore
SplineSet
474 401 m 1,0,-1
 509 265 l 1,1,-1
 515 265 l 1,2,-1
 781 1082 l 1,3,-1
 1000 1082 l 1,4,-1
 545 -166 l 2,5,6
 504 -275 504 -275 427.5 -356 c 128,-1,7
 351 -437 351 -437 221 -437 c 0,8,9
 197 -437 197 -437 160 -431.5 c 128,-1,10
 123 -426 123 -426 103 -421 c 1,11,-1
 123 -266 l 1,12,13
 117 -265 117 -265 158.5 -268 c 128,-1,14
 200 -271 200 -271 211 -271 c 0,15,16
 274 -271 274 -271 314 -215 c 128,-1,17
 354 -159 354 -159 381 -91 c 2,18,-1
 428 22 l 1,19,-1
 26 1082 l 1,20,-1
 246 1082 l 1,21,-1
 474 401 l 1,0,-1
EndSplineSet
Validated: 1
Substitution2: "'smcp' Lowercase to Small Capitals lookup 0 subtable" Y.smcp
EndChar

StartChar: z
Encoding: 122 122 93
Width: 1030
GlyphClass: 1
Flags: W
LayerCount: 2
Fore
SplineSet
329 154 m 1,0,-1
 954 154 l 1,1,-1
 954 0 l 1,2,-1
 94 0 l 1,3,-1
 94 138 l 1,4,-1
 679 926 l 1,5,-1
 101 926 l 1,6,-1
 101 1082 l 1,7,-1
 920 1082 l 1,8,-1
 920 948 l 1,9,-1
 329 154 l 1,0,-1
EndSplineSet
Validated: 1
Substitution2: "'smcp' Lowercase to Small Capitals lookup 0 subtable" Z.smcp
EndChar

StartChar: braceleft
Encoding: 123 123 94
Width: 696
GlyphClass: 1
Flags: W
LayerCount: 2
Fore
SplineSet
631 -364 m 1,0,1
 436 -309 436 -309 354 -189 c 128,-1,2
 272 -69 272 -69 272 101 c 2,3,-1
 272 306 l 2,4,5
 272 418 272 418 220.5 480.5 c 128,-1,6
 169 543 169 543 63 543 c 1,7,-1
 63 690 l 1,8,9
 169 690 169 690 220.5 751.5 c 128,-1,10
 272 813 272 813 272 926 c 2,11,-1
 272 1132 l 2,12,13
 272 1303 272 1303 354 1422.5 c 128,-1,14
 436 1542 436 1542 631 1597 c 1,15,-1
 671 1480 l 1,16,17
 561 1445 561 1445 515 1354.5 c 128,-1,18
 469 1264 469 1264 469 1132 c 2,19,-1
 469 926 l 2,20,21
 469 821 469 821 426.5 741 c 128,-1,22
 384 661 384 661 299 616 c 1,23,24
 384 570 384 570 426.5 489.5 c 128,-1,25
 469 409 469 409 469 306 c 2,26,-1
 469 101 l 2,27,28
 469 -31 469 -31 515 -120.5 c 128,-1,29
 561 -210 561 -210 671 -246 c 1,30,-1
 631 -364 l 1,0,1
EndSplineSet
Validated: 1
EndChar

StartChar: bar
Encoding: 124 124 95
Width: 507
GlyphClass: 1
Flags: W
LayerCount: 2
Fore
SplineSet
342 -270 m 1,0,-1
 145 -270 l 1,1,-1
 145 1456 l 1,2,-1
 342 1456 l 1,3,-1
 342 -270 l 1,0,-1
EndSplineSet
Validated: 1
EndChar

StartChar: braceright
Encoding: 125 125 96
Width: 696
GlyphClass: 1
Flags: W
LayerCount: 2
Fore
SplineSet
21 -246 m 1,0,1
 130 -210 130 -210 177 -120.5 c 128,-1,2
 224 -31 224 -31 224 101 c 2,3,-1
 224 306 l 2,4,5
 224 413 224 413 269 493 c 128,-1,6
 314 573 314 573 408 616 c 1,7,8
 314 657 314 657 269 737 c 128,-1,9
 224 817 224 817 224 926 c 2,10,-1
 224 1132 l 2,11,12
 224 1264 224 1264 177 1354.5 c 128,-1,13
 130 1445 130 1445 21 1480 c 1,14,-1
 62 1597 l 1,15,16
 256 1542 256 1542 338.5 1422.5 c 128,-1,17
 421 1303 421 1303 421 1132 c 2,18,-1
 421 926 l 2,19,20
 421 813 421 813 471.5 751.5 c 128,-1,21
 522 690 522 690 630 690 c 1,22,-1
 630 543 l 1,23,24
 522 543 522 543 471.5 480.5 c 128,-1,25
 421 418 421 418 421 306 c 2,26,-1
 421 101 l 2,27,28
 421 -69 421 -69 338.5 -189 c 128,-1,29
 256 -309 256 -309 62 -364 c 1,30,-1
 21 -246 l 1,0,1
EndSplineSet
Validated: 1
EndChar

StartChar: asciitilde
Encoding: 126 126 97
Width: 1391
GlyphClass: 1
Flags: W
LayerCount: 2
Fore
SplineSet
1264 740 m 1,0,1
 1264 603 1264 603 1177 502 c 128,-1,2
 1090 401 1090 401 960 401 c 0,3,4
 870 401 870 401 796.5 434 c 128,-1,5
 723 467 723 467 638 541 c 0,6,7
 579 589 579 589 530 613 c 128,-1,8
 481 637 481 637 431 637 c 0,9,10
 364 637 364 637 316.5 584 c 128,-1,11
 269 531 269 531 269 456 c 1,12,-1
 128 474 l 1,13,14
 128 610 128 610 213.5 706.5 c 128,-1,15
 299 803 299 803 431 803 c 0,16,17
 519 803 519 803 594 768.5 c 128,-1,18
 669 734 669 734 754 664 c 0,19,20
 812 613 812 613 860 590 c 128,-1,21
 908 567 908 567 960 567 c 0,22,23
 1026 567 1026 567 1074.5 624 c 128,-1,24
 1123 681 1123 681 1123 758 c 1,25,-1
 1264 740 l 1,0,1
EndSplineSet
Validated: 1
EndChar

StartChar: exclamdown
Encoding: 161 161 99
Width: 507
GlyphClass: 1
Flags: W
LayerCount: 2
Fore
SplineSet
341 -374 m 1,0,-1
 144 -374 l 1,1,-1
 144 604 l 1,2,-1
 341 604 l 1,3,-1
 341 -374 l 1,0,-1
341 876 m 1,4,-1
 144 876 l 1,5,-1
 144 1082 l 1,6,-1
 341 1082 l 1,7,-1
 341 876 l 1,4,-1
EndSplineSet
Validated: 1
EndChar

StartChar: cent
Encoding: 162 162 100
Width: 1122
GlyphClass: 1
Flags: W
LayerCount: 2
Fore
SplineSet
573 133 m 0,0,1
 664 133 664 133 732 193.5 c 128,-1,2
 800 254 800 254 800 342 c 1,3,-1
 980 342 l 1,4,-1
 982 337 l 1,5,6
 985 221 985 221 896 122 c 128,-1,7
 807 23 807 23 676 -8 c 1,8,-1
 676 -245 l 1,9,-1
 478 -245 l 1,10,-1
 478 -12 l 1,11,12
 294 19 294 19 195.5 167 c 128,-1,13
 97 315 97 315 97 520 c 2,14,-1
 97 562 l 2,15,16
 97 764 97 764 196 912 c 128,-1,17
 295 1060 295 1060 478 1093 c 1,18,-1
 478 1318 l 1,19,-1
 676 1318 l 1,20,-1
 676 1091 l 1,21,22
 816 1061 816 1061 901 956.5 c 128,-1,23
 986 852 986 852 983 714 c 1,24,-1
 980 709 l 1,25,-1
 800 709 l 1,26,27
 800 808 800 808 735.5 877.5 c 128,-1,28
 671 947 671 947 573 947 c 0,29,30
 428 947 428 947 361.5 834.5 c 128,-1,31
 295 722 295 722 295 562 c 2,32,-1
 295 520 l 2,33,34
 295 357 295 357 360.5 245 c 128,-1,35
 426 133 426 133 573 133 c 0,0,1
EndSplineSet
Validated: 33
EndChar

StartChar: sterling
Encoding: 163 163 101
Width: 1194
GlyphClass: 1
Flags: W
LayerCount: 2
Fore
SplineSet
430 615 m 1,0,-1
 436 466 l 2,1,2
 436 376 436 376 420.5 294.5 c 128,-1,3
 405 213 405 213 376 154 c 1,4,-1
 1111 154 l 1,5,-1
 1110 0 l 1,6,-1
 134 0 l 1,7,-1
 134 154 l 1,8,-1
 144 154 l 1,9,10
 192 167 192 167 216 265 c 128,-1,11
 240 363 240 363 240 466 c 1,12,-1
 234 615 l 1,13,-1
 70 615 l 1,14,-1
 70 770 l 1,15,-1
 228 770 l 1,16,-1
 218 1040 l 1,17,18
 218 1244 218 1244 330 1360.5 c 128,-1,19
 442 1477 442 1477 630 1477 c 0,20,21
 830 1477 830 1477 940 1372.5 c 128,-1,22
 1050 1268 1050 1268 1046 1096 c 1,23,-1
 1044 1090 l 1,24,-1
 854 1090 l 1,25,26
 854 1208 854 1208 791 1265 c 128,-1,27
 728 1322 728 1322 630 1322 c 0,28,29
 531 1322 531 1322 473 1247.5 c 128,-1,30
 415 1173 415 1173 415 1040 c 1,31,-1
 425 770 l 1,32,-1
 843 770 l 1,33,-1
 843 615 l 1,34,-1
 430 615 l 1,0,-1
EndSplineSet
Validated: 33
EndChar

StartChar: currency
Encoding: 164 164 102
Width: 1456
GlyphClass: 1
Flags: W
LayerCount: 2
Fore
SplineSet
1097 108 m 1,0,1
 1020 46 1020 46 927.5 13 c 128,-1,2
 835 -20 835 -20 734 -20 c 256,3,4
 633 -20 633 -20 540.5 12.5 c 128,-1,5
 448 45 448 45 373 106 c 1,6,-1
 243 -26 l 1,7,-1
 104 112 l 1,8,-1
 242 252 l 1,9,10
 192 328 192 328 165.5 418.5 c 128,-1,11
 139 509 139 509 139 608 c 0,12,13
 139 710 139 710 167.5 804 c 128,-1,14
 196 898 196 898 250 976 c 1,15,-1
 104 1125 l 1,16,-1
 243 1264 l 1,17,-1
 386 1118 l 1,18,19
 460 1173 460 1173 549 1203.5 c 128,-1,20
 638 1234 638 1234 734 1234 c 0,21,22
 831 1234 831 1234 920 1203 c 128,-1,23
 1009 1172 1009 1172 1084 1116 c 1,24,-1
 1230 1265 l 1,25,-1
 1370 1125 l 1,26,-1
 1220 972 l 1,27,28
 1272 894 1272 894 1300.5 801.5 c 128,-1,29
 1329 709 1329 709 1329 608 c 0,30,31
 1329 510 1329 510 1302.5 420.5 c 128,-1,32
 1276 331 1276 331 1228 255 c 1,33,-1
 1370 112 l 1,34,-1
 1230 -27 l 1,35,-1
 1097 108 l 1,0,1
321 608 m 0,36,37
 321 420 321 420 441.5 287.5 c 128,-1,38
 562 155 562 155 734 155 c 0,39,40
 904 155 904 155 1024.5 287.5 c 128,-1,41
 1145 420 1145 420 1145 608 c 0,42,43
 1145 794 1145 794 1024.5 926 c 128,-1,44
 904 1058 904 1058 734 1058 c 0,45,46
 562 1058 562 1058 441.5 926 c 128,-1,47
 321 794 321 794 321 608 c 0,36,37
EndSplineSet
Validated: 1
EndChar

StartChar: yen
Encoding: 165 165 103
Width: 1243
GlyphClass: 1
Flags: W
LayerCount: 2
Fore
SplineSet
615 793 m 1,0,-1
 975 1456 l 1,1,-1
 1199 1456 l 1,2,-1
 781 738 l 1,3,-1
 1093 738 l 1,4,-1
 1093 615 l 1,5,-1
 710 615 l 1,6,-1
 710 448 l 1,7,-1
 1093 448 l 1,8,-1
 1093 326 l 1,9,-1
 710 326 l 1,10,-1
 710 0 l 1,11,-1
 513 0 l 1,12,-1
 513 326 l 1,13,-1
 138 326 l 1,14,-1
 138 448 l 1,15,-1
 513 448 l 1,16,-1
 513 615 l 1,17,-1
 138 615 l 1,18,-1
 138 738 l 1,19,-1
 449 738 l 1,20,-1
 30 1456 l 1,21,-1
 256 1456 l 1,22,-1
 615 793 l 1,0,-1
EndSplineSet
Validated: 1
EndChar

StartChar: brokenbar
Encoding: 166 166 104
Width: 499
GlyphClass: 1
Flags: W
LayerCount: 2
Fore
SplineSet
145 -270 m 1,0,-1
 145 522 l 1,1,-1
 342 522 l 1,2,-1
 342 -270 l 1,3,-1
 145 -270 l 1,0,-1
342 698 m 1,4,-1
 145 698 l 1,5,-1
 145 1456 l 1,6,-1
 342 1456 l 1,7,-1
 342 698 l 1,4,-1
EndSplineSet
Validated: 1
EndChar

StartChar: section
Encoding: 167 167 105
Width: 1259
GlyphClass: 1
Flags: W
LayerCount: 2
Fore
SplineSet
1148 431 m 0,0,1
 1148 337 1148 337 1100 267 c 128,-1,2
 1052 197 1052 197 965 157 c 1,3,4
 1034 106 1034 106 1069 38 c 128,-1,5
 1104 -30 1104 -30 1104 -128 c 0,6,7
 1104 -300 1104 -300 971 -397.5 c 128,-1,8
 838 -495 838 -495 613 -495 c 0,9,10
 392 -495 392 -495 241 -392.5 c 128,-1,11
 90 -290 90 -290 95 -70 c 1,12,-1
 97 -64 l 1,13,-1
 285 -62 l 1,14,15
 285 -205 285 -205 381.5 -272.5 c 128,-1,16
 478 -340 478 -340 613 -340 c 0,17,18
 750 -340 750 -340 828.5 -280.5 c 128,-1,19
 907 -221 907 -221 907 -130 c 256,20,21
 907 -39 907 -39 835 11.5 c 128,-1,22
 763 62 763 62 559 125 c 1,23,24
 320 188 320 188 207 281 c 128,-1,25
 94 374 94 374 94 551 c 0,26,27
 94 642 94 642 141 712.5 c 128,-1,28
 188 783 188 783 275 824 c 1,29,30
 207 874 207 874 173 943.5 c 128,-1,31
 139 1013 139 1013 139 1110 c 0,32,33
 139 1276 139 1276 273 1376.5 c 128,-1,34
 407 1477 407 1477 631 1477 c 0,35,36
 864 1477 864 1477 994 1365.5 c 128,-1,37
 1124 1254 1124 1254 1120 1052 c 1,38,-1
 1117 1046 l 1,39,-1
 929 1046 l 1,40,41
 929 1164 929 1164 850 1243 c 128,-1,42
 771 1322 771 1322 631 1322 c 0,43,44
 486 1322 486 1322 411 1262.5 c 128,-1,45
 336 1203 336 1203 336 1112 c 0,46,47
 336 1013 336 1013 403 963.5 c 128,-1,48
 470 914 470 914 681 856 c 0,49,50
 925 787 925 787 1036.5 696.5 c 128,-1,51
 1148 606 1148 606 1148 431 c 0,0,1
603 689 m 0,52,53
 556 701 556 701 514.5 713.5 c 128,-1,54
 473 726 473 726 437 741 c 1,55,56
 364 722 364 722 327.5 672 c 128,-1,57
 291 622 291 622 291 553 c 0,58,59
 291 453 291 453 359 401.5 c 128,-1,60
 427 350 427 350 637 291 c 0,61,62
 693 274 693 274 730 263 c 128,-1,63
 767 252 767 252 800 240 c 1,64,65
 872 260 872 260 912 309.5 c 128,-1,66
 952 359 952 359 952 428 c 0,67,68
 952 519 952 519 878.5 572.5 c 128,-1,69
 805 626 805 626 603 689 c 0,52,53
EndSplineSet
Validated: 33
EndChar

StartChar: dieresis
Encoding: 168 168 106
Width: 1021
GlyphClass: 1
Flags: W
LayerCount: 2
Fore
SplineSet
859 1256 m 1,0,-1
 640 1256 l 1,1,-1
 640 1456 l 1,2,-1
 859 1456 l 1,3,-1
 859 1256 l 1,0,-1
389 1256 m 1,4,-1
 170 1256 l 1,5,-1
 170 1456 l 1,6,-1
 389 1456 l 1,7,-1
 389 1256 l 1,4,-1
EndSplineSet
Validated: 1
EndChar

StartChar: copyright
Encoding: 169 169 107
Width: 1604
GlyphClass: 1
Flags: W
LayerCount: 2
Fore
SplineSet
1111 596 m 1,0,-1
 1113 590 l 1,1,2
 1117 439 1117 439 1029 360.5 c 128,-1,3
 941 282 941 282 784 282 c 0,4,5
 624 282 624 282 530 388.5 c 128,-1,6
 436 495 436 495 436 669 c 2,7,-1
 436 788 l 2,8,9
 436 961 436 961 530 1068 c 128,-1,10
 624 1175 624 1175 784 1175 c 0,11,12
 941 1175 941 1175 1029.5 1096 c 128,-1,13
 1118 1017 1118 1017 1114 868 c 1,14,-1
 1112 862 l 1,15,-1
 966 862 l 1,16,17
 966 957 966 957 920.5 1000.5 c 128,-1,18
 875 1044 875 1044 784 1044 c 0,19,20
 690 1044 690 1044 639 973.5 c 128,-1,21
 588 903 588 903 588 789 c 2,22,-1
 588 669 l 2,23,24
 588 552 588 552 639 482 c 128,-1,25
 690 412 690 412 784 412 c 0,26,27
 875 412 875 412 920 455 c 128,-1,28
 965 498 965 498 965 596 c 1,29,-1
 1111 596 l 1,0,-1
209 729 m 0,30,31
 209 464 209 464 380.5 282 c 128,-1,32
 552 100 552 100 798 100 c 0,33,34
 1043 100 1043 100 1215 282 c 128,-1,35
 1387 464 1387 464 1387 729 c 0,36,37
 1387 992 1387 992 1215 1173 c 128,-1,38
 1043 1354 1043 1354 798 1354 c 0,39,40
 552 1354 552 1354 380.5 1173 c 128,-1,41
 209 992 209 992 209 729 c 0,30,31
88 729 m 0,42,43
 88 1044 88 1044 295 1260 c 128,-1,44
 502 1476 502 1476 798 1476 c 0,45,46
 1093 1476 1093 1476 1300 1260 c 128,-1,47
 1507 1044 1507 1044 1507 729 c 0,48,49
 1507 413 1507 413 1299.5 196 c 128,-1,50
 1092 -21 1092 -21 798 -21 c 0,51,52
 502 -21 502 -21 295 196 c 128,-1,53
 88 413 88 413 88 729 c 0,42,43
EndSplineSet
Validated: 33
EndChar

StartChar: ordfeminine
Encoding: 170 170 108
Width: 917
GlyphClass: 1
Flags: W
LayerCount: 2
Fore
SplineSet
613 706 m 1,0,1
 605 727 605 727 600 751 c 128,-1,2
 595 775 595 775 592 801 c 1,3,4
 559 754 559 754 502.5 723 c 128,-1,5
 446 692 446 692 369 692 c 0,6,7
 250 692 250 692 185 753 c 128,-1,8
 120 814 120 814 120 920 c 0,9,10
 120 1030 120 1030 204.5 1090 c 128,-1,11
 289 1150 289 1150 450 1150 c 2,12,-1
 589 1150 l 1,13,-1
 589 1202 l 2,14,15
 589 1265 589 1265 559 1299 c 128,-1,16
 529 1333 529 1333 471 1333 c 0,17,18
 404 1333 404 1333 367.5 1306 c 128,-1,19
 331 1279 331 1279 331 1230 c 1,20,-1
 169 1243 l 1,21,-1
 168 1249 l 1,22,23
 162 1347 162 1347 246.5 1412 c 128,-1,24
 331 1477 331 1477 471 1477 c 0,25,26
 605 1477 605 1477 683 1406 c 128,-1,27
 761 1335 761 1335 761 1201 c 2,28,-1
 761 887 l 2,29,30
 761 837 761 837 767 793 c 128,-1,31
 773 749 773 749 787 706 c 1,32,-1
 613 706 l 1,0,1
411 831 m 0,33,34
 462 831 462 831 516.5 861 c 128,-1,35
 571 891 571 891 589 926 c 1,36,-1
 589 1036 l 1,37,-1
 451 1036 l 2,38,39
 376 1036 376 1036 334.5 1003 c 128,-1,40
 293 970 293 970 293 924 c 0,41,42
 293 879 293 879 322 855 c 128,-1,43
 351 831 351 831 411 831 c 0,33,34
EndSplineSet
Validated: 33
EndChar

StartChar: logicalnot
Encoding: 172 172 110
Width: 1137
GlyphClass: 1
Flags: W
LayerCount: 2
Fore
SplineSet
962 375 m 1,0,-1
 764 375 l 1,1,-1
 764 637 l 1,2,-1
 127 637 l 1,3,-1
 127 802 l 1,4,-1
 962 802 l 1,5,-1
 962 375 l 1,0,-1
EndSplineSet
Validated: 1
EndChar

StartChar: registered
Encoding: 174 174 112
Width: 1604
GlyphClass: 1
Flags: W
LayerCount: 2
Fore
SplineSet
88 729 m 0,0,1
 88 1044 88 1044 295 1260 c 128,-1,2
 502 1476 502 1476 798 1476 c 0,3,4
 1093 1476 1093 1476 1300 1260 c 128,-1,5
 1507 1044 1507 1044 1507 729 c 0,6,7
 1507 413 1507 413 1299.5 196 c 128,-1,8
 1092 -21 1092 -21 798 -21 c 0,9,10
 502 -21 502 -21 295 196 c 128,-1,11
 88 413 88 413 88 729 c 0,0,1
209 729 m 0,12,13
 209 463 209 463 380.5 281.5 c 128,-1,14
 552 100 552 100 798 100 c 0,15,16
 1042 100 1042 100 1214 282 c 128,-1,17
 1386 464 1386 464 1386 729 c 0,18,19
 1386 993 1386 993 1214.5 1173.5 c 128,-1,20
 1043 1354 1043 1354 798 1354 c 0,21,22
 552 1354 552 1354 380.5 1173.5 c 128,-1,23
 209 993 209 993 209 729 c 0,12,13
653 654 m 1,24,-1
 653 316 l 1,25,-1
 504 316 l 1,26,-1
 504 1166 l 1,27,-1
 784 1166 l 2,28,29
 936 1166 936 1166 1022.5 1100.5 c 128,-1,30
 1109 1035 1109 1035 1109 909 c 0,31,32
 1109 847 1109 847 1076 800 c 128,-1,33
 1043 753 1043 753 980 722 c 1,34,35
 1046 696 1046 696 1075.5 643 c 128,-1,36
 1105 590 1105 590 1105 515 c 2,37,-1
 1105 459 l 2,38,39
 1105 418 1105 418 1108.5 385.5 c 128,-1,40
 1112 353 1112 353 1122 332 c 1,41,-1
 1122 316 l 1,42,-1
 969 316 l 1,43,44
 960 337 960 337 958 377.5 c 128,-1,45
 956 418 956 418 956 460 c 2,46,-1
 956 514 l 2,47,48
 956 586 956 586 922.5 620 c 128,-1,49
 889 654 889 654 812 654 c 2,50,-1
 653 654 l 1,24,-1
653 784 m 1,51,-1
 805 784 l 2,52,53
 870 785 870 785 915.5 816.5 c 128,-1,54
 961 848 961 848 961 904 c 0,55,56
 961 977 961 977 921.5 1006.5 c 128,-1,57
 882 1036 882 1036 784 1036 c 2,58,-1
 653 1036 l 1,59,-1
 653 784 l 1,51,-1
EndSplineSet
Validated: 1
EndChar

StartChar: macron
Encoding: 175 175 113
AltUni2: 0002c9.ffffffff.0 0002c9.ffffffff.0
Width: 950
GlyphClass: 1
Flags: W
LayerCount: 2
Fore
SplineSet
844 1310 m 1,0,-1
 123 1310 l 1,1,-1
 123 1456 l 1,2,-1
 844 1456 l 1,3,-1
 844 1310 l 1,0,-1
EndSplineSet
Validated: 1
EndChar

StartChar: degree
Encoding: 176 176 114
Width: 763
GlyphClass: 1
Flags: W
LayerCount: 2
Fore
SplineSet
128 1216 m 0,0,1
 128 1322 128 1322 204 1399.5 c 128,-1,2
 280 1477 280 1477 385 1477 c 0,3,4
 488 1477 488 1477 562.5 1399.5 c 128,-1,5
 637 1322 637 1322 637 1216 c 0,6,7
 637 1108 637 1108 563 1033.5 c 128,-1,8
 489 959 489 959 385 959 c 0,9,10
 279 959 279 959 203.5 1033.5 c 128,-1,11
 128 1108 128 1108 128 1216 c 0,0,1
259 1216 m 256,12,13
 259 1161 259 1161 295.5 1125 c 128,-1,14
 332 1089 332 1089 385 1089 c 0,15,16
 437 1089 437 1089 472.5 1125 c 128,-1,17
 508 1161 508 1161 508 1216 c 256,18,19
 508 1271 508 1271 472 1308.5 c 128,-1,20
 436 1346 436 1346 385 1346 c 0,21,22
 332 1346 332 1346 295.5 1308.5 c 128,-1,23
 259 1271 259 1271 259 1216 c 256,12,13
EndSplineSet
Validated: 1
EndChar

StartChar: plusminus
Encoding: 177 177 115
Width: 1097
GlyphClass: 1
Flags: W
LayerCount: 2
Fore
SplineSet
657 856 m 1,0,-1
 1015 856 l 1,1,-1
 1015 702 l 1,2,-1
 657 702 l 1,3,-1
 657 289 l 1,4,-1
 480 289 l 1,5,-1
 480 702 l 1,6,-1
 99 702 l 1,7,-1
 99 856 l 1,8,-1
 480 856 l 1,9,-1
 480 1267 l 1,10,-1
 657 1267 l 1,11,-1
 657 856 l 1,0,-1
971 4 m 1,12,-1
 136 4 l 1,13,-1
 136 159 l 1,14,-1
 971 159 l 1,15,-1
 971 4 l 1,12,-1
EndSplineSet
Validated: 1
EndChar

StartChar: twosuperior
Encoding: 178 178 116
Width: 868
GlyphClass: 1
Flags: W
LayerCount: 2
Fore
SplineSet
714 667 m 1,0,-1
 122 667 l 1,1,-1
 122 797 l 1,2,-1
 424 1059 l 2,3,4
 493 1119 493 1119 515 1156.5 c 128,-1,5
 537 1194 537 1194 537 1236 c 0,6,7
 537 1286 537 1286 508.5 1317 c 128,-1,8
 480 1348 480 1348 422 1348 c 0,9,10
 355 1348 355 1348 318.5 1316 c 128,-1,11
 282 1284 282 1284 282 1234 c 1,12,-1
 121 1234 l 1,13,-1
 119 1240 l 1,14,15
 113 1339 113 1339 197 1409 c 128,-1,16
 281 1479 281 1479 422 1479 c 0,17,18
 557 1479 557 1479 633 1415 c 128,-1,19
 709 1351 709 1351 709 1235 c 0,20,21
 709 1155 709 1155 664.5 1099 c 128,-1,22
 620 1043 620 1043 504 938 c 2,23,-1
 351 803 l 1,24,-1
 353 797 l 1,25,-1
 714 797 l 1,26,-1
 714 667 l 1,0,-1
EndSplineSet
Validated: 33
EndChar

StartChar: threesuperior
Encoding: 179 179 117
Width: 876
GlyphClass: 1
Flags: W
LayerCount: 2
Fore
SplineSet
424 1137 m 2,0,1
 491 1137 491 1137 523.5 1165.5 c 128,-1,2
 556 1194 556 1194 556 1246 c 0,3,4
 556 1289 556 1289 519.5 1318 c 128,-1,5
 483 1347 483 1347 414 1347 c 0,6,7
 358 1347 358 1347 323.5 1323 c 128,-1,8
 289 1299 289 1299 289 1259 c 1,9,-1
 127 1259 l 1,10,-1
 125 1265 l 1,11,12
 119 1359 119 1359 203.5 1418.5 c 128,-1,13
 288 1478 288 1478 414 1478 c 0,14,15
 559 1478 559 1478 643 1418.5 c 128,-1,16
 727 1359 727 1359 727 1249 c 0,17,18
 727 1194 727 1194 691.5 1148.5 c 128,-1,19
 656 1103 656 1103 594 1077 c 1,20,21
 664 1054 664 1054 702 1006 c 128,-1,22
 740 958 740 958 740 890 c 0,23,24
 740 779 740 779 650 717 c 128,-1,25
 560 655 560 655 414 655 c 0,26,27
 287 655 287 655 196.5 713 c 128,-1,28
 106 771 106 771 112 882 c 1,29,-1
 113 888 l 1,30,-1
 276 888 l 1,31,32
 276 842 276 842 313.5 813.5 c 128,-1,33
 351 785 351 785 414 785 c 0,34,35
 486 785 486 785 528 814.5 c 128,-1,36
 570 844 570 844 570 892 c 0,37,38
 570 954 570 954 533.5 982.5 c 128,-1,39
 497 1011 497 1011 424 1011 c 2,40,-1
 292 1011 l 1,41,-1
 292 1137 l 1,42,-1
 424 1137 l 2,0,1
EndSplineSet
Validated: 33
EndChar

StartChar: acute
Encoding: 180 180 118
Width: 654
GlyphClass: 1
Flags: W
LayerCount: 2
Fore
SplineSet
316 1518 m 1,0,-1
 546 1518 l 1,1,-1
 548 1512 l 1,2,-1
 279 1252 l 1,3,-1
 131 1252 l 1,4,-1
 316 1518 l 1,0,-1
EndSplineSet
Validated: 1
EndChar

StartChar: mu
Encoding: 181 181 119
Width: 1164
GlyphClass: 1
Flags: W
LayerCount: 2
Fore
SplineSet
349 1082 m 1,0,-1
 349 440 l 2,1,2
 351 262 351 262 406.5 197.5 c 128,-1,3
 462 133 462 133 562 133 c 0,4,5
 660 133 660 133 720.5 169 c 128,-1,6
 781 205 781 205 813 275 c 1,7,-1
 813 1082 l 1,8,-1
 1010 1082 l 1,9,-1
 1010 0 l 1,10,-1
 833 0 l 1,11,-1
 824 108 l 1,12,13
 780 45 780 45 716.5 12 c 128,-1,14
 653 -21 653 -21 570 -21 c 0,15,16
 498 -21 498 -21 443.5 -4.5 c 128,-1,17
 389 12 389 12 349 47 c 1,18,-1
 349 -416 l 1,19,-1
 153 -416 l 1,20,-1
 153 1082 l 1,21,-1
 349 1082 l 1,0,-1
EndSplineSet
Validated: 1
EndChar

StartChar: paragraph
Encoding: 182 182 120
Width: 1006
GlyphClass: 1
Flags: W
LayerCount: 2
Fore
SplineSet
639 0 m 1,0,-1
 639 520 l 1,1,-1
 555 520 l 2,2,3
 322 520 322 520 192.5 649.5 c 128,-1,4
 63 779 63 779 63 988 c 0,5,6
 63 1195 63 1195 192.5 1325.5 c 128,-1,7
 322 1456 322 1456 555 1456 c 2,8,-1
 836 1456 l 1,9,-1
 836 0 l 1,10,-1
 639 0 l 1,0,-1
EndSplineSet
Validated: 1
EndChar

StartChar: periodcentered
Encoding: 183 183 121
Width: 540
GlyphClass: 1
Flags: W
LayerCount: 2
Fore
SplineSet
359 624 m 1,0,-1
 161 624 l 1,1,-1
 161 836 l 1,2,-1
 359 836 l 1,3,-1
 359 624 l 1,0,-1
EndSplineSet
Validated: 1
EndChar

StartChar: cedilla
Encoding: 184 184 122
Width: 509
GlyphClass: 1
Flags: W
LayerCount: 2
Fore
SplineSet
292 0 m 1,0,-1
 280 -52 l 1,1,2
 345 -63 345 -63 388 -104 c 128,-1,3
 431 -145 431 -145 431 -225 c 0,4,5
 431 -321 431 -321 352 -378 c 128,-1,6
 273 -435 273 -435 126 -435 c 1,7,-1
 119 -326 l 1,8,9
 191 -326 191 -326 235 -301.5 c 128,-1,10
 279 -277 279 -277 279 -228 c 0,11,12
 279 -180 279 -180 243 -161 c 128,-1,13
 207 -142 207 -142 120 -135 c 1,14,-1
 152 0 l 1,15,-1
 292 0 l 1,0,-1
EndSplineSet
Validated: 1
EndChar

StartChar: onesuperior
Encoding: 185 185 123
Width: 557
GlyphClass: 1
Flags: W
LayerCount: 2
Fore
SplineSet
396 665 m 1,0,-1
 222 665 l 1,1,-1
 222 1320 l 1,2,-1
 95 1320 l 1,3,-1
 95 1454 l 1,4,-1
 396 1477 l 1,5,-1
 396 665 l 1,0,-1
EndSplineSet
Validated: 1
EndChar

StartChar: ordmasculine
Encoding: 186 186 124
Width: 933
GlyphClass: 1
Flags: W
LayerCount: 2
Fore
SplineSet
120 1142 m 2,0,1
 120 1290 120 1290 214 1383.5 c 128,-1,2
 308 1477 308 1477 465 1477 c 0,3,4
 623 1477 623 1477 717 1383.5 c 128,-1,5
 811 1290 811 1290 811 1142 c 2,6,-1
 811 1025 l 2,7,8
 811 876 811 876 717.5 783.5 c 128,-1,9
 624 691 624 691 467 691 c 0,10,11
 309 691 309 691 214.5 783.5 c 128,-1,12
 120 876 120 876 120 1025 c 2,13,-1
 120 1142 l 2,0,1
293 1025 m 2,14,15
 293 937 293 937 337 884.5 c 128,-1,16
 381 832 381 832 467 832 c 0,17,18
 550 832 550 832 594.5 885 c 128,-1,19
 639 938 639 938 639 1025 c 2,20,-1
 639 1142 l 2,21,22
 639 1226 639 1226 594 1279.5 c 128,-1,23
 549 1333 549 1333 465 1333 c 256,24,25
 381 1333 381 1333 337 1279.5 c 128,-1,26
 293 1226 293 1226 293 1142 c 2,27,-1
 293 1025 l 2,14,15
EndSplineSet
Validated: 1
EndChar

StartChar: questiondown
Encoding: 191 191 129
Width: 1013
GlyphClass: 1
Flags: W
LayerCount: 2
Fore
SplineSet
645 672 m 1,0,1
 643 526 643 526 619 470 c 128,-1,2
 595 414 595 414 494 323 c 1,3,4
 394 205 394 205 352.5 142 c 128,-1,5
 311 79 311 79 311 -8 c 0,6,7
 311 -114 311 -114 367 -171 c 128,-1,8
 423 -228 423 -228 529 -228 c 0,9,10
 619 -228 619 -228 683.5 -178.5 c 128,-1,11
 748 -129 748 -129 748 -33 c 1,12,-1
 936 -33 l 1,13,-1
 939 -39 l 1,14,15
 941 -200 941 -200 824.5 -297 c 128,-1,16
 708 -394 708 -394 529 -394 c 0,17,18
 331 -394 331 -394 222.5 -293.5 c 128,-1,19
 114 -193 114 -193 114 -13 c 0,20,21
 114 114 114 114 184 220.5 c 128,-1,22
 254 327 254 327 371 441 c 0,23,24
 424 494 424 494 436 537 c 128,-1,25
 448 580 448 580 448 672 c 1,26,-1
 645 672 l 1,0,1
441 1083 m 1,27,-1
 647 1083 l 1,28,-1
 647 874 l 1,29,-1
 441 874 l 1,30,-1
 441 1083 l 1,27,-1
EndSplineSet
Validated: 33
EndChar

StartChar: AE
Encoding: 198 198 136
Width: 1999
GlyphClass: 1
Flags: W
LayerCount: 2
Fore
SplineSet
1924 0 m 1,0,-1
 1029 0 l 1,1,-1
 1014 350 l 1,2,-1
 457 350 l 1,3,-1
 256 0 l 1,4,-1
 14 0 l 1,5,-1
 895 1456 l 1,6,-1
 1862 1456 l 1,7,-1
 1862 1301 l 1,8,-1
 1171 1301 l 1,9,-1
 1191 835 l 1,10,-1
 1781 835 l 1,11,-1
 1781 680 l 1,12,-1
 1197 680 l 1,13,-1
 1219 154 l 1,14,-1
 1924 154 l 1,15,-1
 1924 0 l 1,0,-1
560 529 m 1,16,-1
 1007 529 l 1,17,-1
 976 1239 l 1,18,-1
 971 1241 l 1,19,-1
 560 529 l 1,16,-1
EndSplineSet
Validated: 1
EndChar

StartChar: Eth
Encoding: 208 208 146
Width: 1387
GlyphClass: 1
Flags: W
LayerCount: 2
Fore
SplineSet
170 0 m 1,0,-1
 170 663 l 1,1,-1
 2 663 l 1,2,-1
 2 818 l 1,3,-1
 170 818 l 1,4,-1
 170 1456 l 1,5,-1
 628 1456 l 2,6,7
 913 1456 913 1456 1086.5 1280.5 c 128,-1,8
 1260 1105 1260 1105 1260 827 c 2,9,-1
 1260 628 l 2,10,11
 1260 349 1260 349 1086.5 174.5 c 128,-1,12
 913 0 913 0 628 0 c 2,13,-1
 170 0 l 1,0,-1
643 663 m 1,14,-1
 367 663 l 1,15,-1
 367 154 l 1,16,-1
 628 154 l 2,17,18
 830 154 830 154 946.5 287 c 128,-1,19
 1063 420 1063 420 1063 628 c 2,20,-1
 1063 829 l 2,21,22
 1063 1035 1063 1035 946.5 1168 c 128,-1,23
 830 1301 830 1301 628 1301 c 2,24,-1
 367 1301 l 1,25,-1
 367 818 l 1,26,-1
 643 818 l 1,27,-1
 643 663 l 1,14,-1
EndSplineSet
Validated: 1
Substitution2: "'smcp' Lowercase to Small Capitals lookup 0 subtable" Eth.smcp
EndChar

StartChar: multiply
Encoding: 215 215 153
Width: 1096
GlyphClass: 1
Flags: W
LayerCount: 2
Fore
SplineSet
88 351 m 1,0,-1
 415 685 l 1,1,-1
 88 1019 l 1,2,-1
 214 1145 l 1,3,-1
 540 812 l 1,4,-1
 867 1145 l 1,5,-1
 993 1019 l 1,6,-1
 665 685 l 1,7,-1
 993 351 l 1,8,-1
 867 225 l 1,9,-1
 540 557 l 1,10,-1
 214 225 l 1,11,-1
 88 351 l 1,0,-1
EndSplineSet
Validated: 1
EndChar

StartChar: Oslash
Encoding: 216 216 154
Width: 1396
GlyphClass: 1
Flags: W
LayerCount: 2
Fore
SplineSet
1282 598 m 2,0,1
 1282 331 1282 331 1116.5 155 c 128,-1,2
 951 -21 951 -21 687 -21 c 0,3,4
 602 -21 602 -21 526.5 -0.5 c 128,-1,5
 451 20 451 20 387 60 c 1,6,-1
 296 -94 l 1,7,-1
 147 -94 l 1,8,-1
 286 140 l 1,9,10
 202 224 202 224 157.5 342 c 128,-1,11
 113 460 113 460 113 598 c 2,12,-1
 113 857 l 2,13,14
 113 1123 113 1123 272.5 1300 c 128,-1,15
 432 1477 432 1477 687 1477 c 0,16,17
 781 1477 781 1477 865.5 1451.5 c 128,-1,18
 950 1426 950 1426 1022 1380 c 1,19,-1
 1103 1517 l 1,20,-1
 1252 1517 l 1,21,-1
 1120 1296 l 1,22,23
 1197 1212 1197 1212 1239.5 1099 c 128,-1,24
 1282 986 1282 986 1282 857 c 2,25,-1
 1282 598 l 2,0,1
310 598 m 2,26,27
 310 513 310 513 329 440 c 128,-1,28
 348 367 348 367 383 315 c 1,29,-1
 389 314 l 1,30,-1
 933 1230 l 1,31,32
 883 1271 883 1271 821 1293 c 128,-1,33
 759 1315 759 1315 687 1315 c 0,34,35
 515 1315 515 1315 412.5 1187 c 128,-1,36
 310 1059 310 1059 310 859 c 2,37,-1
 310 598 l 2,26,27
1085 859 m 2,38,39
 1085 934 1085 934 1068.5 1001 c 128,-1,40
 1052 1068 1052 1068 1022 1118 c 1,41,-1
 1016 1119 l 1,42,-1
 475 208 l 1,43,44
 519 174 519 174 572 157 c 128,-1,45
 625 140 625 140 687 140 c 0,46,47
 870 140 870 140 977.5 267.5 c 128,-1,48
 1085 395 1085 395 1085 598 c 2,49,-1
 1085 859 l 2,38,39
EndSplineSet
Validated: 1
EndChar

StartChar: Thorn
Encoding: 222 222 160
Width: 1209
GlyphClass: 1
Flags: W
LayerCount: 2
Fore
SplineSet
360 1456 m 1,0,-1
 360 1163 l 1,1,-1
 629 1163 l 2,2,3
 861 1163 861 1163 991 1045 c 128,-1,4
 1121 927 1121 927 1121 738 c 0,5,6
 1121 548 1121 548 991 430.5 c 128,-1,7
 861 313 861 313 629 313 c 2,8,-1
 360 313 l 1,9,-1
 360 0 l 1,10,-1
 163 0 l 1,11,-1
 163 1456 l 1,12,-1
 360 1456 l 1,0,-1
360 1009 m 1,13,-1
 360 467 l 1,14,-1
 629 467 l 2,15,16
 776 467 776 467 849.5 545 c 128,-1,17
 923 623 923 623 923 736 c 0,18,19
 923 850 923 850 849.5 929.5 c 128,-1,20
 776 1009 776 1009 629 1009 c 2,21,-1
 360 1009 l 1,13,-1
EndSplineSet
Validated: 1
EndChar

StartChar: germandbls
Encoding: 223 223 161
Width: 1221
GlyphClass: 1
Flags: W
LayerCount: 2
Fore
SplineSet
333 0 m 1,0,-1
 137 0 l 1,1,-1
 137 1082 l 2,2,3
 137 1305 137 1305 254.5 1430 c 128,-1,4
 372 1555 372 1555 555 1555 c 0,5,6
 716 1555 716 1555 817 1469 c 128,-1,7
 918 1383 918 1383 918 1216 c 0,8,9
 918 1098 918 1098 853.5 988 c 128,-1,10
 789 878 789 878 789 821 c 0,11,12
 789 739 789 739 962.5 597 c 128,-1,13
 1136 455 1136 455 1136 316 c 0,14,15
 1136 149 1136 149 1031.5 64 c 128,-1,16
 927 -21 927 -21 749 -21 c 0,17,18
 665 -21 665 -21 576.5 -0.5 c 128,-1,19
 488 20 488 20 451 50 c 1,20,-1
 495 209 l 1,21,22
 538 181 538 181 603 157 c 128,-1,23
 668 133 668 133 729 133 c 0,24,25
 837 133 837 133 888 180.5 c 128,-1,26
 939 228 939 228 939 306 c 0,27,28
 939 390 939 390 765.5 533.5 c 128,-1,29
 592 677 592 677 592 823 c 0,30,31
 592 903 592 903 662.5 1013.5 c 128,-1,32
 733 1124 733 1124 733 1200 c 0,33,34
 733 1293 733 1293 682 1347 c 128,-1,35
 631 1401 631 1401 565 1401 c 0,36,37
 461 1401 461 1401 397 1317.5 c 128,-1,38
 333 1234 333 1234 333 1082 c 2,39,-1
 333 0 l 1,0,-1
EndSplineSet
Validated: 1
Substitution2: "'smcp' Lowercase to Small Capitals lookup 0 subtable" germandbls.smcp
EndChar

StartChar: ae
Encoding: 230 230 168
Width: 1789
GlyphClass: 1
Flags: W
LayerCount: 2
Fore
SplineSet
1292 -21 m 0,0,1
 1156 -21 1156 -21 1052 27.5 c 128,-1,2
 948 76 948 76 882 166 c 1,3,4
 826 87 826 87 714.5 33 c 128,-1,5
 603 -21 603 -21 443 -21 c 0,6,7
 273 -21 273 -21 180.5 66 c 128,-1,8
 88 153 88 153 88 304 c 0,9,10
 88 461 88 461 203 547 c 128,-1,11
 318 633 318 633 538 633 c 2,12,-1
 767 633 l 1,13,-1
 767 720 l 2,14,15
 767 826 767 826 715 886.5 c 128,-1,16
 663 947 663 947 566 947 c 0,17,18
 463 947 463 947 402 892 c 128,-1,19
 341 837 341 837 341 759 c 1,20,-1
 153 777 l 1,21,-1
 151 783 l 1,22,23
 146 921 146 921 261 1011.5 c 128,-1,24
 376 1102 376 1102 566 1102 c 0,25,26
 680 1102 680 1102 767.5 1061.5 c 128,-1,27
 855 1021 855 1021 905 944 c 1,28,29
 969 1019 969 1019 1056.5 1060.5 c 128,-1,30
 1144 1102 1144 1102 1245 1102 c 0,31,32
 1459 1102 1459 1102 1574.5 972 c 128,-1,33
 1690 842 1690 842 1690 614 c 2,34,-1
 1690 495 l 1,35,-1
 981 495 l 1,36,-1
 979 490 l 1,37,38
 980 331 980 331 1058.5 232 c 128,-1,39
 1137 133 1137 133 1292 133 c 0,40,41
 1395 133 1395 133 1461.5 160.5 c 128,-1,42
 1528 188 1528 188 1606 239 c 1,43,-1
 1673 101 l 1,44,45
 1620 57 1620 57 1526 18 c 128,-1,46
 1432 -21 1432 -21 1292 -21 c 0,0,1
482 133 m 0,47,48
 558 133 558 133 641 176.5 c 128,-1,49
 724 220 724 220 767 277 c 1,50,-1
 767 491 l 1,51,-1
 540 491 l 2,52,53
 420 491 420 491 352.5 435.5 c 128,-1,54
 285 380 285 380 285 300 c 0,55,56
 285 226 285 226 335 179.5 c 128,-1,57
 385 133 385 133 482 133 c 0,47,48
1245 947 m 0,58,59
 1132 947 1132 947 1063 862.5 c 128,-1,60
 994 778 994 778 983 645 c 1,61,-1
 985 640 l 1,62,-1
 1493 640 l 1,63,-1
 1493 671 l 2,64,65
 1493 793 1493 793 1433 870 c 128,-1,66
 1373 947 1373 947 1245 947 c 0,58,59
EndSplineSet
Validated: 33
EndChar

StartChar: eth
Encoding: 240 240 178
Width: 1202
GlyphClass: 1
Flags: W
LayerCount: 2
Fore
SplineSet
873 1297 m 1,0,1
 968 1193 968 1193 1020 1055.5 c 128,-1,2
 1072 918 1072 918 1072 755 c 2,3,-1
 1072 535 l 2,4,5
 1072 290 1072 290 928 134.5 c 128,-1,6
 784 -21 784 -21 569 -21 c 0,7,8
 351 -21 351 -21 211.5 119 c 128,-1,9
 72 259 72 259 72 466 c 0,10,11
 72 694 72 694 210 836 c 128,-1,12
 348 978 348 978 561 978 c 0,13,14
 651 978 651 978 730.5 941 c 128,-1,15
 810 904 810 904 862 844 c 1,16,-1
 866 849 l 1,17,18
 857 958 857 958 814.5 1046 c 128,-1,19
 772 1134 772 1134 704 1200 c 1,20,-1
 414 1035 l 1,21,-1
 337 1137 l 1,22,-1
 593 1283 l 1,23,24
 554 1305 554 1305 512.5 1322 c 128,-1,25
 471 1339 471 1339 427 1353 c 1,26,-1
 487 1517 l 1,27,28
 566 1498 566 1498 638 1465 c 128,-1,29
 710 1432 710 1432 773 1386 c 1,30,-1
 991 1511 l 1,31,-1
 1068 1409 l 1,32,-1
 873 1297 l 1,0,1
573 133 m 0,33,34
 706 133 706 133 790.5 247 c 128,-1,35
 875 361 875 361 875 535 c 2,36,-1
 875 683 l 1,37,38
 840 742 840 742 759.5 782.5 c 128,-1,39
 679 823 679 823 561 823 c 0,40,41
 430 823 430 823 349.5 719 c 128,-1,42
 269 615 269 615 269 466 c 0,43,44
 269 334 269 334 351 233.5 c 128,-1,45
 433 133 433 133 573 133 c 0,33,34
EndSplineSet
Validated: 1
Substitution2: "'smcp' Lowercase to Small Capitals lookup 0 subtable" Eth.smcp
EndChar

StartChar: divide
Encoding: 247 247 185
Width: 1170
GlyphClass: 1
Flags: W
LayerCount: 2
Fore
SplineSet
1069 597 m 1,0,-1
 71 597 l 1,1,-1
 71 785 l 1,2,-1
 1069 785 l 1,3,-1
 1069 597 l 1,0,-1
670 999 m 1,4,-1
 472 999 l 1,5,-1
 472 1202 l 1,6,-1
 670 1202 l 1,7,-1
 670 999 l 1,4,-1
670 180 m 1,8,-1
 472 180 l 1,9,-1
 472 383 l 1,10,-1
 670 383 l 1,11,-1
 670 180 l 1,8,-1
EndSplineSet
Validated: 1
EndChar

StartChar: oslash
Encoding: 248 248 186
Width: 1164
GlyphClass: 1
Flags: W
LayerCount: 2
Fore
SplineSet
97 551 m 2,0,1
 97 791 97 791 227 946.5 c 128,-1,2
 357 1102 357 1102 580 1102 c 0,3,4
 636 1102 636 1102 687.5 1091 c 128,-1,5
 739 1080 739 1080 785 1060 c 1,6,-1
 859 1209 l 1,7,-1
 988 1209 l 1,8,-1
 884 998 l 1,9,10
 972 924 972 924 1019 808 c 128,-1,11
 1066 692 1066 692 1066 551 c 2,12,-1
 1066 529 l 2,13,14
 1066 287 1066 287 936 133 c 128,-1,15
 806 -21 806 -21 582 -21 c 0,16,17
 531 -21 531 -21 485 -12.5 c 128,-1,18
 439 -4 439 -4 397 12 c 1,19,-1
 325 -135 l 1,20,-1
 196 -135 l 1,21,-1
 296 69 l 1,22,23
 200 140 200 140 148.5 260 c 128,-1,24
 97 380 97 380 97 529 c 2,25,-1
 97 551 l 2,0,1
294 529 m 2,26,27
 294 438 294 438 314 362.5 c 128,-1,28
 334 287 334 287 375 239 c 1,29,-1
 381 239 l 1,30,-1
 713 913 l 1,31,32
 684 929 684 929 650.5 938 c 128,-1,33
 617 947 617 947 580 947 c 0,34,35
 439 947 439 947 366.5 834 c 128,-1,36
 294 721 294 721 294 551 c 2,37,-1
 294 529 l 2,26,27
869 551 m 2,38,39
 869 631 869 631 851.5 701.5 c 128,-1,40
 834 772 834 772 802 819 c 1,41,-1
 796 819 l 1,42,-1
 469 156 l 1,43,44
 493 144 493 144 521 138.5 c 128,-1,45
 549 133 549 133 582 133 c 0,46,47
 723 133 723 133 796 245 c 128,-1,48
 869 357 869 357 869 529 c 2,49,-1
 869 551 l 2,38,39
EndSplineSet
Validated: 1
EndChar

StartChar: thorn
Encoding: 254 254 192
Width: 1186
GlyphClass: 1
Flags: W
LayerCount: 2
Fore
SplineSet
1075 500 m 2,0,1
 1075 266 1075 266 963 122.5 c 128,-1,2
 851 -21 851 -21 654 -21 c 0,3,4
 554 -21 554 -21 478.5 12.5 c 128,-1,5
 403 46 403 46 350 113 c 1,6,-1
 350 -416 l 1,7,-1
 153 -416 l 1,8,-1
 153 1560 l 1,9,-1
 350 1560 l 1,10,-1
 350 962 l 1,11,12
 403 1030 403 1030 478 1066 c 128,-1,13
 553 1102 553 1102 651 1102 c 0,14,15
 852 1102 852 1102 963.5 942.5 c 128,-1,16
 1075 783 1075 783 1075 521 c 2,17,-1
 1075 500 l 2,0,1
878 521 m 2,18,19
 878 705 878 705 805.5 823.5 c 128,-1,20
 733 942 733 942 592 942 c 0,21,22
 507 942 507 942 447 903.5 c 128,-1,23
 387 865 387 865 350 798 c 1,24,-1
 350 275 l 1,25,26
 387 208 387 208 447 170.5 c 128,-1,27
 507 133 507 133 594 133 c 0,28,29
 734 133 734 133 806 235.5 c 128,-1,30
 878 338 878 338 878 500 c 2,31,-1
 878 521 l 2,18,19
EndSplineSet
Validated: 1
EndChar

StartChar: Dcroat
Encoding: 272 272 210
Width: 1387
GlyphClass: 1
Flags: W
LayerCount: 2
Fore
SplineSet
170 0 m 1,0,-1
 170 663 l 1,1,-1
 2 663 l 1,2,-1
 2 818 l 1,3,-1
 170 818 l 1,4,-1
 170 1456 l 1,5,-1
 628 1456 l 2,6,7
 913 1456 913 1456 1086.5 1280.5 c 128,-1,8
 1260 1105 1260 1105 1260 827 c 2,9,-1
 1260 628 l 2,10,11
 1260 349 1260 349 1086.5 174.5 c 128,-1,12
 913 0 913 0 628 0 c 2,13,-1
 170 0 l 1,0,-1
643 663 m 1,14,-1
 367 663 l 1,15,-1
 367 154 l 1,16,-1
 628 154 l 2,17,18
 830 154 830 154 946.5 287 c 128,-1,19
 1063 420 1063 420 1063 628 c 2,20,-1
 1063 829 l 2,21,22
 1063 1035 1063 1035 946.5 1168 c 128,-1,23
 830 1301 830 1301 628 1301 c 2,24,-1
 367 1301 l 1,25,-1
 367 818 l 1,26,-1
 643 818 l 1,27,-1
 643 663 l 1,14,-1
EndSplineSet
Validated: 1
Substitution2: "'smcp' Lowercase to Small Capitals lookup 0 subtable" Dcroat.smcp
EndChar

StartChar: dcroat
Encoding: 273 273 211
Width: 1164
GlyphClass: 1
Flags: W
LayerCount: 2
Fore
SplineSet
1210 1231 m 1,0,-1
 1013 1231 l 1,1,-1
 1013 0 l 1,2,-1
 862 0 l 1,3,-1
 832 137 l 1,4,5
 779 59 779 59 701 19 c 128,-1,6
 623 -21 623 -21 520 -21 c 0,7,8
 322 -21 322 -21 210 122.5 c 128,-1,9
 98 266 98 266 98 500 c 2,10,-1
 98 521 l 2,11,12
 98 782 98 782 209.5 942 c 128,-1,13
 321 1102 321 1102 522 1102 c 0,14,15
 617 1102 617 1102 690.5 1067 c 128,-1,16
 764 1032 764 1032 816 965 c 1,17,-1
 816 1231 l 1,18,-1
 569 1231 l 1,19,-1
 569 1386 l 1,20,-1
 816 1386 l 1,21,-1
 816 1560 l 1,22,-1
 1013 1560 l 1,23,-1
 1013 1386 l 1,24,-1
 1210 1386 l 1,25,-1
 1210 1231 l 1,0,-1
295 500 m 2,26,27
 295 336 295 336 362 237.5 c 128,-1,28
 429 139 429 139 570 139 c 0,29,30
 658 139 658 139 718 179 c 128,-1,31
 778 219 778 219 816 291 c 1,32,-1
 816 796 l 1,33,34
 778 863 778 863 717.5 902.5 c 128,-1,35
 657 942 657 942 572 942 c 0,36,37
 430 942 430 942 362.5 825 c 128,-1,38
 295 708 295 708 295 521 c 2,39,-1
 295 500 l 2,26,27
EndSplineSet
Validated: 1
Substitution2: "'smcp' Lowercase to Small Capitals lookup 0 subtable" Dcroat.smcp
EndChar

StartChar: Hbar
Encoding: 294 294 232
Width: 1439
GlyphClass: 1
Flags: W
LayerCount: 2
Fore
SplineSet
1279 1169 m 1,0,-1
 1423 1169 l 1,1,-1
 1423 1024 l 1,2,-1
 1279 1024 l 1,3,-1
 1279 0 l 1,4,-1
 1082 0 l 1,5,-1
 1082 643 l 1,6,-1
 375 643 l 1,7,-1
 375 0 l 1,8,-1
 178 0 l 1,9,-1
 178 1024 l 1,10,-1
 31 1024 l 1,11,-1
 31 1169 l 1,12,-1
 178 1169 l 1,13,-1
 178 1456 l 1,14,-1
 375 1456 l 1,15,-1
 375 1169 l 1,16,-1
 1082 1169 l 1,17,-1
 1082 1456 l 1,18,-1
 1279 1456 l 1,19,-1
 1279 1169 l 1,0,-1
375 798 m 1,20,-1
 1082 798 l 1,21,-1
 1082 1024 l 1,22,-1
 375 1024 l 1,23,-1
 375 798 l 1,20,-1
EndSplineSet
Validated: 1
EndChar

StartChar: hbar
Encoding: 295 295 233
Width: 1164
GlyphClass: 1
Flags: W
LayerCount: 2
Fore
SplineSet
613 1231 m 1,0,-1
 340 1231 l 1,1,-1
 340 937 l 1,2,3
 396 1015 396 1015 477.5 1058.5 c 128,-1,4
 559 1102 559 1102 658 1102 c 0,5,6
 831 1102 831 1102 927.5 998 c 128,-1,7
 1024 894 1024 894 1024 678 c 2,8,-1
 1024 0 l 1,9,-1
 827 0 l 1,10,-1
 827 680 l 2,11,12
 827 814 827 814 769.5 878 c 128,-1,13
 712 942 712 942 598 942 c 0,14,15
 510 942 510 942 445 907.5 c 128,-1,16
 380 873 380 873 340 811 c 1,17,-1
 340 0 l 1,18,-1
 143 0 l 1,19,-1
 143 1231 l 1,20,-1
 -28 1231 l 1,21,-1
 -28 1386 l 1,22,-1
 143 1386 l 1,23,-1
 143 1560 l 1,24,-1
 340 1560 l 1,25,-1
 340 1386 l 1,26,-1
 613 1386 l 1,27,-1
 613 1231 l 1,0,-1
EndSplineSet
Validated: 1
EndChar

StartChar: dotlessi
Encoding: 305 305 243
Width: 515
GlyphClass: 1
Flags: W
LayerCount: 2
Fore
SplineSet
350 0 m 1,0,-1
 153 0 l 1,1,-1
 153 1082 l 1,2,-1
 350 1082 l 1,3,-1
 350 0 l 1,0,-1
EndSplineSet
Validated: 1
EndChar

StartChar: kgreenlandic
Encoding: 312 312 250
Width: 1144
GlyphClass: 1
Flags: W
LayerCount: 2
Fore
SplineSet
451 459 m 1,0,-1
 350 459 l 1,1,-1
 350 0 l 1,2,-1
 153 0 l 1,3,-1
 153 1082 l 1,4,-1
 350 1082 l 1,5,-1
 350 625 l 1,6,-1
 434 625 l 1,7,-1
 822 1082 l 1,8,-1
 1053 1082 l 1,9,-1
 1055 1077 l 1,10,-1
 605 563 l 1,11,-1
 1088 5 l 1,12,-1
 1086 0 l 1,13,-1
 845 0 l 1,14,-1
 451 459 l 1,0,-1
EndSplineSet
Validated: 1
EndChar

StartChar: Lslash
Encoding: 321 321 259
Width: 1077
GlyphClass: 1
Flags: W
LayerCount: 2
Fore
SplineSet
360 843 m 1,0,-1
 629 929 l 1,1,-1
 629 763 l 1,2,-1
 360 677 l 1,3,-1
 360 154 l 1,4,-1
 1070 154 l 1,5,-1
 1070 0 l 1,6,-1
 163 0 l 1,7,-1
 163 615 l 1,8,-1
 40 576 l 1,9,-1
 40 742 l 1,10,-1
 163 781 l 1,11,-1
 163 1456 l 1,12,-1
 360 1456 l 1,13,-1
 360 843 l 1,0,-1
EndSplineSet
Validated: 1
EndChar

StartChar: lslash
Encoding: 322 322 260
Width: 558
GlyphClass: 1
Flags: W
LayerCount: 2
Fore
SplineSet
376 872 m 1,0,-1
 526 930 l 1,1,-1
 526 765 l 1,2,-1
 376 707 l 1,3,-1
 376 0 l 1,4,-1
 179 0 l 1,5,-1
 179 632 l 1,6,-1
 37 578 l 1,7,-1
 37 743 l 1,8,-1
 179 797 l 1,9,-1
 179 1560 l 1,10,-1
 376 1560 l 1,11,-1
 376 872 l 1,0,-1
EndSplineSet
Validated: 1
EndChar

StartChar: Eng
Encoding: 330 330 268
Width: 1416
GlyphClass: 1
Flags: W
LayerCount: 2
Fore
SplineSet
1262 1456 m 1,0,-1
 1262 -89 l 2,1,2
 1262 -256 1262 -256 1176 -346.5 c 128,-1,3
 1090 -437 1090 -437 936 -437 c 0,4,5
 905 -437 905 -437 879 -432.5 c 128,-1,6
 853 -428 853 -428 824 -419 c 1,7,-1
 838 -269 l 1,8,9
 851 -274 851 -274 885 -278 c 128,-1,10
 919 -282 919 -282 936 -282 c 0,11,12
 996 -282 996 -282 1030.5 -230.5 c 128,-1,13
 1065 -179 1065 -179 1065 -89 c 2,14,-1
 1065 0 l 1,15,-1
 364 1112 l 1,16,-1
 358 1110 l 1,17,-1
 358 0 l 1,18,-1
 161 0 l 1,19,-1
 161 1456 l 1,20,-1
 358 1456 l 1,21,-1
 1059 344 l 1,22,-1
 1065 346 l 1,23,-1
 1065 1456 l 1,24,-1
 1262 1456 l 1,0,-1
EndSplineSet
Validated: 1
EndChar

StartChar: eng
Encoding: 331 331 269
Width: 1164
GlyphClass: 1
Flags: W
LayerCount: 2
Fore
SplineSet
319 1082 m 1,0,-1
 332 932 l 1,1,2
 386 1013 386 1013 466 1057.5 c 128,-1,3
 546 1102 546 1102 647 1102 c 0,4,5
 821 1102 821 1102 917 999.5 c 128,-1,6
 1013 897 1013 897 1013 683 c 2,7,-1
 1013 -89 l 2,8,9
 1013 -256 1013 -256 927 -346.5 c 128,-1,10
 841 -437 841 -437 687 -437 c 0,11,12
 656 -437 656 -437 629.5 -432.5 c 128,-1,13
 603 -428 603 -428 575 -419 c 1,14,-1
 589 -259 l 1,15,16
 602 -264 602 -264 635.5 -267.5 c 128,-1,17
 669 -271 669 -271 687 -271 c 0,18,19
 748 -271 748 -271 782 -224 c 128,-1,20
 816 -177 816 -177 816 -89 c 2,21,-1
 816 679 l 2,22,23
 816 822 816 822 759 882 c 128,-1,24
 702 942 702 942 586 942 c 0,25,26
 501 942 501 942 439.5 909 c 128,-1,27
 378 876 378 876 340 817 c 1,28,-1
 340 0 l 1,29,-1
 143 0 l 1,30,-1
 143 1082 l 1,31,-1
 319 1082 l 1,0,-1
EndSplineSet
Validated: 1
EndChar

StartChar: OE
Encoding: 338 338 276
Width: 1960
GlyphClass: 1
Flags: W
LayerCount: 2
Fore
SplineSet
1802 0 m 1,0,-1
 953 0 l 1,1,2
 861 -10 861 -10 796 -15.5 c 128,-1,3
 731 -21 731 -21 664 -21 c 0,4,5
 415 -21 415 -21 259.5 145 c 128,-1,6
 104 311 104 311 104 576 c 2,7,-1
 104 880 l 2,8,9
 104 1145 104 1145 258.5 1311 c 128,-1,10
 413 1477 413 1477 662 1477 c 0,11,12
 731 1477 731 1477 802.5 1471 c 128,-1,13
 874 1465 874 1465 953 1456 c 1,14,-1
 1791 1456 l 1,15,-1
 1791 1301 l 1,16,-1
 1102 1301 l 1,17,-1
 1102 830 l 1,18,-1
 1700 830 l 1,19,-1
 1700 675 l 1,20,-1
 1102 675 l 1,21,-1
 1102 154 l 1,22,-1
 1802 154 l 1,23,-1
 1802 0 l 1,0,-1
664 134 m 0,24,25
 725 134 725 134 786 138.5 c 128,-1,26
 847 143 847 143 905 152 c 1,27,-1
 905 1303 l 1,28,29
 844 1311 844 1311 783 1316.5 c 128,-1,30
 722 1322 722 1322 662 1322 c 0,31,32
 493 1322 493 1322 397 1208.5 c 128,-1,33
 301 1095 301 1095 301 882 c 2,34,-1
 301 576 l 2,35,36
 301 362 301 362 398 248 c 128,-1,37
 495 134 495 134 664 134 c 0,24,25
EndSplineSet
Validated: 1
EndChar

StartChar: oe
Encoding: 339 339 277
Width: 1854
GlyphClass: 1
Flags: W
LayerCount: 2
Fore
SplineSet
1371 -21 m 0,0,1
 1236 -21 1236 -21 1134 30.5 c 128,-1,2
 1032 82 1032 82 969 177 c 1,3,4
 905 83 905 83 806.5 31 c 128,-1,5
 708 -21 708 -21 582 -21 c 0,6,7
 358 -21 358 -21 227.5 133.5 c 128,-1,8
 97 288 97 288 97 529 c 2,9,-1
 97 551 l 2,10,11
 97 791 97 791 227 946.5 c 128,-1,12
 357 1102 357 1102 580 1102 c 0,13,14
 708 1102 708 1102 808 1048 c 128,-1,15
 908 994 908 994 972 898 c 1,16,17
 1036 994 1036 994 1132 1048 c 128,-1,18
 1228 1102 1228 1102 1340 1102 c 0,19,20
 1557 1102 1557 1102 1665.5 967 c 128,-1,21
 1774 832 1774 832 1774 608 c 2,22,-1
 1774 504 l 1,23,-1
 1082 504 l 1,24,-1
 1079 499 l 1,25,26
 1079 336 1079 336 1151 234.5 c 128,-1,27
 1223 133 1223 133 1371 133 c 0,28,29
 1471 133 1471 133 1546.5 161.5 c 128,-1,30
 1622 190 1622 190 1676 240 c 1,31,-1
 1753 112 l 1,32,33
 1695 56 1695 56 1600 17.5 c 128,-1,34
 1505 -21 1505 -21 1371 -21 c 0,0,1
294 529 m 2,35,36
 294 357 294 357 366.5 245 c 128,-1,37
 439 133 439 133 582 133 c 0,38,39
 723 133 723 133 796 245 c 128,-1,40
 869 357 869 357 869 529 c 2,41,-1
 869 551 l 2,42,43
 869 721 869 721 795.5 834 c 128,-1,44
 722 947 722 947 580 947 c 0,45,46
 439 947 439 947 366.5 834 c 128,-1,47
 294 721 294 721 294 551 c 2,48,-1
 294 529 l 2,35,36
1340 947 m 0,49,50
 1237 947 1237 947 1169.5 867.5 c 128,-1,51
 1102 788 1102 788 1087 664 c 1,52,-1
 1089 659 l 1,53,-1
 1577 659 l 1,54,-1
 1577 675 l 2,55,56
 1577 793 1577 793 1519 870 c 128,-1,57
 1461 947 1461 947 1340 947 c 0,49,50
EndSplineSet
Validated: 1
EndChar

StartChar: Tbar
Encoding: 358 358 296
Width: 1225
GlyphClass: 1
Flags: W
LayerCount: 2
Fore
SplineSet
928 820 m 1,0,-1
 708 820 l 1,1,-1
 708 0 l 1,2,-1
 511 0 l 1,3,-1
 511 820 l 1,4,-1
 287 820 l 1,5,-1
 287 975 l 1,6,-1
 511 975 l 1,7,-1
 511 1301 l 1,8,-1
 37 1301 l 1,9,-1
 37 1456 l 1,10,-1
 1188 1456 l 1,11,-1
 1188 1301 l 1,12,-1
 708 1301 l 1,13,-1
 708 975 l 1,14,-1
 928 975 l 1,15,-1
 928 820 l 1,0,-1
EndSplineSet
Validated: 1
Substitution2: "'smcp' Lowercase to Small Capitals lookup 0 subtable" Tbar.smcp
EndChar

StartChar: tbar
Encoding: 359 359 297
Width: 690
GlyphClass: 1
Flags: W
LayerCount: 2
Fore
SplineSet
417 1343 m 1,0,-1
 417 1082 l 1,1,-1
 622 1082 l 1,2,-1
 622 936 l 1,3,-1
 417 936 l 1,4,-1
 417 755 l 1,5,-1
 647 755 l 1,6,-1
 647 600 l 1,7,-1
 417 600 l 1,8,-1
 417 279 l 2,9,10
 417 203 417 203 448.5 172 c 128,-1,11
 480 141 480 141 532 141 c 0,12,13
 549 141 549 141 570 145.5 c 128,-1,14
 591 150 591 150 605 155 c 1,15,-1
 632 20 l 1,16,17
 610 2 610 2 567 -9.5 c 128,-1,18
 524 -21 524 -21 482 -21 c 0,19,20
 362 -21 362 -21 291 51.5 c 128,-1,21
 220 124 220 124 220 279 c 2,22,-1
 220 600 l 1,23,-1
 6 600 l 1,24,-1
 6 755 l 1,25,-1
 220 755 l 1,26,-1
 220 936 l 1,27,-1
 48 936 l 1,28,-1
 48 1082 l 1,29,-1
 220 1082 l 1,30,-1
 220 1343 l 1,31,-1
 417 1343 l 1,0,-1
EndSplineSet
Validated: 1
Substitution2: "'smcp' Lowercase to Small Capitals lookup 0 subtable" Tbar.smcp
EndChar

StartChar: longs
Encoding: 383 383 321
Width: 516
GlyphClass: 1
Flags: W
LayerCount: 2
Fore
SplineSet
159 0 m 1,0,-1
 159 1219 l 2,1,2
 159 1392 159 1392 250 1486.5 c 128,-1,3
 341 1581 341 1581 503 1581 c 0,4,5
 536 1581 536 1581 570.5 1575.5 c 128,-1,6
 605 1570 605 1570 647 1560 c 1,7,-1
 623 1415 l 1,8,9
 603 1420 603 1420 581 1423 c 128,-1,10
 559 1426 559 1426 534 1426 c 0,11,12
 447 1426 447 1426 401.5 1371.5 c 128,-1,13
 356 1317 356 1317 356 1219 c 2,14,-1
 356 0 l 1,15,-1
 159 0 l 1,0,-1
EndSplineSet
Validated: 1
EndChar

StartChar: florin
Encoding: 402 402 322
Width: 702
GlyphClass: 1
Flags: W
LayerCount: 2
Fore
SplineSet
609 936 m 1,0,-1
 413 936 l 1,1,-1
 413 -89 l 2,2,3
 413 -256 413 -256 327.5 -346.5 c 128,-1,4
 242 -437 242 -437 88 -437 c 0,5,6
 56 -437 56 -437 30 -432.5 c 128,-1,7
 4 -428 4 -428 -23 -419 c 1,8,-1
 -9 -269 l 1,9,10
 3 -274 3 -274 36.5 -278 c 128,-1,11
 70 -282 70 -282 88 -282 c 0,12,13
 148 -282 148 -282 182 -230.5 c 128,-1,14
 216 -179 216 -179 216 -89 c 2,15,-1
 216 936 l 1,16,-1
 47 936 l 1,17,-1
 47 1082 l 1,18,-1
 216 1082 l 1,19,-1
 216 1219 l 2,20,21
 216 1392 216 1392 306.5 1486.5 c 128,-1,22
 397 1581 397 1581 559 1581 c 0,23,24
 593 1581 593 1581 627.5 1575.5 c 128,-1,25
 662 1570 662 1570 704 1560 c 1,26,-1
 680 1410 l 1,27,28
 662 1414 662 1414 636.5 1417 c 128,-1,29
 611 1420 611 1420 584 1420 c 0,30,31
 497 1420 497 1420 455 1368.5 c 128,-1,32
 413 1317 413 1317 413 1219 c 2,33,-1
 413 1082 l 1,34,-1
 609 1082 l 1,35,-1
 609 936 l 1,0,-1
EndSplineSet
Validated: 1
EndChar

StartChar: Ohorn
Encoding: 416 416 323
Width: 1403
GlyphClass: 1
Flags: W
LayerCount: 2
Fore
SplineSet
1277 598 m 2,0,1
 1277 331 1277 331 1111.5 155 c 128,-1,2
 946 -21 946 -21 682 -21 c 0,3,4
 427 -21 427 -21 267.5 155 c 128,-1,5
 108 331 108 331 108 598 c 2,6,-1
 108 857 l 2,7,8
 108 1123 108 1123 267.5 1300 c 128,-1,9
 427 1477 427 1477 682 1477 c 0,10,11
 802 1477 802 1477 905 1437 c 128,-1,12
 1008 1397 1008 1397 1087 1324 c 1,13,14
 1210 1335 1210 1335 1274 1420.5 c 128,-1,15
 1338 1506 1338 1506 1338 1653 c 1,16,-1
 1535 1653 l 1,17,18
 1535 1461 1535 1461 1447 1339.5 c 128,-1,19
 1359 1218 1359 1218 1197 1182 c 1,20,21
 1235 1111 1235 1111 1256 1028 c 128,-1,22
 1277 945 1277 945 1277 857 c 2,23,-1
 1277 598 l 2,0,1
1080 859 m 2,24,25
 1080 1059 1080 1059 972 1187 c 128,-1,26
 864 1315 864 1315 682 1315 c 0,27,28
 510 1315 510 1315 407.5 1187 c 128,-1,29
 305 1059 305 1059 305 859 c 2,30,-1
 305 598 l 2,31,32
 305 396 305 396 407.5 268 c 128,-1,33
 510 140 510 140 682 140 c 0,34,35
 865 140 865 140 972.5 267.5 c 128,-1,36
 1080 395 1080 395 1080 598 c 2,37,-1
 1080 859 l 2,24,25
EndSplineSet
Validated: 1
EndChar

StartChar: ohorn
Encoding: 417 417 324
Width: 1175
GlyphClass: 1
Flags: W
LayerCount: 2
Fore
SplineSet
97 551 m 2,0,1
 97 791 97 791 227 946.5 c 128,-1,2
 357 1102 357 1102 580 1102 c 0,3,4
 682 1102 682 1102 767 1067 c 128,-1,5
 852 1032 852 1032 916 969 c 1,6,7
 998 987 998 987 1038 1053 c 128,-1,8
 1078 1119 1078 1119 1078 1223 c 1,9,-1
 1256 1223 l 1,10,11
 1256 1080 1256 1080 1189.5 986 c 128,-1,12
 1123 892 1123 892 994 860 c 1,13,14
 1029 794 1029 794 1047.5 715.5 c 128,-1,15
 1066 637 1066 637 1066 551 c 2,16,-1
 1066 529 l 2,17,18
 1066 287 1066 287 936 133 c 128,-1,19
 806 -21 806 -21 582 -21 c 256,20,21
 358 -21 358 -21 227.5 133.5 c 128,-1,22
 97 288 97 288 97 529 c 2,23,-1
 97 551 l 2,0,1
294 529 m 2,24,25
 294 357 294 357 366.5 245 c 128,-1,26
 439 133 439 133 582 133 c 0,27,28
 723 133 723 133 796 245 c 128,-1,29
 869 357 869 357 869 529 c 2,30,-1
 869 551 l 2,31,32
 869 721 869 721 795.5 834 c 128,-1,33
 722 947 722 947 580 947 c 0,34,35
 439 947 439 947 366.5 834 c 128,-1,36
 294 721 294 721 294 551 c 2,37,-1
 294 529 l 2,24,25
EndSplineSet
Validated: 1
EndChar

StartChar: Uhorn
Encoding: 431 431 325
Width: 1430
GlyphClass: 1
Flags: W
LayerCount: 2
Fore
SplineSet
1244 1456 m 1,0,-1
 1244 1278 l 1,1,-1
 1250 1276 l 1,2,3
 1336 1303 1336 1303 1382 1384.5 c 128,-1,4
 1428 1466 1428 1466 1428 1591 c 1,5,-1
 1618 1591 l 1,6,-1
 1621 1586 l 1,7,8
 1623 1393 1623 1393 1525 1271.5 c 128,-1,9
 1427 1150 1427 1150 1244 1116 c 1,10,-1
 1244 489 l 2,11,12
 1244 249 1244 249 1088 114 c 128,-1,13
 932 -21 932 -21 686 -21 c 0,14,15
 449 -21 449 -21 298 114.5 c 128,-1,16
 147 250 147 250 147 489 c 2,17,-1
 147 1456 l 1,18,-1
 344 1456 l 1,19,-1
 344 489 l 2,20,21
 344 322 344 322 439.5 227.5 c 128,-1,22
 535 133 535 133 686 133 c 0,23,24
 846 133 846 133 946.5 227.5 c 128,-1,25
 1047 322 1047 322 1047 489 c 2,26,-1
 1047 1456 l 1,27,-1
 1244 1456 l 1,0,-1
EndSplineSet
Validated: 33
EndChar

StartChar: uhorn
Encoding: 432 432 326
Width: 1204
GlyphClass: 1
Flags: W
LayerCount: 2
Fore
SplineSet
1380 1227 m 1,0,-1
 1383 1221 l 1,1,2
 1386 1044 1386 1044 1297.5 948 c 128,-1,3
 1209 852 1209 852 1020 838 c 1,4,-1
 1020 0 l 1,5,-1
 843 0 l 1,6,-1
 830 160 l 1,7,8
 779 73 779 73 699 26 c 128,-1,9
 619 -21 619 -21 514 -21 c 0,10,11
 337 -21 337 -21 238 92 c 128,-1,12
 139 205 139 205 139 444 c 2,13,-1
 139 1082 l 1,14,-1
 336 1082 l 1,15,-1
 336 442 l 2,16,17
 336 269 336 269 387 204 c 128,-1,18
 438 139 438 139 546 139 c 0,19,20
 651 139 651 139 719.5 181.5 c 128,-1,21
 788 224 788 224 823 302 c 1,22,-1
 823 1082 l 1,23,-1
 1020 1082 l 1,24,-1
 1020 968 l 1,25,-1
 1026 966 l 1,26,27
 1126 973 1126 973 1168.5 1037 c 128,-1,28
 1211 1101 1211 1101 1211 1227 c 1,29,-1
 1380 1227 l 1,0,-1
EndSplineSet
Validated: 33
EndChar

StartChar: uni0237
Encoding: 567 567 336
Width: 523
GlyphClass: 1
Flags: W
LayerCount: 2
Fore
SplineSet
368 1082 m 1,0,-1
 368 -89 l 2,1,2
 368 -256 368 -256 282 -346.5 c 128,-1,3
 196 -437 196 -437 43 -437 c 0,4,5
 12 -437 12 -437 -13.5 -432.5 c 128,-1,6
 -39 -428 -39 -428 -68 -419 c 1,7,-1
 -54 -269 l 1,8,9
 -40 -274 -40 -274 -7.5 -278 c 128,-1,10
 25 -282 25 -282 43 -282 c 0,11,12
 102 -282 102 -282 136.5 -230.5 c 128,-1,13
 171 -179 171 -179 171 -89 c 2,14,-1
 171 1082 l 1,15,-1
 368 1082 l 1,0,-1
EndSplineSet
Validated: 1
EndChar

StartChar: circumflex
Encoding: 710 710 338
Width: 979
GlyphClass: 1
Flags: W
LayerCount: 2
Fore
SplineSet
785 1277 m 1,0,-1
 785 1252 l 1,1,-1
 624 1252 l 1,2,-1
 477 1400 l 1,3,-1
 331 1252 l 1,4,-1
 171 1252 l 1,5,-1
 171 1278 l 1,6,-1
 417 1515 l 1,7,-1
 537 1515 l 1,8,-1
 785 1277 l 1,0,-1
EndSplineSet
Validated: 1
EndChar

StartChar: caron
Encoding: 711 711 339
Width: 922
GlyphClass: 1
Flags: W
LayerCount: 2
Fore
SplineSet
453 1367 m 1,0,-1
 600 1515 l 1,1,-1
 770 1515 l 1,2,-1
 770 1497 l 1,3,-1
 513 1252 l 1,4,-1
 394 1252 l 1,5,-1
 140 1495 l 1,6,-1
 140 1515 l 1,7,-1
 306 1515 l 1,8,-1
 453 1367 l 1,0,-1
EndSplineSet
Validated: 1
EndChar

StartChar: breve
Encoding: 728 728 340
Width: 876
GlyphClass: 1
Flags: W
LayerCount: 2
Fore
SplineSet
722 1456 m 1,0,-1
 724 1450 l 1,1,2
 728 1334 728 1334 647 1261 c 128,-1,3
 566 1188 566 1188 429 1188 c 0,4,5
 291 1188 291 1188 210 1261 c 128,-1,6
 129 1334 129 1334 134 1450 c 1,7,-1
 136 1456 l 1,8,-1
 287 1456 l 1,9,10
 287 1390 287 1390 321 1349 c 128,-1,11
 355 1308 355 1308 429 1308 c 0,12,13
 501 1308 501 1308 536 1349.5 c 128,-1,14
 571 1391 571 1391 571 1456 c 1,15,-1
 722 1456 l 1,0,-1
EndSplineSet
Validated: 33
EndChar

StartChar: dotaccent
Encoding: 729 729 341
Width: 556
GlyphClass: 1
Flags: W
LayerCount: 2
Fore
SplineSet
378 1255 m 1,0,-1
 160 1255 l 1,1,-1
 160 1456 l 1,2,-1
 378 1456 l 1,3,-1
 378 1255 l 1,0,-1
EndSplineSet
Validated: 1
EndChar

StartChar: ring
Encoding: 730 730 342
Width: 696
GlyphClass: 1
Flags: W
LayerCount: 2
Fore
SplineSet
165 1308 m 256,0,1
 165 1380 165 1380 216.5 1428.5 c 128,-1,2
 268 1477 268 1477 341 1477 c 0,3,4
 413 1477 413 1477 463.5 1428.5 c 128,-1,5
 514 1380 514 1380 514 1308 c 0,6,7
 514 1235 514 1235 463.5 1189.5 c 128,-1,8
 413 1144 413 1144 341 1144 c 0,9,10
 267 1144 267 1144 216 1190 c 128,-1,11
 165 1236 165 1236 165 1308 c 256,0,1
265 1308 m 0,12,13
 265 1277 265 1277 287.5 1255.5 c 128,-1,14
 310 1234 310 1234 341 1234 c 0,15,16
 371 1234 371 1234 392.5 1255 c 128,-1,17
 414 1276 414 1276 414 1308 c 256,18,19
 414 1340 414 1340 392.5 1362.5 c 128,-1,20
 371 1385 371 1385 341 1385 c 0,21,22
 309 1385 309 1385 287 1362.5 c 128,-1,23
 265 1340 265 1340 265 1308 c 0,12,13
EndSplineSet
Validated: 1
EndChar

StartChar: ogonek
Encoding: 731 731 343
Width: 562
GlyphClass: 1
Flags: W
LayerCount: 2
Fore
SplineSet
388 0 m 1,0,1
 318 -52 318 -52 278.5 -99.5 c 128,-1,2
 239 -147 239 -147 239 -201 c 0,3,4
 239 -243 239 -243 261.5 -267 c 128,-1,5
 284 -291 284 -291 335 -291 c 0,6,7
 362 -291 362 -291 385 -283.5 c 128,-1,8
 408 -276 408 -276 434 -265 c 1,9,-1
 467 -388 l 1,10,11
 431 -407 431 -407 387.5 -419.5 c 128,-1,12
 344 -432 344 -432 284 -432 c 0,13,14
 189 -432 189 -432 128.5 -377 c 128,-1,15
 68 -322 68 -322 68 -223 c 0,16,17
 68 -143 68 -143 128.5 -71 c 128,-1,18
 189 1 189 1 316 57 c 1,19,-1
 388 0 l 1,0,1
EndSplineSet
Validated: 1
EndChar

StartChar: tilde
Encoding: 732 732 344
Width: 979
GlyphClass: 1
Flags: W
LayerCount: 2
Fore
SplineSet
829 1491 m 1,0,1
 829 1397 829 1397 769.5 1332 c 128,-1,2
 710 1267 710 1267 620 1267 c 0,3,4
 549 1267 549 1267 472 1313.5 c 128,-1,5
 395 1360 395 1360 344 1360 c 0,6,7
 301 1360 301 1360 272 1327.5 c 128,-1,8
 243 1295 243 1295 243 1249 c 1,9,-1
 135 1275 l 1,10,11
 135 1368 135 1368 194 1436.5 c 128,-1,12
 253 1505 253 1505 344 1505 c 0,13,14
 400 1505 400 1505 484 1458 c 128,-1,15
 568 1411 568 1411 620 1411 c 0,16,17
 661 1411 661 1411 691 1443.5 c 128,-1,18
 721 1476 721 1476 721 1523 c 1,19,-1
 829 1491 l 1,0,1
EndSplineSet
Validated: 1
EndChar

StartChar: hungarumlaut
Encoding: 733 733 345
Width: 762
GlyphClass: 1
Flags: W
LayerCount: 2
Fore
SplineSet
610 1518 m 1,0,-1
 839 1518 l 1,1,-1
 842 1512 l 1,2,-1
 542 1252 l 1,3,-1
 371 1252 l 1,4,-1
 369 1257 l 1,5,-1
 610 1518 l 1,0,-1
284 1518 m 1,6,-1
 495 1518 l 1,7,-1
 497 1513 l 1,8,-1
 257 1252 l 1,9,-1
 100 1252 l 1,10,-1
 284 1518 l 1,6,-1
EndSplineSet
Validated: 1
EndChar

StartChar: uni02F3
Encoding: 755 755 346
Width: 672
GlyphClass: 1
Flags: W
LayerCount: 2
Fore
SplineSet
182 -234 m 0,0,1
 182 -169 182 -169 227.5 -126.5 c 128,-1,2
 273 -84 273 -84 339 -84 c 0,3,4
 402 -84 402 -84 447 -126.5 c 128,-1,5
 492 -169 492 -169 492 -234 c 0,6,7
 492 -297 492 -297 447.5 -338 c 128,-1,8
 403 -379 403 -379 339 -379 c 0,9,10
 273 -379 273 -379 227.5 -338 c 128,-1,11
 182 -297 182 -297 182 -234 c 0,0,1
271 -234 m 0,12,13
 271 -260 271 -260 291 -279 c 128,-1,14
 311 -298 311 -298 339 -298 c 0,15,16
 365 -298 365 -298 384 -279.5 c 128,-1,17
 403 -261 403 -261 403 -234 c 0,18,19
 403 -204 403 -204 384 -184.5 c 128,-1,20
 365 -165 365 -165 339 -165 c 0,21,22
 311 -165 311 -165 291 -185 c 128,-1,23
 271 -205 271 -205 271 -234 c 0,12,13
EndSplineSet
Validated: 1
EndChar

StartChar: hook
Encoding: 777 777 350
Width: 0
GlyphClass: 1
Flags: W
LayerCount: 2
Fore
SplineSet
-657 1242 m 1,0,-1
 -658 1396 l 1,1,2
 -582 1400 -582 1400 -549.5 1416 c 128,-1,3
 -517 1432 -517 1432 -517 1469 c 0,4,5
 -517 1508 -517 1508 -560.5 1527 c 128,-1,6
 -604 1546 -604 1546 -677 1546 c 1,7,-1
 -670 1654 l 1,8,9
 -523 1654 -523 1654 -444 1602.5 c 128,-1,10
 -365 1551 -365 1551 -365 1465 c 0,11,12
 -365 1395 -365 1395 -408 1358.5 c 128,-1,13
 -451 1322 -451 1322 -516 1313 c 1,14,-1
 -517 1242 l 1,15,-1
 -657 1242 l 1,0,-1
EndSplineSet
Validated: 1
EndChar

StartChar: uni030F
Encoding: 783 783 351
Width: 0
GlyphClass: 1
Flags: W
LayerCount: 2
Fore
SplineSet
-507 1257 m 1,0,-1
 -509 1252 l 1,1,-1
 -680 1252 l 1,2,-1
 -980 1512 l 1,3,-1
 -977 1518 l 1,4,-1
 -748 1518 l 1,5,-1
 -507 1257 l 1,0,-1
-238 1252 m 1,6,-1
 -395 1252 l 1,7,-1
 -636 1513 l 1,8,-1
 -634 1518 l 1,9,-1
 -422 1518 l 1,10,-1
 -238 1252 l 1,6,-1
EndSplineSet
Validated: 1
EndChar

StartChar: dotbelow
Encoding: 803 803 352
Width: 0
GlyphClass: 1
Flags: W
LayerCount: 2
Fore
SplineSet
-490 -337 m 1,0,-1
 -708 -337 l 1,1,-1
 -708 -137 l 1,2,-1
 -490 -137 l 1,3,-1
 -490 -337 l 1,0,-1
EndSplineSet
Validated: 1
EndChar

StartChar: tonos
Encoding: 900 900 353
Width: 526
GlyphClass: 1
Flags: W
LayerCount: 2
Fore
SplineSet
236 1543 m 1,0,-1
 444 1543 l 1,1,-1
 289 1272 l 1,2,-1
 206 1272 l 1,3,-1
 236 1543 l 1,0,-1
EndSplineSet
Validated: 1
EndChar

StartChar: dieresistonos
Encoding: 901 901 354
Width: 1045
GlyphClass: 1
Flags: W
LayerCount: 2
Fore
SplineSet
869 1256 m 1,0,-1
 670 1256 l 1,1,-1
 670 1456 l 1,2,-1
 869 1456 l 1,3,-1
 869 1256 l 1,0,-1
359 1256 m 1,4,-1
 161 1256 l 1,5,-1
 161 1456 l 1,6,-1
 359 1456 l 1,7,-1
 359 1256 l 1,4,-1
497 1730 m 1,8,-1
 715 1730 l 1,9,-1
 588 1468 l 1,10,-1
 446 1468 l 1,11,-1
 497 1730 l 1,8,-1
EndSplineSet
Validated: 1
EndChar

StartChar: Gamma
Encoding: 915 915 366
Width: 1123
GlyphClass: 1
Flags: W
LayerCount: 2
Fore
SplineSet
1056 1301 m 1,0,-1
 360 1301 l 1,1,-1
 360 0 l 1,2,-1
 163 0 l 1,3,-1
 163 1456 l 1,4,-1
 1056 1456 l 1,5,-1
 1056 1301 l 1,0,-1
EndSplineSet
Validated: 1
EndChar

StartChar: Delta
Encoding: 916 916 367
AltUni2: 002206.ffffffff.0 002206.ffffffff.0
Width: 1447
GlyphClass: 1
Flags: W
LayerCount: 2
Fore
SplineSet
647 1456 m 1,0,-1
 816 1456 l 1,1,-1
 1392 0 l 1,2,-1
 30 0 l 1,3,-1
 647 1456 l 1,0,-1
294 154 m 1,4,-1
 1132 154 l 1,5,-1
 732 1204 l 1,6,-1
 726 1204 l 1,7,-1
 294 154 l 1,4,-1
EndSplineSet
Validated: 1
EndChar

StartChar: Theta
Encoding: 920 920 371
Width: 1396
GlyphClass: 1
Flags: W
LayerCount: 2
Fore
SplineSet
959 659 m 1,0,-1
 450 659 l 1,1,-1
 450 813 l 1,2,-1
 959 813 l 1,3,-1
 959 659 l 1,0,-1
1282 598 m 2,4,5
 1282 331 1282 331 1116.5 155 c 128,-1,6
 951 -21 951 -21 687 -21 c 0,7,8
 432 -21 432 -21 272.5 155 c 128,-1,9
 113 331 113 331 113 598 c 2,10,-1
 113 857 l 2,11,12
 113 1123 113 1123 272.5 1300 c 128,-1,13
 432 1477 432 1477 687 1477 c 0,14,15
 951 1477 951 1477 1116.5 1300.5 c 128,-1,16
 1282 1124 1282 1124 1282 857 c 2,17,-1
 1282 598 l 2,4,5
1085 859 m 2,18,19
 1085 1059 1085 1059 977 1187 c 128,-1,20
 869 1315 869 1315 687 1315 c 0,21,22
 515 1315 515 1315 412.5 1187 c 128,-1,23
 310 1059 310 1059 310 859 c 2,24,-1
 310 598 l 2,25,26
 310 396 310 396 412.5 268 c 128,-1,27
 515 140 515 140 687 140 c 0,28,29
 870 140 870 140 977.5 267.5 c 128,-1,30
 1085 395 1085 395 1085 598 c 2,31,-1
 1085 859 l 2,18,19
EndSplineSet
Validated: 1
EndChar

StartChar: Lambda
Encoding: 923 923 374
Width: 1345
GlyphClass: 1
Flags: W
LayerCount: 2
Fore
SplineSet
671 1171 m 1,0,-1
 665 1171 l 1,1,-1
 250 0 l 1,2,-1
 49 0 l 1,3,-1
 583 1456 l 1,4,-1
 753 1456 l 1,5,-1
 1287 0 l 1,6,-1
 1086 0 l 1,7,-1
 671 1171 l 1,0,-1
EndSplineSet
Validated: 1
EndChar

StartChar: Xi
Encoding: 926 926 377
Width: 1173
GlyphClass: 1
Flags: W
LayerCount: 2
Fore
SplineSet
123 154 m 1,0,-1
 1060 154 l 1,1,-1
 1060 0 l 1,2,-1
 123 0 l 1,3,-1
 123 154 l 1,0,-1
206 833 m 1,4,-1
 967 833 l 1,5,-1
 967 678 l 1,6,-1
 206 678 l 1,7,-1
 206 833 l 1,4,-1
124 1456 m 1,8,-1
 1048 1456 l 1,9,-1
 1048 1301 l 1,10,-1
 124 1301 l 1,11,-1
 124 1456 l 1,8,-1
EndSplineSet
Validated: 1
EndChar

StartChar: Pi
Encoding: 928 928 379
Width: 1439
GlyphClass: 1
Flags: W
LayerCount: 2
Fore
SplineSet
1271 0 m 1,0,-1
 1074 0 l 1,1,-1
 1074 1301 l 1,2,-1
 365 1301 l 1,3,-1
 365 0 l 1,4,-1
 168 0 l 1,5,-1
 168 1456 l 1,6,-1
 1271 1456 l 1,7,-1
 1271 0 l 1,0,-1
EndSplineSet
Validated: 1
EndChar

StartChar: Sigma
Encoding: 931 931 381
Width: 1173
GlyphClass: 1
Flags: W
LayerCount: 2
Fore
SplineSet
758 715 m 1,0,-1
 313 160 l 1,1,-1
 316 155 l 1,2,-1
 1096 155 l 1,3,-1
 1096 0 l 1,4,-1
 70 0 l 1,5,-1
 70 147 l 1,6,-1
 550 728 l 1,7,-1
 70 1309 l 1,8,-1
 70 1456 l 1,9,-1
 1046 1456 l 1,10,-1
 1046 1301 l 1,11,-1
 316 1301 l 1,12,-1
 313 1296 l 1,13,-1
 758 739 l 1,14,-1
 758 715 l 1,0,-1
EndSplineSet
Validated: 1
EndChar

StartChar: Phi
Encoding: 934 934 384
Width: 1439
GlyphClass: 1
Flags: W
LayerCount: 2
Fore
SplineSet
820 1229 m 1,0,1
 1050 1224 1050 1224 1203.5 1082.5 c 128,-1,2
 1357 941 1357 941 1357 723 c 0,3,4
 1357 502 1357 502 1203.5 359.5 c 128,-1,5
 1050 217 1050 217 820 213 c 1,6,-1
 820 0 l 1,7,-1
 623 0 l 1,8,-1
 623 213 l 1,9,10
 391 216 391 216 237.5 358 c 128,-1,11
 84 500 84 500 84 721 c 0,12,13
 84 940 84 940 237.5 1083 c 128,-1,14
 391 1226 391 1226 623 1230 c 1,15,-1
 623 1456 l 1,16,-1
 820 1456 l 1,17,-1
 820 1229 l 1,0,1
279 721 m 0,18,19
 279 560 279 560 367.5 466.5 c 128,-1,20
 456 373 456 373 617 374 c 1,21,-1
 623 376 l 1,22,-1
 623 1067 l 1,23,-1
 617 1069 l 1,24,25
 457 1070 457 1070 368 975.5 c 128,-1,26
 279 881 279 881 279 721 c 0,18,19
1161 723 m 0,27,28
 1161 882 1161 882 1072 975.5 c 128,-1,29
 983 1069 983 1069 826 1069 c 1,30,-1
 820 1067 l 1,31,-1
 820 376 l 1,32,-1
 826 374 l 1,33,34
 983 373 983 373 1072 467.5 c 128,-1,35
 1161 562 1161 562 1161 723 c 0,27,28
EndSplineSet
Validated: 33
EndChar

StartChar: Psi
Encoding: 936 936 386
Width: 1416
GlyphClass: 1
Flags: W
LayerCount: 2
Fore
SplineSet
787 485 m 1,0,-1
 793 483 l 1,1,2
 937 502 937 502 1023.5 607.5 c 128,-1,3
 1110 713 1110 713 1110 885 c 2,4,-1
 1110 1456 l 1,5,-1
 1307 1456 l 1,6,-1
 1307 885 l 2,7,8
 1307 640 1307 640 1164 491.5 c 128,-1,9
 1021 343 1021 343 787 319 c 1,10,-1
 787 0 l 1,11,-1
 589 0 l 1,12,-1
 589 320 l 1,13,14
 362 344 362 344 224.5 492 c 128,-1,15
 87 640 87 640 87 885 c 2,16,-1
 87 1456 l 1,17,-1
 283 1456 l 1,18,-1
 283 885 l 2,19,20
 283 715 283 715 365 610 c 128,-1,21
 447 505 447 505 583 485 c 1,22,-1
 589 486 l 1,23,-1
 589 1456 l 1,24,-1
 787 1456 l 1,25,-1
 787 485 l 1,0,-1
EndSplineSet
Validated: 1
EndChar

StartChar: Omega
Encoding: 937 937 387
AltUni2: 002126.ffffffff.0 002126.ffffffff.0
Width: 1366
GlyphClass: 1
Flags: W
LayerCount: 2
Fore
SplineSet
735 159 m 1,0,1
 876 184 876 184 954.5 327.5 c 128,-1,2
 1033 471 1033 471 1033 722 c 2,3,-1
 1033 840 l 2,4,5
 1033 1073 1033 1073 936.5 1197.5 c 128,-1,6
 840 1322 840 1322 670 1322 c 0,7,8
 501 1322 501 1322 405 1197.5 c 128,-1,9
 309 1073 309 1073 309 840 c 2,10,-1
 309 722 l 2,11,12
 309 471 309 471 389.5 327 c 128,-1,13
 470 183 470 183 613 159 c 1,14,-1
 613 0 l 1,15,-1
 118 0 l 1,16,-1
 118 154 l 1,17,-1
 371 154 l 1,18,19
 251 246 251 246 181.5 400.5 c 128,-1,20
 112 555 112 555 112 722 c 2,21,-1
 112 838 l 2,22,23
 112 1122 112 1122 266.5 1299.5 c 128,-1,24
 421 1477 421 1477 670 1477 c 256,25,26
 919 1477 919 1477 1074.5 1299.5 c 128,-1,27
 1230 1122 1230 1122 1230 838 c 2,28,-1
 1230 722 l 2,29,30
 1230 555 1230 555 1160.5 401 c 128,-1,31
 1091 247 1091 247 973 154 c 1,32,-1
 1232 154 l 1,33,-1
 1232 0 l 1,34,-1
 735 0 l 1,35,-1
 735 159 l 1,0,1
EndSplineSet
Validated: 1
EndChar

StartChar: alpha
Encoding: 945 945 395
Width: 1158
GlyphClass: 1
Flags: W
LayerCount: 2
Fore
SplineSet
1001 1081 m 1,0,-1
 1001 276 l 2,1,2
 1001 204 1001 204 1021.5 176 c 128,-1,3
 1042 148 1042 148 1077 148 c 0,4,5
 1092 148 1092 148 1105 149.5 c 128,-1,6
 1118 151 1118 151 1129 155 c 1,7,-1
 1152 13 l 1,8,9
 1123 -7 1123 -7 1093 -14 c 128,-1,10
 1063 -21 1063 -21 1026 -21 c 0,11,12
 951 -21 951 -21 901 11 c 128,-1,13
 851 43 851 43 827 112 c 1,14,15
 772 46 772 46 695.5 12.5 c 128,-1,16
 619 -21 619 -21 520 -21 c 0,17,18
 322 -21 322 -21 210 122.5 c 128,-1,19
 98 266 98 266 98 500 c 2,20,-1
 98 521 l 2,21,22
 98 782 98 782 209.5 942 c 128,-1,23
 321 1102 321 1102 522 1102 c 0,24,25
 623 1102 623 1102 700.5 1066 c 128,-1,26
 778 1030 778 1030 833 962 c 1,27,-1
 884 1081 l 1,28,-1
 1001 1081 l 1,0,-1
295 500 m 2,29,30
 295 336 295 336 362.5 234.5 c 128,-1,31
 430 133 430 133 570 133 c 0,32,33
 651 133 651 133 708 168.5 c 128,-1,34
 765 204 765 204 804 268 c 1,35,-1
 804 276 l 1,36,-1
 804 817 l 1,37,38
 765 877 765 877 707.5 912 c 128,-1,39
 650 947 650 947 572 947 c 0,40,41
 431 947 431 947 363 827.5 c 128,-1,42
 295 708 295 708 295 521 c 2,43,-1
 295 500 l 2,29,30
EndSplineSet
Validated: 1
EndChar

StartChar: beta
Encoding: 946 946 396
Width: 1213
GlyphClass: 1
Flags: W
LayerCount: 2
Fore
SplineSet
607 1477 m 0,0,1
 802 1477 802 1477 920 1367 c 128,-1,2
 1038 1257 1038 1257 1038 1083 c 0,3,4
 1038 992 1038 992 988 915.5 c 128,-1,5
 938 839 938 839 851 794 c 1,6,7
 970 750 970 750 1036.5 652 c 128,-1,8
 1103 554 1103 554 1103 425 c 0,9,10
 1103 216 1103 216 976.5 97.5 c 128,-1,11
 850 -21 850 -21 648 -21 c 0,12,13
 566 -21 566 -21 489.5 1.5 c 128,-1,14
 413 24 413 24 354 70 c 1,15,-1
 354 -383 l 1,16,-1
 157 -383 l 1,17,-1
 157 1073 l 2,18,19
 157 1238 157 1238 290 1357.5 c 128,-1,20
 423 1477 423 1477 607 1477 c 0,0,1
603 860 m 2,21,22
 725 860 725 860 783 920.5 c 128,-1,23
 841 981 841 981 841 1087 c 0,24,25
 841 1182 841 1182 778.5 1252 c 128,-1,26
 716 1322 716 1322 607 1322 c 0,27,28
 500 1322 500 1322 427 1250.5 c 128,-1,29
 354 1179 354 1179 354 1073 c 2,30,-1
 354 243 l 1,31,32
 398 191 398 191 468.5 162 c 128,-1,33
 539 133 539 133 628 133 c 0,34,35
 757 133 757 133 831.5 213 c 128,-1,36
 906 293 906 293 906 421 c 0,37,38
 906 533 906 533 840.5 619 c 128,-1,39
 775 705 775 705 664 705 c 2,40,-1
 521 705 l 1,41,-1
 521 860 l 1,42,-1
 603 860 l 2,21,22
EndSplineSet
Validated: 1
EndChar

StartChar: gamma
Encoding: 947 947 397
Width: 1031
GlyphClass: 1
Flags: W
LayerCount: 2
Fore
SplineSet
795 1082 m 1,0,-1
 996 1082 l 1,1,-1
 621 62 l 1,2,-1
 621 -417 l 1,3,-1
 424 -417 l 1,4,-1
 424 67 l 1,5,-1
 46 1082 l 1,6,-1
 248 1082 l 1,7,-1
 504 319 l 1,8,-1
 521 243 l 1,9,-1
 527 243 l 1,10,-1
 546 319 l 1,11,-1
 795 1082 l 1,0,-1
EndSplineSet
Validated: 1
EndChar

StartChar: delta
Encoding: 948 948 398
Width: 1164
GlyphClass: 1
Flags: W
LayerCount: 2
Fore
SplineSet
938 1456 m 1,0,-1
 938 1305 l 1,1,-1
 484 1305 l 1,2,-1
 482 1299 l 1,3,-1
 853 1022 l 2,4,5
 954 947 954 947 1010 824 c 128,-1,6
 1066 701 1066 701 1066 551 c 2,7,-1
 1066 529 l 2,8,9
 1066 287 1066 287 936 133 c 128,-1,10
 806 -21 806 -21 582 -21 c 256,11,12
 358 -21 358 -21 227.5 133.5 c 128,-1,13
 97 288 97 288 97 529 c 2,14,-1
 97 551 l 2,15,16
 97 766 97 766 202.5 915.5 c 128,-1,17
 308 1065 308 1065 493 1095 c 2,18,-1
 500 1096 l 1,19,-1
 502 1102 l 1,20,-1
 205 1338 l 1,21,-1
 205 1456 l 1,22,-1
 938 1456 l 1,0,-1
580 947 m 0,23,24
 439 947 439 947 366.5 834 c 128,-1,25
 294 721 294 721 294 551 c 2,26,-1
 294 529 l 2,27,28
 294 357 294 357 366.5 245 c 128,-1,29
 439 133 439 133 582 133 c 0,30,31
 723 133 723 133 796 245 c 128,-1,32
 869 357 869 357 869 529 c 2,33,-1
 869 551 l 2,34,35
 869 721 869 721 795.5 834 c 128,-1,36
 722 947 722 947 580 947 c 0,23,24
EndSplineSet
Validated: 1
EndChar

StartChar: epsilon
Encoding: 949 949 399
Width: 1103
GlyphClass: 1
Flags: W
LayerCount: 2
Fore
SplineSet
538 477 m 2,0,1
 417 477 417 477 356.5 434.5 c 128,-1,2
 296 392 296 392 296 305 c 0,3,4
 296 232 296 232 364.5 182 c 128,-1,5
 433 132 433 132 551 132 c 0,6,7
 663 132 663 132 735.5 188 c 128,-1,8
 808 244 808 244 808 320 c 1,9,-1
 994 320 l 1,10,-1
 996 314 l 1,11,12
 1001 152 1001 152 868 66.5 c 128,-1,13
 735 -19 735 -19 551 -19 c 0,14,15
 349 -19 349 -19 223.5 67.5 c 128,-1,16
 98 154 98 154 98 305 c 0,17,18
 98 396 98 396 149.5 460 c 128,-1,19
 201 524 201 524 300 556 c 1,20,21
 213 591 213 591 165 652 c 128,-1,22
 117 713 117 713 117 786 c 0,23,24
 117 936 117 936 233.5 1018 c 128,-1,25
 350 1100 350 1100 551 1100 c 0,26,27
 734 1100 734 1100 858.5 1012.5 c 128,-1,28
 983 925 983 925 978 786 c 1,29,-1
 976 780 l 1,30,-1
 790 780 l 1,31,32
 790 850 790 850 720.5 899 c 128,-1,33
 651 948 651 948 551 948 c 0,34,35
 435 948 435 948 374.5 900.5 c 128,-1,36
 314 853 314 853 314 786 c 0,37,38
 314 712 314 712 368.5 669.5 c 128,-1,39
 423 627 423 627 538 627 c 2,40,-1
 747 627 l 1,41,-1
 747 477 l 1,42,-1
 538 477 l 2,0,1
EndSplineSet
Validated: 33
EndChar

StartChar: zeta
Encoding: 950 950 400
Width: 1071
GlyphClass: 1
Flags: W
LayerCount: 2
Fore
SplineSet
970 1456 m 1,0,-1
 970 1344 l 1,1,-1
 628 912 l 1,2,3
 499 759 499 759 442.5 645.5 c 128,-1,4
 386 532 386 532 386 387 c 0,5,6
 386 271 386 271 438.5 212.5 c 128,-1,7
 491 154 491 154 593 154 c 2,8,-1
 625 154 l 2,9,10
 784 154 784 154 874 90.5 c 128,-1,11
 964 27 964 27 964 -101 c 0,12,13
 962 -212 962 -212 884.5 -294.5 c 128,-1,14
 807 -377 807 -377 698 -424 c 1,15,-1
 617 -297 l 1,16,17
 683 -266 683 -266 730 -223 c 128,-1,18
 777 -180 777 -180 777 -110 c 0,19,20
 777 -58 777 -58 736 -29 c 128,-1,21
 695 0 695 0 605 0 c 2,22,-1
 553 0 l 2,23,24
 374 0 374 0 281.5 107 c 128,-1,25
 189 214 189 214 189 382 c 0,26,27
 189 502 189 502 258.5 662.5 c 128,-1,28
 328 823 328 823 472 992 c 2,29,-1
 740 1296 l 1,30,-1
 738 1301 l 1,31,-1
 115 1301 l 1,32,-1
 115 1456 l 1,33,-1
 970 1456 l 1,0,-1
EndSplineSet
Validated: 1
EndChar

StartChar: eta
Encoding: 951 951 401
Width: 1164
GlyphClass: 1
Flags: W
LayerCount: 2
Fore
SplineSet
319 1082 m 1,0,-1
 332 932 l 1,1,2
 386 1013 386 1013 466 1057.5 c 128,-1,3
 546 1102 546 1102 647 1102 c 0,4,5
 824 1102 824 1102 918.5 1004.5 c 128,-1,6
 1013 907 1013 907 1013 683 c 2,7,-1
 1013 -415 l 1,8,-1
 816 -415 l 1,9,-1
 816 679 l 2,10,11
 816 822 816 822 759 884.5 c 128,-1,12
 702 947 702 947 586 947 c 0,13,14
 501 947 501 947 439.5 913.5 c 128,-1,15
 378 880 378 880 340 820 c 1,16,-1
 340 0 l 1,17,-1
 143 0 l 1,18,-1
 143 1082 l 1,19,-1
 319 1082 l 1,0,-1
EndSplineSet
Validated: 1
EndChar

StartChar: theta
Encoding: 952 952 402
Width: 1165
GlyphClass: 1
Flags: W
LayerCount: 2
Fore
SplineSet
1046 514 m 2,0,1
 1046 267 1046 267 920.5 123 c 128,-1,2
 795 -21 795 -21 583 -21 c 0,3,4
 372 -21 372 -21 245.5 123 c 128,-1,5
 119 267 119 267 119 514 c 2,6,-1
 119 942 l 2,7,8
 119 1187 119 1187 244.5 1332 c 128,-1,9
 370 1477 370 1477 581 1477 c 0,10,11
 793 1477 793 1477 919.5 1332 c 128,-1,12
 1046 1187 1046 1187 1046 942 c 2,13,-1
 1046 514 l 2,0,1
316 803 m 1,14,-1
 849 803 l 1,15,-1
 849 983 l 2,16,17
 849 1140 849 1140 779 1231 c 128,-1,18
 709 1322 709 1322 581 1322 c 0,19,20
 454 1322 454 1322 385 1231 c 128,-1,21
 316 1140 316 1140 316 983 c 2,22,-1
 316 803 l 1,14,-1
849 648 m 1,23,-1
 316 648 l 1,24,-1
 316 474 l 2,25,26
 316 317 316 317 386.5 225 c 128,-1,27
 457 133 457 133 583 133 c 0,28,29
 711 133 711 133 780 224.5 c 128,-1,30
 849 316 849 316 849 474 c 2,31,-1
 849 648 l 1,23,-1
EndSplineSet
Validated: 1
EndChar

StartChar: iota
Encoding: 953 953 403
Width: 672
GlyphClass: 1
Flags: W
LayerCount: 2
Fore
SplineSet
394 1081 m 1,0,-1
 394 268 l 2,1,2
 394 195 394 195 420.5 167 c 128,-1,3
 447 139 447 139 492 139 c 0,4,5
 517 139 517 139 541 146.5 c 128,-1,6
 565 154 565 154 583 165 c 1,7,-1
 627 32 l 1,8,9
 582 1 582 1 537.5 -10 c 128,-1,10
 493 -21 493 -21 440 -21 c 0,11,12
 321 -21 321 -21 259 50 c 128,-1,13
 197 121 197 121 197 279 c 2,14,-1
 197 1081 l 1,15,-1
 394 1081 l 1,0,-1
EndSplineSet
Validated: 1
EndChar

StartChar: lambda
Encoding: 955 955 405
Width: 1164
GlyphClass: 1
Flags: W
LayerCount: 2
Fore
SplineSet
275 0 m 1,0,-1
 56 0 l 1,1,-1
 447 1028 l 1,2,-1
 392 1173 l 2,3,4
 360 1257 360 1257 316.5 1310 c 128,-1,5
 273 1363 273 1363 213 1363 c 0,6,7
 203 1363 203 1363 176 1360.5 c 128,-1,8
 149 1358 149 1358 145 1358 c 1,9,-1
 145 1503 l 1,10,11
 165 1508 165 1508 196.5 1513 c 128,-1,12
 228 1518 228 1518 252 1518 c 0,13,14
 381 1518 381 1518 457.5 1437 c 128,-1,15
 534 1356 534 1356 574 1248 c 2,16,-1
 934 302 l 1,17,18
 956 231 956 231 991.5 189 c 128,-1,19
 1027 147 1027 147 1071 147 c 0,20,21
 1085 147 1085 147 1089.5 147.5 c 128,-1,22
 1094 148 1094 148 1118 152 c 1,23,-1
 1115 -2 l 1,24,25
 1104 -7 1104 -7 1085.5 -12 c 128,-1,26
 1067 -17 1067 -17 1056 -17 c 0,27,28
 938 -17 938 -17 866.5 48 c 128,-1,29
 795 113 795 113 742 253 c 2,30,-1
 540 784 l 1,31,-1
 534 783 l 1,32,-1
 505 670 l 1,33,-1
 275 0 l 1,0,-1
EndSplineSet
Validated: 1
EndChar

StartChar: xi
Encoding: 958 958 408
Width: 1043
GlyphClass: 1
Flags: W
LayerCount: 2
Fore
SplineSet
922 1456 m 1,0,-1
 922 1301 l 1,1,-1
 626 1301 l 1,2,3
 503 1293 503 1293 440.5 1228 c 128,-1,4
 378 1163 378 1163 378 1067 c 0,5,6
 378 973 378 973 450.5 920.5 c 128,-1,7
 523 868 523 868 677 868 c 2,8,-1
 820 868 l 1,9,-1
 820 713 l 1,10,-1
 677 713 l 2,11,12
 490 713 490 713 392.5 635 c 128,-1,13
 295 557 295 557 295 404 c 0,14,15
 295 284 295 284 375 209 c 128,-1,16
 455 134 455 134 596 134 c 2,17,-1
 656 134 l 2,18,19
 817 134 817 134 906 70.5 c 128,-1,20
 995 7 995 7 995 -122 c 0,21,22
 993 -233 993 -233 915.5 -315 c 128,-1,23
 838 -397 838 -397 729 -444 c 1,24,-1
 650 -317 l 1,25,26
 715 -286 715 -286 762 -243.5 c 128,-1,27
 809 -201 809 -201 809 -131 c 0,28,29
 809 -79 809 -79 774 -49 c 128,-1,30
 739 -19 739 -19 664 -19 c 2,31,-1
 596 -19 l 2,32,33
 374 -19 374 -19 236 94.5 c 128,-1,34
 98 208 98 208 98 408 c 0,35,36
 98 553 98 553 177.5 651.5 c 128,-1,37
 257 750 257 750 409 794 c 1,38,39
 301 834 301 834 241 904.5 c 128,-1,40
 181 975 181 975 181 1063 c 0,41,42
 181 1140 181 1140 211.5 1200.5 c 128,-1,43
 242 1261 242 1261 301 1301 c 1,44,-1
 86 1301 l 1,45,-1
 86 1456 l 1,46,-1
 922 1456 l 1,0,-1
EndSplineSet
Validated: 1
EndChar

StartChar: pi
Encoding: 960 960 410
Width: 1189
GlyphClass: 1
Flags: W
LayerCount: 2
Fore
SplineSet
1118 926 m 1,0,-1
 995 926 l 1,1,-1
 995 268 l 2,2,3
 995 195 995 195 1021.5 167 c 128,-1,4
 1048 139 1048 139 1093 139 c 0,5,6
 1118 139 1118 139 1142 146.5 c 128,-1,7
 1166 154 1166 154 1184 165 c 1,8,-1
 1228 32 l 1,9,10
 1183 1 1183 1 1138.5 -10 c 128,-1,11
 1094 -21 1094 -21 1041 -21 c 0,12,13
 922 -21 922 -21 860 50 c 128,-1,14
 798 121 798 121 798 279 c 2,15,-1
 798 926 l 1,16,-1
 431 926 l 1,17,-1
 431 0 l 1,18,-1
 234 0 l 1,19,-1
 234 926 l 1,20,-1
 79 926 l 1,21,-1
 79 1082 l 1,22,-1
 1118 1082 l 1,23,-1
 1118 926 l 1,0,-1
EndSplineSet
Validated: 1
EndChar

StartChar: rho
Encoding: 961 961 411
Width: 1164
GlyphClass: 1
Flags: W
LayerCount: 2
Fore
SplineSet
1060 500 m 2,0,1
 1060 265 1060 265 950.5 122 c 128,-1,2
 841 -21 841 -21 644 -21 c 0,3,4
 547 -21 547 -21 471 9 c 128,-1,5
 395 39 395 39 340 97 c 1,6,-1
 340 -416 l 1,7,-1
 143 -416 l 1,8,-1
 143 576 l 1,9,-1
 143 577 l 2,10,11
 143 824 143 824 271.5 963 c 128,-1,12
 400 1102 400 1102 592 1102 c 0,13,14
 819 1102 819 1102 939.5 943.5 c 128,-1,15
 1060 785 1060 785 1060 521 c 2,16,-1
 1060 500 l 2,0,1
863 521 m 2,17,18
 863 710 863 710 797 828.5 c 128,-1,19
 731 947 731 947 592 947 c 0,20,21
 469 947 469 947 404.5 831.5 c 128,-1,22
 340 716 340 716 340 576 c 2,23,-1
 340 275 l 1,24,25
 377 208 377 208 437 170.5 c 128,-1,26
 497 133 497 133 584 133 c 0,27,28
 723 133 723 133 793 235 c 128,-1,29
 863 337 863 337 863 500 c 2,30,-1
 863 521 l 2,17,18
EndSplineSet
Validated: 1
EndChar

StartChar: sigma1
Encoding: 962 962 412
Width: 1102
GlyphClass: 1
Flags: W
LayerCount: 2
Fore
SplineSet
573 1102 m 0,0,1
 760 1102 760 1102 876.5 997.5 c 128,-1,2
 993 893 993 893 989 715 c 1,3,-1
 987 709 l 1,4,-1
 809 709 l 1,5,6
 809 812 809 812 748 879.5 c 128,-1,7
 687 947 687 947 573 947 c 0,8,9
 435 947 435 947 365 832 c 128,-1,10
 295 717 295 717 295 562 c 2,11,-1
 295 520 l 2,12,13
 295 377 295 377 377 276.5 c 128,-1,14
 459 176 459 176 625 152 c 0,15,16
 805 126 805 126 889 73 c 128,-1,17
 973 20 973 20 973 -103 c 0,18,19
 971 -214 971 -214 893.5 -296 c 128,-1,20
 816 -378 816 -378 707 -425 c 1,21,-1
 626 -298 l 1,22,23
 692 -267 692 -267 739 -224.5 c 128,-1,24
 786 -182 786 -182 786 -112 c 0,25,26
 786 -64 786 -64 742 -38.5 c 128,-1,27
 698 -13 698 -13 603 0 c 0,28,29
 352 35 352 35 225 170 c 128,-1,30
 98 305 98 305 98 520 c 2,31,-1
 98 562 l 2,32,33
 98 789 98 789 225.5 945.5 c 128,-1,34
 353 1102 353 1102 573 1102 c 0,0,1
EndSplineSet
Validated: 33
EndChar

StartChar: sigma
Encoding: 963 963 413
Width: 1164
GlyphClass: 1
Flags: W
LayerCount: 2
Fore
SplineSet
1148 926 m 1,0,-1
 871 926 l 1,1,2
 965 854 965 854 1015.5 748 c 128,-1,3
 1066 642 1066 642 1066 512 c 2,4,-1
 1066 490 l 2,5,6
 1066 280 1066 280 934 129.5 c 128,-1,7
 802 -21 802 -21 582 -21 c 0,8,9
 358 -21 358 -21 227.5 133.5 c 128,-1,10
 97 288 97 288 97 529 c 2,11,-1
 97 551 l 2,12,13
 97 782 97 782 226.5 931.5 c 128,-1,14
 356 1081 356 1081 579 1082 c 2,15,-1
 1148 1082 l 1,16,-1
 1148 926 l 1,0,-1
294 529 m 2,17,18
 294 357 294 357 366.5 245 c 128,-1,19
 439 133 439 133 582 133 c 0,20,21
 723 133 723 133 796 245 c 128,-1,22
 869 357 869 357 869 529 c 2,23,-1
 869 551 l 2,24,25
 869 712 869 712 795.5 819 c 128,-1,26
 722 926 722 926 580 926 c 0,27,28
 439 926 439 926 366.5 819 c 128,-1,29
 294 712 294 712 294 551 c 2,30,-1
 294 529 l 2,17,18
EndSplineSet
Validated: 1
EndChar

StartChar: tau
Encoding: 964 964 414
Width: 1072
GlyphClass: 1
Flags: W
LayerCount: 2
Fore
SplineSet
988 929 m 1,0,-1
 630 929 l 1,1,-1
 630 0 l 1,2,-1
 433 0 l 1,3,-1
 433 929 l 1,4,-1
 81 929 l 1,5,-1
 81 1082 l 1,6,-1
 988 1082 l 1,7,-1
 988 929 l 1,0,-1
EndSplineSet
Validated: 1
EndChar

StartChar: upsilon
Encoding: 965 965 415
Width: 1164
GlyphClass: 1
Flags: W
LayerCount: 2
Fore
SplineSet
338 1082 m 1,0,-1
 338 470 l 2,1,2
 338 295 338 295 407 214 c 128,-1,3
 476 133 476 133 593 133 c 0,4,5
 730 133 730 133 797.5 259.5 c 128,-1,6
 865 386 865 386 865 562 c 0,7,8
 862 688 862 688 829 817 c 128,-1,9
 796 946 796 946 741 1082 c 1,10,-1
 947 1082 l 1,11,12
 998 975 998 975 1030 845.5 c 128,-1,13
 1062 716 1062 716 1062 562 c 0,14,15
 1062 307 1062 307 951 143 c 128,-1,16
 840 -21 840 -21 603 -21 c 0,17,18
 382 -21 382 -21 261.5 100 c 128,-1,19
 141 221 141 221 141 472 c 2,20,-1
 141 1082 l 1,21,-1
 338 1082 l 1,0,-1
EndSplineSet
Validated: 1
EndChar

StartChar: phi
Encoding: 966 966 416
Width: 1450
GlyphClass: 1
Flags: W
LayerCount: 2
Fore
SplineSet
814 1082 m 2,0,1
 1042 1082 1042 1082 1204.5 921.5 c 128,-1,2
 1367 761 1367 761 1367 524 c 0,3,4
 1367 306 1367 306 1231.5 156.5 c 128,-1,5
 1096 7 1096 7 814 -16 c 1,6,-1
 814 -478 l 1,7,-1
 617 -478 l 1,8,-1
 617 -16 l 1,9,10
 343 9 343 9 213 169.5 c 128,-1,11
 83 330 83 330 83 564 c 0,12,13
 83 717 83 717 115 845.5 c 128,-1,14
 147 974 147 974 199 1082 c 1,15,-1
 405 1082 l 1,16,17
 348 948 348 948 315 819 c 128,-1,18
 282 690 282 690 280 564 c 0,19,20
 280 409 280 409 361.5 290 c 128,-1,21
 443 171 443 171 611 148 c 1,22,-1
 617 150 l 1,23,-1
 617 1082 l 1,24,-1
 814 1082 l 2,0,1
1170 524 m 0,25,26
 1166 687 1166 687 1073 805.5 c 128,-1,27
 980 924 980 924 820 920 c 1,28,-1
 814 918 l 1,29,-1
 814 147 l 1,30,-1
 820 145 l 1,31,32
 997 166 997 166 1083.5 274.5 c 128,-1,33
 1170 383 1170 383 1170 524 c 0,25,26
EndSplineSet
Validated: 33
EndChar

StartChar: chi
Encoding: 967 967 417
Width: 1164
GlyphClass: 1
Flags: W
LayerCount: 2
Fore
SplineSet
202 1097 m 0,0,1
 331 1097 331 1097 406.5 1017 c 128,-1,2
 482 937 482 937 524 829 c 2,3,-1
 616 607 l 1,4,-1
 622 607 l 1,5,-1
 855 1082 l 1,6,-1
 1053 1082 l 1,7,-1
 712 375 l 1,8,-1
 916 -117 l 2,9,10
 949 -192 949 -192 980 -231.5 c 128,-1,11
 1011 -271 1011 -271 1053 -271 c 0,12,13
 1067 -271 1067 -271 1072 -270 c 128,-1,14
 1077 -269 1077 -269 1099 -266 c 1,15,-1
 1096 -422 l 1,16,17
 1086 -428 1086 -428 1068 -432.5 c 128,-1,18
 1050 -437 1050 -437 1037 -437 c 0,19,20
 921 -437 921 -437 851.5 -372 c 128,-1,21
 782 -307 782 -307 729 -165 c 1,22,-1
 602 135 l 1,23,-1
 596 135 l 1,24,-1
 331 -415 l 1,25,-1
 122 -415 l 1,26,-1
 505 367 l 1,27,-1
 342 753 l 2,28,29
 309 836 309 836 266 889 c 128,-1,30
 223 942 223 942 163 942 c 0,31,32
 153 942 153 942 126 939.5 c 128,-1,33
 99 937 99 937 95 937 c 1,34,-1
 95 1082 l 1,35,36
 115 1087 115 1087 146.5 1092 c 128,-1,37
 178 1097 178 1097 202 1097 c 0,0,1
EndSplineSet
Validated: 1
EndChar

StartChar: psi
Encoding: 968 968 418
Width: 1440
GlyphClass: 1
Flags: W
LayerCount: 2
Fore
SplineSet
805 1081 m 1,0,-1
 805 149 l 1,1,-1
 811 147 l 1,2,3
 988 170 988 170 1074 290.5 c 128,-1,4
 1160 411 1160 411 1160 567 c 0,5,6
 1157 692 1157 692 1124 820.5 c 128,-1,7
 1091 949 1091 949 1035 1082 c 1,8,-1
 1242 1082 l 1,9,10
 1293 976 1293 976 1325 848 c 128,-1,11
 1357 720 1357 720 1357 567 c 0,12,13
 1357 327 1357 327 1224 166 c 128,-1,14
 1091 5 1091 5 805 -17 c 1,15,-1
 805 -474 l 1,16,-1
 607 -474 l 1,17,-1
 607 -15 l 1,18,19
 360 10 360 10 225.5 161 c 128,-1,20
 91 312 91 312 91 596 c 2,21,-1
 91 1082 l 1,22,-1
 288 1082 l 1,23,-1
 288 594 l 2,24,25
 288 387 288 387 372.5 277.5 c 128,-1,26
 457 168 457 168 601 149 c 1,27,-1
 607 151 l 1,28,-1
 607 1081 l 1,29,-1
 805 1081 l 1,0,-1
EndSplineSet
Validated: 1
EndChar

StartChar: omega
Encoding: 969 969 419
Width: 1741
GlyphClass: 1
Flags: W
LayerCount: 2
Fore
SplineSet
469 1082 m 1,0,1
 395 948 395 948 352 818.5 c 128,-1,2
 309 689 309 689 305 562 c 1,3,4
 305 372 305 372 361 252.5 c 128,-1,5
 417 133 417 133 537 133 c 0,6,7
 644 133 644 133 707.5 214 c 128,-1,8
 771 295 771 295 771 470 c 2,9,-1
 771 770 l 1,10,-1
 969 770 l 1,11,-1
 969 470 l 2,12,13
 969 295 969 295 1032 214 c 128,-1,14
 1095 133 1095 133 1203 133 c 0,15,16
 1323 133 1323 133 1379 251.5 c 128,-1,17
 1435 370 1435 370 1435 562 c 1,18,19
 1430 689 1430 689 1387 818.5 c 128,-1,20
 1344 948 1344 948 1271 1082 c 1,21,-1
 1478 1082 l 1,22,23
 1546 976 1546 976 1589 846 c 128,-1,24
 1632 716 1632 716 1632 562 c 0,25,26
 1632 307 1632 307 1531 143 c 128,-1,27
 1430 -21 1430 -21 1214 -21 c 0,28,29
 1087 -21 1087 -21 999.5 40 c 128,-1,30
 912 101 912 101 870 220 c 1,31,32
 827 101 827 101 739.5 40 c 128,-1,33
 652 -21 652 -21 527 -21 c 0,34,35
 310 -21 310 -21 209 143 c 128,-1,36
 108 307 108 307 108 562 c 0,37,38
 108 717 108 717 150.5 847 c 128,-1,39
 193 977 193 977 263 1082 c 1,40,-1
 469 1082 l 1,0,1
EndSplineSet
Validated: 1
EndChar

StartChar: uni03D1
Encoding: 977 977 425
Width: 1265
GlyphClass: 2
Flags: W
LayerCount: 2
Fore
SplineSet
521 1036 m 1,0,-1
 521 1098 l 2,1,2
 521 1270 521 1270 615.5 1373.5 c 128,-1,3
 710 1477 710 1477 861 1477 c 0,4,5
 1018 1477 1018 1477 1109 1376 c 128,-1,6
 1200 1275 1200 1275 1200 1098 c 2,7,-1
 1200 592 l 2,8,9
 1200 314 1200 314 1047.5 146.5 c 128,-1,10
 895 -21 895 -21 647 -21 c 0,11,12
 409 -21 409 -21 261 153 c 128,-1,13
 113 327 113 327 113 592 c 2,14,-1
 113 1252 l 1,15,-1
 310 1254 l 1,16,-1
 310 592 l 2,17,18
 310 392 310 392 401 266 c 128,-1,19
 492 140 492 140 647 140 c 0,20,21
 812 140 812 140 907 258.5 c 128,-1,22
 1002 377 1002 377 1004 585 c 1,23,24
 786 593 786 593 653.5 718.5 c 128,-1,25
 521 844 521 844 521 1036 c 1,26,-1
 521 1036 l 1,0,-1
1004 1098 m 2,27,28
 1004 1206 1004 1206 967.5 1260.5 c 128,-1,29
 931 1315 931 1315 861 1315 c 0,30,31
 795 1315 795 1315 756.5 1260.5 c 128,-1,32
 718 1206 718 1206 718 1098 c 2,33,-1
 718 1034 l 2,34,35
 718 914 718 914 793 835 c 128,-1,36
 868 756 868 756 998 752 c 1,37,-1
 1004 754 l 1,38,-1
 1004 1098 l 2,27,28
EndSplineSet
Validated: 5
EndChar

StartChar: uni03D2
Encoding: 978 978 426
Width: 1089
GlyphClass: 1
Flags: W
LayerCount: 2
Fore
SplineSet
742 1239 m 2,0,1
 793 1363 793 1363 854.5 1415 c 128,-1,2
 916 1467 916 1467 997 1467 c 0,3,4
 1031 1467 1031 1467 1056 1462 c 128,-1,5
 1081 1457 1081 1457 1107 1443 c 1,6,-1
 1084 1291 l 1,7,8
 1079 1294 1079 1294 1068 1296.5 c 128,-1,9
 1057 1299 1057 1299 1044 1299 c 0,10,11
 1011 1299 1011 1299 983.5 1281.5 c 128,-1,12
 956 1264 956 1264 940 1225 c 2,13,-1
 640 578 l 1,14,-1
 640 0 l 1,15,-1
 444 0 l 1,16,-1
 444 578 l 1,17,-1
 144 1225 l 2,18,19
 127 1264 127 1264 99.5 1281.5 c 128,-1,20
 72 1299 72 1299 40 1299 c 0,21,22
 26 1299 26 1299 15.5 1296.5 c 128,-1,23
 5 1294 5 1294 0 1291 c 1,24,-1
 -22 1443 l 1,25,26
 2 1457 2 1457 27 1462 c 128,-1,27
 52 1467 52 1467 87 1467 c 0,28,29
 167 1467 167 1467 228.5 1415 c 128,-1,30
 290 1363 290 1363 342 1239 c 2,31,-1
 520 833 l 1,32,-1
 539 763 l 1,33,-1
 545 763 l 1,34,-1
 564 833 l 1,35,-1
 742 1239 l 2,0,1
EndSplineSet
Validated: 1
EndChar

StartChar: uni03D6
Encoding: 982 982 427
Width: 1608
GlyphClass: 1
Flags: W
LayerCount: 2
Fore
SplineSet
1561 926 m 1,0,-1
 1428 926 l 1,1,2
 1457 845 1457 845 1473.5 754 c 128,-1,3
 1490 663 1490 663 1490 562 c 0,4,5
 1490 308 1490 308 1403 143.5 c 128,-1,6
 1316 -21 1316 -21 1132 -21 c 0,7,8
 1013 -21 1013 -21 930.5 39.5 c 128,-1,9
 848 100 848 100 808 216 c 1,10,11
 767 99 767 99 685 39 c 128,-1,12
 603 -21 603 -21 485 -21 c 0,13,14
 300 -21 300 -21 213.5 143.5 c 128,-1,15
 127 308 127 308 127 562 c 0,16,17
 127 663 127 663 143 754 c 128,-1,18
 159 845 159 845 189 926 c 1,19,-1
 78 926 l 1,20,-1
 78 1082 l 1,21,-1
 1561 1082 l 1,22,-1
 1561 926 l 1,0,-1
1293 562 m 0,23,24
 1290 651 1290 651 1270 742 c 128,-1,25
 1250 833 1250 833 1216 926 c 1,26,-1
 401 926 l 1,27,28
 366 832 366 832 346 741 c 128,-1,29
 326 650 326 650 324 562 c 0,30,31
 324 372 324 372 365.5 252.5 c 128,-1,32
 407 133 407 133 496 133 c 0,33,34
 594 133 594 133 652 214 c 128,-1,35
 710 295 710 295 710 470 c 2,36,-1
 710 720 l 1,37,-1
 908 720 l 1,38,-1
 908 470 l 2,39,40
 908 295 908 295 965.5 214 c 128,-1,41
 1023 133 1023 133 1122 133 c 0,42,43
 1209 133 1209 133 1251 252 c 128,-1,44
 1293 371 1293 371 1293 562 c 0,23,24
EndSplineSet
Validated: 1
EndChar

StartChar: uni0402
Encoding: 1026 1026 430
Width: 1514
GlyphClass: 1
Flags: W
LayerCount: 2
Fore
SplineSet
1208 1301 m 1,0,-1
 728 1301 l 1,1,-1
 728 880 l 1,2,-1
 909 880 l 2,3,4
 1144 880 1144 880 1292 752 c 128,-1,5
 1440 624 1440 624 1440 404 c 0,6,7
 1438 266 1438 266 1340.5 125 c 128,-1,8
 1243 -16 1243 -16 1053 -50 c 1,9,-1
 1002 98 l 1,10,11
 1130 132 1130 132 1186 210.5 c 128,-1,12
 1242 289 1242 289 1242 404 c 0,13,14
 1241 551 1241 551 1150 633 c 128,-1,15
 1059 715 1059 715 909 715 c 2,16,-1
 728 715 l 1,17,-1
 728 0 l 1,18,-1
 531 0 l 1,19,-1
 531 1301 l 1,20,-1
 57 1301 l 1,21,-1
 57 1456 l 1,22,-1
 1208 1456 l 1,23,-1
 1208 1301 l 1,0,-1
EndSplineSet
Validated: 1
EndChar

StartChar: uni0404
Encoding: 1028 1028 432
Width: 1386
GlyphClass: 1
Flags: W
LayerCount: 2
Fore
SplineSet
1226 467 m 1,0,-1
 1228 461 l 1,1,2
 1232 256 1232 256 1084 118 c 128,-1,3
 936 -20 936 -20 693 -20 c 0,4,5
 446 -20 446 -20 290.5 155 c 128,-1,6
 135 330 135 330 135 599 c 2,7,-1
 135 858 l 2,8,9
 135 1127 135 1127 290.5 1302.5 c 128,-1,10
 446 1478 446 1478 693 1478 c 256,11,12
 940 1478 940 1478 1086 1346.5 c 128,-1,13
 1232 1215 1232 1215 1228 998 c 1,14,-1
 1226 992 l 1,15,-1
 1037 992 l 1,16,17
 1037 1145 1037 1145 947 1234 c 128,-1,18
 857 1323 857 1323 693 1323 c 0,19,20
 528 1323 528 1323 430 1190 c 128,-1,21
 332 1057 332 1057 332 860 c 2,22,-1
 332 813 l 1,23,-1
 894 813 l 1,24,-1
 894 659 l 1,25,-1
 332 659 l 1,26,-1
 332 599 l 2,27,28
 332 400 332 400 430 267 c 128,-1,29
 528 134 528 134 693 134 c 0,30,31
 857 134 857 134 947 222.5 c 128,-1,32
 1037 311 1037 311 1037 467 c 1,33,-1
 1226 467 l 1,0,-1
EndSplineSet
Validated: 33
EndChar

StartChar: uni0405
Encoding: 1029 1029 433
Width: 1252
GlyphClass: 1
Flags: W
LayerCount: 2
Fore
SplineSet
946 367 m 0,0,1
 946 466 946 466 875 533 c 128,-1,2
 804 600 804 600 625 647 c 0,3,4
 403 702 403 702 278.5 809 c 128,-1,5
 154 916 154 916 154 1078 c 0,6,7
 154 1249 154 1249 288 1363 c 128,-1,8
 422 1477 422 1477 636 1477 c 0,9,10
 866 1477 866 1477 1002.5 1346.5 c 128,-1,11
 1139 1216 1139 1216 1135 1042 c 1,12,-1
 1132 1036 l 1,13,-1
 944 1036 l 1,14,15
 944 1160 944 1160 857.5 1241 c 128,-1,16
 771 1322 771 1322 636 1322 c 0,17,18
 498 1322 498 1322 424.5 1255 c 128,-1,19
 351 1188 351 1188 351 1081 c 0,20,21
 351 986 351 986 431.5 922.5 c 128,-1,22
 512 859 512 859 693 811 c 0,23,24
 913 754 913 754 1028 643 c 128,-1,25
 1143 532 1143 532 1143 369 c 0,26,27
 1143 193 1143 193 1004.5 86 c 128,-1,28
 866 -21 866 -21 643 -21 c 0,29,30
 432 -21 432 -21 270.5 97 c 128,-1,31
 109 215 109 215 114 413 c 1,32,-1
 116 419 l 1,33,-1
 304 419 l 1,34,35
 304 282 304 282 408 207.5 c 128,-1,36
 512 133 512 133 643 133 c 0,37,38
 783 133 783 133 864.5 196 c 128,-1,39
 946 259 946 259 946 367 c 0,0,1
EndSplineSet
Validated: 33
EndChar

StartChar: uni0409
Encoding: 1033 1033 437
Width: 2201
GlyphClass: 1
Flags: W
LayerCount: 2
Fore
SplineSet
1271 1456 m 1,0,-1
 1271 889 l 1,1,-1
 1630 889 l 2,2,3
 1862 889 1862 889 1991.5 765.5 c 128,-1,4
 2121 642 2121 642 2121 444 c 256,5,6
 2121 246 2121 246 1991.5 123 c 128,-1,7
 1862 0 1862 0 1630 0 c 2,8,-1
 1074 0 l 1,9,-1
 1074 1301 l 1,10,-1
 570 1301 l 1,11,-1
 569 770 l 2,12,13
 568 369 568 369 460.5 184.5 c 128,-1,14
 353 0 353 0 102 0 c 2,15,-1
 50 0 l 1,16,-1
 50 154 l 1,17,-1
 90 154 l 2,18,19
 240 154 240 154 306 296.5 c 128,-1,20
 372 439 372 439 373 770 c 2,21,-1
 373 1456 l 1,22,-1
 1271 1456 l 1,0,-1
1271 735 m 1,23,-1
 1271 154 l 1,24,-1
 1630 154 l 2,25,26
 1777 154 1777 154 1850.5 238.5 c 128,-1,27
 1924 323 1924 323 1924 446 c 0,28,29
 1924 567 1924 567 1850.5 651 c 128,-1,30
 1777 735 1777 735 1630 735 c 2,31,-1
 1271 735 l 1,23,-1
EndSplineSet
Validated: 1
EndChar

StartChar: uni040A
Encoding: 1034 1034 438
Width: 2201
GlyphClass: 1
Flags: W
LayerCount: 2
Fore
SplineSet
365 827 m 1,0,-1
 1074 827 l 1,1,-1
 1074 1456 l 1,2,-1
 1271 1456 l 1,3,-1
 1271 840 l 1,4,-1
 1630 840 l 2,5,6
 1863 840 1863 840 1992 726 c 128,-1,7
 2121 612 2121 612 2121 424 c 0,8,9
 2121 235 2121 235 1991.5 117.5 c 128,-1,10
 1862 0 1862 0 1630 0 c 2,11,-1
 1074 0 l 1,12,-1
 1074 673 l 1,13,-1
 365 673 l 1,14,-1
 365 0 l 1,15,-1
 168 0 l 1,16,-1
 168 1456 l 1,17,-1
 365 1456 l 1,18,-1
 365 827 l 1,0,-1
1271 685 m 1,19,-1
 1271 165 l 1,20,-1
 1630 165 l 2,21,22
 1778 165 1778 165 1851 239 c 128,-1,23
 1924 313 1924 313 1924 426 c 0,24,25
 1924 538 1924 538 1851 611.5 c 128,-1,26
 1778 685 1778 685 1630 685 c 2,27,-1
 1271 685 l 1,19,-1
EndSplineSet
Validated: 1
EndChar

StartChar: uni040B
Encoding: 1035 1035 439
Width: 1670
GlyphClass: 1
Flags: W
LayerCount: 2
Fore
SplineSet
1224 1301 m 1,0,-1
 744 1301 l 1,1,-1
 744 961 l 1,2,-1
 1038 961 l 2,3,4
 1276 961 1276 961 1401.5 850.5 c 128,-1,5
 1527 740 1527 740 1527 501 c 2,6,-1
 1527 0 l 1,7,-1
 1330 0 l 1,8,-1
 1330 501 l 2,9,10
 1330 669 1330 669 1260 737.5 c 128,-1,11
 1190 806 1190 806 1038 806 c 2,12,-1
 744 806 l 1,13,-1
 744 0 l 1,14,-1
 547 0 l 1,15,-1
 547 1301 l 1,16,-1
 73 1301 l 1,17,-1
 73 1456 l 1,18,-1
 1224 1456 l 1,19,-1
 1224 1301 l 1,0,-1
EndSplineSet
Validated: 1
EndChar

StartChar: uni040F
Encoding: 1039 1039 443
Width: 1439
GlyphClass: 1
Flags: W
LayerCount: 2
Fore
SplineSet
168 1456 m 1,0,-1
 365 1456 l 1,1,-1
 365 154 l 1,2,-1
 1074 154 l 1,3,-1
 1074 1456 l 1,4,-1
 1271 1456 l 1,5,-1
 1271 0 l 1,6,-1
 825 0 l 1,7,-1
 825 -359 l 1,8,-1
 628 -359 l 1,9,-1
 628 0 l 1,10,-1
 168 0 l 1,11,-1
 168 1456 l 1,0,-1
EndSplineSet
Validated: 1
EndChar

StartChar: uni0411
Encoding: 1041 1041 445
Width: 1292
GlyphClass: 1
Flags: W
LayerCount: 2
Fore
SplineSet
1056 1301 m 1,0,-1
 360 1301 l 1,1,-1
 360 880 l 1,2,-1
 719 880 l 2,3,4
 952 880 952 880 1081.5 760.5 c 128,-1,5
 1211 641 1211 641 1211 444 c 0,6,7
 1211 246 1211 246 1081 123 c 128,-1,8
 951 0 951 0 719 0 c 2,9,-1
 163 0 l 1,10,-1
 163 1456 l 1,11,-1
 1056 1456 l 1,12,-1
 1056 1301 l 1,0,-1
360 725 m 1,13,-1
 360 154 l 1,14,-1
 719 154 l 2,15,16
 866 154 866 154 940 238.5 c 128,-1,17
 1014 323 1014 323 1014 446 c 0,18,19
 1014 565 1014 565 940.5 645 c 128,-1,20
 867 725 867 725 719 725 c 2,21,-1
 360 725 l 1,13,-1
EndSplineSet
Validated: 1
EndChar

StartChar: uni0414
Encoding: 1044 1044 448
Width: 1575
GlyphClass: 1
Flags: W
LayerCount: 2
Fore
SplineSet
1518 -357 m 1,0,-1
 1321 -357 l 1,1,-1
 1321 0 l 1,2,-1
 251 0 l 1,3,-1
 251 -359 l 1,4,-1
 54 -359 l 1,5,-1
 54 154 l 1,6,-1
 158 154 l 2,7,8
 290 154 290 154 355.5 335.5 c 128,-1,9
 421 517 421 517 439 867 c 2,10,-1
 472 1456 l 1,11,-1
 1319 1456 l 1,12,-1
 1319 154 l 1,13,-1
 1518 154 l 1,14,-1
 1518 -357 l 1,0,-1
638 867 m 2,15,16
 625 618 625 618 584.5 439.5 c 128,-1,17
 544 261 544 261 467 154 c 1,18,-1
 1122 154 l 1,19,-1
 1122 1301 l 1,20,-1
 661 1301 l 1,21,-1
 638 867 l 2,15,16
EndSplineSet
Validated: 1
EndChar

StartChar: uni0416
Encoding: 1046 1046 450
Width: 1687
GlyphClass: 1
Flags: W
LayerCount: 2
Fore
SplineSet
999 668 m 1,0,-1
 945 668 l 1,1,-1
 945 0 l 1,2,-1
 749 0 l 1,3,-1
 749 668 l 1,4,-1
 686 668 l 1,5,-1
 271 0 l 1,6,-1
 26 0 l 1,7,-1
 521 770 l 1,8,-1
 66 1456 l 1,9,-1
 296 1456 l 1,10,-1
 684 823 l 1,11,-1
 749 823 l 1,12,-1
 749 1456 l 1,13,-1
 945 1456 l 1,14,-1
 945 823 l 1,15,-1
 1002 823 l 1,16,-1
 1390 1456 l 1,17,-1
 1620 1456 l 1,18,-1
 1165 771 l 1,19,-1
 1660 0 l 1,20,-1
 1415 0 l 1,21,-1
 999 668 l 1,0,-1
EndSplineSet
Validated: 1
EndChar

StartChar: uni0417
Encoding: 1047 1047 451
Width: 1385
GlyphClass: 1
Flags: W
LayerCount: 2
Fore
SplineSet
1225 1062 m 0,0,1
 1225 961 1225 961 1157 877.5 c 128,-1,2
 1089 794 1089 794 969 747 c 1,3,4
 1104 705 1104 705 1175.5 618 c 128,-1,5
 1247 531 1247 531 1247 406 c 0,6,7
 1247 205 1247 205 1087.5 92 c 128,-1,8
 928 -21 928 -21 670 -21 c 0,9,10
 444 -21 444 -21 282 86 c 128,-1,11
 120 193 120 193 125 398 c 1,12,-1
 127 404 l 1,13,-1
 315 404 l 1,14,15
 315 290 315 290 414 211.5 c 128,-1,16
 513 133 513 133 670 133 c 0,17,18
 848 133 848 133 949 207.5 c 128,-1,19
 1050 282 1050 282 1050 402 c 0,20,21
 1050 535 1050 535 958 599.5 c 128,-1,22
 866 664 866 664 686 664 c 2,23,-1
 503 664 l 1,24,-1
 503 820 l 1,25,-1
 686 820 l 2,26,27
 860 820 860 820 944 886 c 128,-1,28
 1028 952 1028 952 1028 1066 c 0,29,30
 1028 1178 1028 1178 937.5 1250 c 128,-1,31
 847 1322 847 1322 670 1322 c 0,32,33
 529 1322 529 1322 432.5 1251 c 128,-1,34
 336 1180 336 1180 336 1075 c 1,35,-1
 148 1075 l 1,36,-1
 147 1081 l 1,37,38
 141 1257 141 1257 293.5 1367 c 128,-1,39
 446 1477 446 1477 670 1477 c 0,40,41
 927 1477 927 1477 1076 1369 c 128,-1,42
 1225 1261 1225 1261 1225 1062 c 0,0,1
EndSplineSet
Validated: 33
EndChar

StartChar: uni0418
Encoding: 1048 1048 452
Width: 1440
GlyphClass: 1
Flags: W
LayerCount: 2
Fore
SplineSet
1077 1456 m 1,0,-1
 1274 1456 l 1,1,-1
 1274 0 l 1,2,-1
 1077 0 l 1,3,-1
 1077 1110 l 1,4,-1
 1071 1112 l 1,5,-1
 370 0 l 1,6,-1
 173 0 l 1,7,-1
 173 1456 l 1,8,-1
 370 1456 l 1,9,-1
 370 347 l 1,10,-1
 376 345 l 1,11,-1
 1077 1456 l 1,0,-1
EndSplineSet
Validated: 1
EndChar

StartChar: uni041B
Encoding: 1051 1051 455
Width: 1439
GlyphClass: 1
Flags: W
LayerCount: 2
Fore
SplineSet
1271 1456 m 1,0,-1
 1271 0 l 1,1,-1
 1074 0 l 1,2,-1
 1074 1301 l 1,3,-1
 548 1301 l 1,4,-1
 547 770 l 2,5,6
 547 370 547 370 444 185 c 128,-1,7
 341 0 341 0 102 0 c 2,8,-1
 49 0 l 1,9,-1
 49 154 l 1,10,-1
 90 154 l 2,11,12
 228 154 228 154 289 296.5 c 128,-1,13
 350 439 350 439 351 770 c 2,14,-1
 352 1456 l 1,15,-1
 1271 1456 l 1,0,-1
EndSplineSet
Validated: 1
EndChar

StartChar: uni0423
Encoding: 1059 1059 463
Width: 1297
GlyphClass: 1
Flags: W
LayerCount: 2
Fore
SplineSet
568 775 m 1,0,-1
 642 584 l 1,1,-1
 648 584 l 1,2,-1
 996 1456 l 1,3,-1
 1224 1456 l 1,4,-1
 695 239 l 2,5,6
 639 115 639 115 559 47 c 128,-1,7
 479 -21 479 -21 325 -21 c 0,8,9
 260 -21 260 -21 203.5 -10 c 128,-1,10
 147 1 147 1 114 16 c 1,11,-1
 139 160 l 1,12,13
 172 150 172 150 220 141.5 c 128,-1,14
 268 133 268 133 304 133 c 0,15,16
 386 133 386 133 435 175.5 c 128,-1,17
 484 218 484 218 514 285 c 2,18,-1
 553 368 l 1,19,-1
 66 1456 l 1,20,-1
 287 1456 l 1,21,-1
 568 775 l 1,0,-1
EndSplineSet
Validated: 1
EndChar

StartChar: uni0426
Encoding: 1062 1062 466
Width: 1533
GlyphClass: 1
Flags: W
LayerCount: 2
Fore
SplineSet
161 1456 m 1,0,-1
 358 1456 l 1,1,-1
 358 155 l 1,2,-1
 1067 155 l 1,3,-1
 1067 1456 l 1,4,-1
 1264 1456 l 1,5,-1
 1264 160 l 1,6,-1
 1453 160 l 1,7,-1
 1453 -359 l 1,8,-1
 1256 -359 l 1,9,-1
 1256 0 l 1,10,-1
 161 0 l 1,11,-1
 161 1456 l 1,0,-1
EndSplineSet
Validated: 1
EndChar

StartChar: uni0427
Encoding: 1063 1063 467
Width: 1397
GlyphClass: 1
Flags: W
LayerCount: 2
Fore
SplineSet
1228 1456 m 1,0,-1
 1228 0 l 1,1,-1
 1031 0 l 1,2,-1
 1031 603 l 1,3,4
 936 574 936 574 847 561 c 128,-1,5
 758 548 758 548 636 548 c 0,6,7
 395 548 395 548 271 653.5 c 128,-1,8
 147 759 147 759 147 996 c 2,9,-1
 147 1456 l 1,10,-1
 345 1456 l 1,11,-1
 345 996 l 2,12,13
 345 831 345 831 414 767.5 c 128,-1,14
 483 704 483 704 636 704 c 0,15,16
 740 704 740 704 836 718 c 128,-1,17
 932 732 932 732 1031 759 c 1,18,-1
 1031 1456 l 1,19,-1
 1228 1456 l 1,0,-1
EndSplineSet
Validated: 1
EndChar

StartChar: uni0428
Encoding: 1064 1064 468
Width: 2079
GlyphClass: 1
Flags: W
LayerCount: 2
Fore
SplineSet
361 1456 m 1,0,-1
 361 154 l 1,1,-1
 953 154 l 1,2,-1
 953 1456 l 1,3,-1
 1149 1456 l 1,4,-1
 1149 154 l 1,5,-1
 1738 154 l 1,6,-1
 1738 1456 l 1,7,-1
 1935 1456 l 1,8,-1
 1935 0 l 1,9,-1
 164 0 l 1,10,-1
 164 1456 l 1,11,-1
 361 1456 l 1,0,-1
EndSplineSet
Validated: 1
EndChar

StartChar: uni0429
Encoding: 1065 1065 469
Width: 2148
GlyphClass: 1
Flags: W
LayerCount: 2
Fore
SplineSet
361 1456 m 1,0,-1
 361 154 l 1,1,-1
 953 154 l 1,2,-1
 953 1456 l 1,3,-1
 1149 1456 l 1,4,-1
 1149 154 l 1,5,-1
 1738 154 l 1,6,-1
 1738 1456 l 1,7,-1
 1935 1456 l 1,8,-1
 1935 157 l 1,9,-1
 2105 157 l 1,10,-1
 2105 -360 l 1,11,-1
 1908 -360 l 1,12,-1
 1908 0 l 1,13,-1
 164 0 l 1,14,-1
 164 1456 l 1,15,-1
 361 1456 l 1,0,-1
EndSplineSet
Validated: 1
EndChar

StartChar: uni042A
Encoding: 1066 1066 470
Width: 1458
GlyphClass: 1
Flags: W
LayerCount: 2
Fore
SplineSet
0 1456 m 1,0,-1
 523 1456 l 1,1,-1
 523 880 l 1,2,-1
 882 880 l 2,3,4
 1115 880 1115 880 1244.5 760.5 c 128,-1,5
 1374 641 1374 641 1374 444 c 0,6,7
 1374 246 1374 246 1244 123 c 128,-1,8
 1114 0 1114 0 882 0 c 2,9,-1
 326 0 l 1,10,-1
 326 1301 l 1,11,-1
 0 1301 l 1,12,-1
 0 1456 l 1,0,-1
523 725 m 1,13,-1
 523 154 l 1,14,-1
 882 154 l 2,15,16
 1029 154 1029 154 1103 238.5 c 128,-1,17
 1177 323 1177 323 1177 446 c 0,18,19
 1177 565 1177 565 1103.5 645 c 128,-1,20
 1030 725 1030 725 882 725 c 2,21,-1
 523 725 l 1,13,-1
EndSplineSet
Validated: 1
EndChar

StartChar: uni042B
Encoding: 1067 1067 471
Width: 1749
GlyphClass: 1
Flags: W
LayerCount: 2
Fore
SplineSet
360 880 m 1,0,-1
 719 880 l 2,1,2
 952 880 952 880 1081.5 760.5 c 128,-1,3
 1211 641 1211 641 1211 444 c 0,4,5
 1211 246 1211 246 1081 123 c 128,-1,6
 951 0 951 0 719 0 c 2,7,-1
 163 0 l 1,8,-1
 163 1456 l 1,9,-1
 360 1456 l 1,10,-1
 360 880 l 1,0,-1
360 725 m 1,11,-1
 360 154 l 1,12,-1
 719 154 l 2,13,14
 866 154 866 154 940 238.5 c 128,-1,15
 1014 323 1014 323 1014 446 c 0,16,17
 1014 565 1014 565 940.5 645 c 128,-1,18
 867 725 867 725 719 725 c 2,19,-1
 360 725 l 1,11,-1
1586 0 m 1,20,-1
 1388 0 l 1,21,-1
 1388 1456 l 1,22,-1
 1586 1456 l 1,23,-1
 1586 0 l 1,20,-1
EndSplineSet
Validated: 1
EndChar

StartChar: uni042C
Encoding: 1068 1068 472
Width: 1290
GlyphClass: 1
Flags: W
LayerCount: 2
Fore
SplineSet
360 880 m 1,0,-1
 719 880 l 2,1,2
 952 880 952 880 1081.5 760.5 c 128,-1,3
 1211 641 1211 641 1211 444 c 0,4,5
 1211 246 1211 246 1081 123 c 128,-1,6
 951 0 951 0 719 0 c 2,7,-1
 163 0 l 1,8,-1
 163 1456 l 1,9,-1
 360 1456 l 1,10,-1
 360 880 l 1,0,-1
360 725 m 1,11,-1
 360 154 l 1,12,-1
 719 154 l 2,13,14
 866 154 866 154 940 238.5 c 128,-1,15
 1014 323 1014 323 1014 446 c 0,16,17
 1014 565 1014 565 940.5 645 c 128,-1,18
 867 725 867 725 719 725 c 2,19,-1
 360 725 l 1,11,-1
EndSplineSet
Validated: 1
EndChar

StartChar: uni042D
Encoding: 1069 1069 473
Width: 1385
GlyphClass: 1
Flags: W
LayerCount: 2
Fore
SplineSet
188 990 m 1,0,-1
 186 996 l 1,1,2
 181 1199 181 1199 329.5 1338.5 c 128,-1,3
 478 1478 478 1478 720 1478 c 0,4,5
 967 1478 967 1478 1123 1302.5 c 128,-1,6
 1279 1127 1279 1127 1279 858 c 2,7,-1
 1279 599 l 2,8,9
 1279 329 1279 329 1123 154.5 c 128,-1,10
 967 -20 967 -20 720 -20 c 256,11,12
 473 -20 473 -20 327 110.5 c 128,-1,13
 181 241 181 241 186 459 c 1,14,-1
 188 465 l 1,15,-1
 377 465 l 1,16,17
 377 311 377 311 466 222.5 c 128,-1,18
 555 134 555 134 720 134 c 0,19,20
 884 134 884 134 982.5 266.5 c 128,-1,21
 1081 399 1081 399 1081 597 c 2,22,-1
 1081 678 l 1,23,-1
 507 678 l 1,24,-1
 507 833 l 1,25,-1
 1081 833 l 1,26,-1
 1081 858 l 2,27,28
 1081 1056 1081 1056 982.5 1189.5 c 128,-1,29
 884 1323 884 1323 720 1323 c 0,30,31
 555 1323 555 1323 466 1234 c 128,-1,32
 377 1145 377 1145 377 990 c 1,33,-1
 188 990 l 1,0,-1
EndSplineSet
Validated: 33
EndChar

StartChar: uni042E
Encoding: 1070 1070 474
Width: 1825
GlyphClass: 1
Flags: W
LayerCount: 2
Fore
SplineSet
1762 598 m 2,0,1
 1762 331 1762 331 1596.5 155 c 128,-1,2
 1431 -21 1431 -21 1167 -21 c 0,3,4
 912 -21 912 -21 752.5 155 c 128,-1,5
 593 331 593 331 593 598 c 2,6,-1
 593 632 l 1,7,-1
 388 632 l 1,8,-1
 388 0 l 1,9,-1
 190 0 l 1,10,-1
 190 1456 l 1,11,-1
 388 1456 l 1,12,-1
 388 786 l 1,13,-1
 593 786 l 1,14,-1
 593 857 l 2,15,16
 593 1123 593 1123 752.5 1300 c 128,-1,17
 912 1477 912 1477 1167 1477 c 0,18,19
 1431 1477 1431 1477 1596.5 1300.5 c 128,-1,20
 1762 1124 1762 1124 1762 857 c 2,21,-1
 1762 598 l 2,0,1
1565 859 m 2,22,23
 1565 1059 1565 1059 1457 1187 c 128,-1,24
 1349 1315 1349 1315 1167 1315 c 0,25,26
 995 1315 995 1315 892.5 1187 c 128,-1,27
 790 1059 790 1059 790 859 c 2,28,-1
 790 598 l 2,29,30
 790 396 790 396 892.5 268 c 128,-1,31
 995 140 995 140 1167 140 c 0,32,33
 1350 140 1350 140 1457.5 267.5 c 128,-1,34
 1565 395 1565 395 1565 598 c 2,35,-1
 1565 859 l 2,22,23
EndSplineSet
Validated: 1
EndChar

StartChar: uni042F
Encoding: 1071 1071 475
Width: 1211
GlyphClass: 1
Flags: W
LayerCount: 2
Fore
SplineSet
253 0 m 1,0,-1
 44 0 l 1,1,-1
 386 661 l 1,2,3
 244 712 244 712 170.5 807 c 128,-1,4
 97 902 97 902 97 1038 c 0,5,6
 97 1237 97 1237 234 1346.5 c 128,-1,7
 371 1456 371 1456 612 1456 c 2,8,-1
 1078 1456 l 1,9,-1
 1078 0 l 1,10,-1
 881 0 l 1,11,-1
 881 609 l 1,12,-1
 558 609 l 1,13,-1
 253 0 l 1,0,-1
881 1301 m 1,14,-1
 612 1301 l 2,15,16
 456 1301 456 1301 375 1231.5 c 128,-1,17
 294 1162 294 1162 294 1040 c 0,18,19
 294 917 294 917 375.5 841 c 128,-1,20
 457 765 457 765 610 765 c 2,21,-1
 881 765 l 1,22,-1
 881 1301 l 1,14,-1
EndSplineSet
Validated: 1
EndChar

StartChar: uni0431
Encoding: 1073 1073 477
Width: 1133
GlyphClass: 1
Flags: W
LayerCount: 2
Fore
SplineSet
619 1102 m 0,0,1
 826 1102 826 1102 946 947 c 128,-1,2
 1066 792 1066 792 1066 551 c 2,3,-1
 1066 529 l 2,4,5
 1066 287 1066 287 936 133 c 128,-1,6
 806 -21 806 -21 582 -21 c 256,7,8
 358 -21 358 -21 227.5 133.5 c 128,-1,9
 97 288 97 288 97 529 c 2,10,-1
 97 551 l 2,11,12
 97 559 97 559 97 564.5 c 128,-1,13
 97 570 97 570 98 577 c 2,14,-1
 98 812 l 2,15,16
 98 1120 98 1120 221.5 1265.5 c 128,-1,17
 345 1411 345 1411 585 1424 c 0,18,19
 723 1431 723 1431 798 1458.5 c 128,-1,20
 873 1486 873 1486 873 1553 c 1,21,-1
 1024 1553 l 1,22,-1
 1026 1547 l 1,23,24
 1031 1389 1031 1389 921 1325.5 c 128,-1,25
 811 1262 811 1262 602 1258 c 0,26,27
 450 1254 450 1254 358 1174 c 128,-1,28
 266 1094 266 1094 269 937 c 1,29,-1
 272 932 l 1,30,31
 331 1007 331 1007 423 1054.5 c 128,-1,32
 515 1102 515 1102 619 1102 c 0,0,1
580 947 m 0,33,34
 439 947 439 947 367 834 c 128,-1,35
 295 721 295 721 295 551 c 2,36,-1
 295 529 l 2,37,38
 295 357 295 357 367 245 c 128,-1,39
 439 133 439 133 582 133 c 0,40,41
 723 133 723 133 796 245 c 128,-1,42
 869 357 869 357 869 529 c 2,43,-1
 869 551 l 2,44,45
 869 721 869 721 795.5 834 c 128,-1,46
 722 947 722 947 580 947 c 0,33,34
EndSplineSet
Validated: 33
EndChar

StartChar: uni0432
Encoding: 1074 1074 478
Width: 1164
GlyphClass: 1
Flags: W
LayerCount: 2
Fore
SplineSet
144 0 m 1,0,-1
 144 1082 l 1,1,-1
 571 1082 l 2,2,3
 785 1082 785 1082 903 1007.5 c 128,-1,4
 1021 933 1021 933 1021 784 c 0,5,6
 1021 708 1021 708 975 648.5 c 128,-1,7
 929 589 929 589 845 558 c 1,8,9
 946 533 946 533 1002.5 464.5 c 128,-1,10
 1059 396 1059 396 1059 308 c 0,11,12
 1059 156 1059 156 948.5 78 c 128,-1,13
 838 0 838 0 640 0 c 2,14,-1
 144 0 l 1,0,-1
341 474 m 1,15,-1
 341 152 l 1,16,-1
 640 152 l 2,17,18
 749 152 749 152 805 193.5 c 128,-1,19
 861 235 861 235 861 313 c 0,20,21
 861 390 861 390 805 432 c 128,-1,22
 749 474 749 474 640 474 c 2,23,-1
 341 474 l 1,15,-1
341 625 m 1,24,-1
 572 625 l 2,25,26
 697 625 697 625 760.5 662 c 128,-1,27
 824 699 824 699 824 774 c 0,28,29
 824 851 824 851 760 890 c 128,-1,30
 696 929 696 929 571 929 c 2,31,-1
 341 929 l 1,32,-1
 341 625 l 1,24,-1
EndSplineSet
Validated: 1
EndChar

StartChar: uni0433
Encoding: 1075 1075 479
Width: 849
GlyphClass: 1
Flags: W
LayerCount: 2
Fore
SplineSet
831 926 m 1,0,-1
 340 926 l 1,1,-1
 340 0 l 1,2,-1
 143 0 l 1,3,-1
 143 1082 l 1,4,-1
 831 1082 l 1,5,-1
 831 926 l 1,0,-1
EndSplineSet
Validated: 1
EndChar

StartChar: uni0434
Encoding: 1076 1076 480
Width: 1297
GlyphClass: 1
Flags: W
LayerCount: 2
Fore
SplineSet
175 154 m 2,0,1
 253 154 253 154 288.5 282.5 c 128,-1,2
 324 411 324 411 340 675 c 2,3,-1
 366 1082 l 1,4,-1
 1084 1082 l 1,5,-1
 1084 154 l 1,6,-1
 1227 154 l 1,7,-1
 1227 -358 l 1,8,-1
 1030 -358 l 1,9,-1
 1030 0 l 1,10,-1
 266 0 l 1,11,-1
 266 -358 l 1,12,-1
 69 -358 l 1,13,-1
 69 154 l 1,14,-1
 175 154 l 2,0,1
538 675 m 2,15,16
 526 484 526 484 505.5 359.5 c 128,-1,17
 485 235 485 235 444 154 c 1,18,-1
 887 154 l 1,19,-1
 887 907 l 1,20,-1
 552 907 l 1,21,-1
 538 675 l 2,15,16
EndSplineSet
Validated: 1
EndChar

StartChar: uni0436
Encoding: 1078 1078 482
Width: 1473
GlyphClass: 1
Flags: W
LayerCount: 2
Fore
SplineSet
892 469 m 1,0,-1
 834 469 l 1,1,-1
 834 0 l 1,2,-1
 637 0 l 1,3,-1
 637 469 l 1,4,-1
 579 469 l 1,5,-1
 274 0 l 1,6,-1
 26 0 l 1,7,-1
 430 572 l 1,8,-1
 60 1082 l 1,9,-1
 298 1082 l 1,10,-1
 584 636 l 1,11,-1
 637 636 l 1,12,-1
 637 1082 l 1,13,-1
 834 1082 l 1,14,-1
 834 636 l 1,15,-1
 888 636 l 1,16,-1
 1175 1082 l 1,17,-1
 1412 1082 l 1,18,-1
 1042 572 l 1,19,-1
 1446 0 l 1,20,-1
 1198 0 l 1,21,-1
 892 469 l 1,0,-1
EndSplineSet
Validated: 1
EndChar

StartChar: uni0437
Encoding: 1079 1079 483
Width: 1103
GlyphClass: 1
Flags: W
LayerCount: 2
Fore
SplineSet
563 632 m 2,0,1
 678 632 678 632 732.5 672 c 128,-1,2
 787 712 787 712 787 786 c 0,3,4
 787 853 787 853 726.5 900.5 c 128,-1,5
 666 948 666 948 551 948 c 0,6,7
 449 948 449 948 380 899 c 128,-1,8
 311 850 311 850 311 780 c 1,9,-1
 125 780 l 1,10,-1
 123 786 l 1,11,12
 117 925 117 925 242 1012.5 c 128,-1,13
 367 1100 367 1100 551 1100 c 0,14,15
 751 1100 751 1100 867.5 1018.5 c 128,-1,16
 984 937 984 937 984 786 c 0,17,18
 984 713 984 713 935.5 652 c 128,-1,19
 887 591 887 591 801 556 c 1,20,21
 899 524 899 524 951.5 460 c 128,-1,22
 1004 396 1004 396 1004 305 c 0,23,24
 1004 154 1004 154 878 67.5 c 128,-1,25
 752 -19 752 -19 551 -19 c 0,26,27
 366 -19 366 -19 233 66.5 c 128,-1,28
 100 152 100 152 106 314 c 1,29,-1
 108 320 l 1,30,-1
 294 320 l 1,31,32
 294 244 294 244 366 188 c 128,-1,33
 438 132 438 132 551 132 c 0,34,35
 668 132 668 132 737 182 c 128,-1,36
 806 232 806 232 806 305 c 0,37,38
 806 391 806 391 745 431.5 c 128,-1,39
 684 472 684 472 563 472 c 2,40,-1
 355 472 l 1,41,-1
 355 632 l 1,42,-1
 563 632 l 2,0,1
EndSplineSet
Validated: 33
EndChar

StartChar: uni0438
Encoding: 1080 1080 484
Width: 1164
GlyphClass: 1
Flags: W
LayerCount: 2
Fore
SplineSet
823 1082 m 1,0,-1
 1020 1082 l 1,1,-1
 1020 0 l 1,2,-1
 823 0 l 1,3,-1
 823 768 l 1,4,-1
 817 770 l 1,5,-1
 339 0 l 1,6,-1
 143 0 l 1,7,-1
 143 1082 l 1,8,-1
 339 1082 l 1,9,-1
 339 314 l 1,10,-1
 345 312 l 1,11,-1
 823 1082 l 1,0,-1
EndSplineSet
Validated: 1
EndChar

StartChar: uni043A
Encoding: 1082 1082 486
Width: 1120
GlyphClass: 1
Flags: W
LayerCount: 2
Fore
SplineSet
451 459 m 1,0,-1
 350 459 l 1,1,-1
 350 0 l 1,2,-1
 153 0 l 1,3,-1
 153 1082 l 1,4,-1
 350 1082 l 1,5,-1
 350 625 l 1,6,-1
 434 625 l 1,7,-1
 821 1082 l 1,8,-1
 1052 1082 l 1,9,-1
 1054 1077 l 1,10,-1
 605 563 l 1,11,-1
 1088 5 l 1,12,-1
 1086 0 l 1,13,-1
 844 0 l 1,14,-1
 451 459 l 1,0,-1
EndSplineSet
Validated: 1
EndChar

StartChar: uni043B
Encoding: 1083 1083 487
Width: 1133
GlyphClass: 1
Flags: W
LayerCount: 2
Fore
SplineSet
1020 1082 m 1,0,-1
 1020 0 l 1,1,-1
 823 0 l 1,2,-1
 823 926 l 1,3,-1
 457 926 l 1,4,-1
 457 620 l 2,5,6
 457 300 457 300 372 150 c 128,-1,7
 287 0 287 0 82 0 c 2,8,-1
 26 0 l 1,9,-1
 30 168 l 1,10,-1
 71 169 l 2,11,12
 176 169 176 169 217.5 271.5 c 128,-1,13
 259 374 259 374 259 620 c 2,14,-1
 259 1082 l 1,15,-1
 1020 1082 l 1,0,-1
EndSplineSet
Validated: 1
EndChar

StartChar: uni043C
Encoding: 1084 1084 488
Width: 1528
GlyphClass: 1
Flags: W
LayerCount: 2
Fore
SplineSet
759 258 m 1,0,-1
 765 258 l 1,1,-1
 1119 1082 l 1,2,-1
 1365 1082 l 1,3,-1
 1365 0 l 1,4,-1
 1168 0 l 1,5,-1
 1168 751 l 1,6,-1
 1162 753 l 1,7,-1
 830 0 l 1,8,-1
 694 0 l 1,9,-1
 356 770 l 1,10,-1
 350 768 l 1,11,-1
 350 0 l 1,12,-1
 153 0 l 1,13,-1
 153 1082 l 1,14,-1
 407 1082 l 1,15,-1
 759 258 l 1,0,-1
EndSplineSet
Validated: 1
EndChar

StartChar: uni043D
Encoding: 1085 1085 489
Width: 1164
GlyphClass: 1
Flags: W
LayerCount: 2
Fore
SplineSet
1019 0 m 1,0,-1
 822 0 l 1,1,-1
 822 460 l 1,2,-1
 340 460 l 1,3,-1
 340 0 l 1,4,-1
 143 0 l 1,5,-1
 143 1082 l 1,6,-1
 340 1082 l 1,7,-1
 340 614 l 1,8,-1
 822 614 l 1,9,-1
 822 1082 l 1,10,-1
 1019 1082 l 1,11,-1
 1019 0 l 1,0,-1
EndSplineSet
Validated: 1
EndChar

StartChar: uni043F
Encoding: 1087 1087 491
Width: 1164
GlyphClass: 1
Flags: W
LayerCount: 2
Fore
SplineSet
1020 0 m 1,0,-1
 823 0 l 1,1,-1
 823 926 l 1,2,-1
 340 926 l 1,3,-1
 340 0 l 1,4,-1
 143 0 l 1,5,-1
 143 1082 l 1,6,-1
 1020 1082 l 1,7,-1
 1020 0 l 1,0,-1
EndSplineSet
Validated: 1
EndChar

StartChar: uni0441
Encoding: 1089 1089 493
Width: 1072
GlyphClass: 1
Flags: W
LayerCount: 2
Fore
SplineSet
573 133 m 0,0,1
 664 133 664 133 732 193.5 c 128,-1,2
 800 254 800 254 800 342 c 1,3,-1
 978 342 l 1,4,-1
 981 336 l 1,5,6
 985 196 985 196 861 87.5 c 128,-1,7
 737 -21 737 -21 573 -21 c 0,8,9
 345 -21 345 -21 221 134 c 128,-1,10
 97 289 97 289 97 520 c 2,11,-1
 97 562 l 2,12,13
 97 791 97 791 221.5 946.5 c 128,-1,14
 346 1102 346 1102 573 1102 c 0,15,16
 754 1102 754 1102 869.5 990 c 128,-1,17
 985 878 985 878 981 715 c 1,18,-1
 979 709 l 1,19,-1
 800 709 l 1,20,21
 800 808 800 808 735.5 877.5 c 128,-1,22
 671 947 671 947 573 947 c 0,23,24
 428 947 428 947 361.5 834.5 c 128,-1,25
 295 722 295 722 295 562 c 2,26,-1
 295 520 l 2,27,28
 295 357 295 357 360.5 245 c 128,-1,29
 426 133 426 133 573 133 c 0,0,1
EndSplineSet
Validated: 33
EndChar

StartChar: uni0442
Encoding: 1090 1090 494
Width: 1048
GlyphClass: 1
Flags: W
LayerCount: 2
Fore
SplineSet
977 929 m 1,0,-1
 620 929 l 1,1,-1
 620 0 l 1,2,-1
 423 0 l 1,3,-1
 423 929 l 1,4,-1
 71 929 l 1,5,-1
 71 1082 l 1,6,-1
 977 1082 l 1,7,-1
 977 929 l 1,0,-1
EndSplineSet
Validated: 1
EndChar

StartChar: uni0444
Encoding: 1092 1092 496
Width: 1826
GlyphClass: 1
Flags: W
LayerCount: 2
Fore
SplineSet
98 521 m 2,0,1
 98 782 98 782 209.5 942 c 128,-1,2
 321 1102 321 1102 522 1102 c 0,3,4
 610 1102 610 1102 681 1074.5 c 128,-1,5
 752 1047 752 1047 805 994 c 1,6,-1
 805 1560 l 1,7,-1
 1002 1560 l 1,8,-1
 1002 978 l 1,9,10
 1057 1039 1057 1039 1132.5 1070.5 c 128,-1,11
 1208 1102 1208 1102 1304 1102 c 0,12,13
 1504 1102 1504 1102 1615.5 942.5 c 128,-1,14
 1727 783 1727 783 1727 521 c 2,15,-1
 1727 500 l 2,16,17
 1727 266 1727 266 1615 122.5 c 128,-1,18
 1503 -21 1503 -21 1306 -21 c 0,19,20
 1209 -21 1209 -21 1133 9 c 128,-1,21
 1057 39 1057 39 1002 97 c 1,22,-1
 1002 -416 l 1,23,-1
 805 -416 l 1,24,-1
 805 87 l 1,25,26
 751 33 751 33 680.5 6 c 128,-1,27
 610 -21 610 -21 520 -21 c 0,28,29
 322 -21 322 -21 210 122.5 c 128,-1,30
 98 266 98 266 98 500 c 2,31,-1
 98 521 l 2,0,1
1530 521 m 2,32,33
 1530 706 1530 706 1457.5 826.5 c 128,-1,34
 1385 947 1385 947 1244 947 c 0,35,36
 1159 947 1159 947 1099 907.5 c 128,-1,37
 1039 868 1039 868 1002 800 c 1,38,-1
 1002 275 l 1,39,40
 1039 208 1039 208 1099 170.5 c 128,-1,41
 1159 133 1159 133 1246 133 c 0,42,43
 1386 133 1386 133 1458 235 c 128,-1,44
 1530 337 1530 337 1530 500 c 2,45,-1
 1530 521 l 2,32,33
295 500 m 2,46,47
 295 336 295 336 362.5 234.5 c 128,-1,48
 430 133 430 133 570 133 c 0,49,50
 651 133 651 133 708.5 169 c 128,-1,51
 766 205 766 205 805 270 c 1,52,-1
 805 816 l 1,53,54
 766 877 766 877 708.5 912 c 128,-1,55
 651 947 651 947 572 947 c 0,56,57
 431 947 431 947 363 827.5 c 128,-1,58
 295 708 295 708 295 521 c 2,59,-1
 295 500 l 2,46,47
EndSplineSet
Validated: 1
EndChar

StartChar: uni0446
Encoding: 1094 1094 498
Width: 1218
GlyphClass: 1
Flags: W
LayerCount: 2
Fore
SplineSet
143 1082 m 1,0,-1
 340 1082 l 1,1,-1
 340 154 l 1,2,-1
 823 154 l 1,3,-1
 823 1082 l 1,4,-1
 1020 1082 l 1,5,-1
 1020 154 l 1,6,-1
 1152 154 l 1,7,-1
 1152 -354 l 1,8,-1
 955 -354 l 1,9,-1
 955 0 l 1,10,-1
 143 0 l 1,11,-1
 143 1082 l 1,0,-1
EndSplineSet
Validated: 1
EndChar

StartChar: uni0447
Encoding: 1095 1095 499
Width: 1131
GlyphClass: 1
Flags: W
LayerCount: 2
Fore
SplineSet
988 0 m 1,0,-1
 791 0 l 1,1,-1
 791 387 l 1,2,3
 734 372 734 372 674 364.5 c 128,-1,4
 614 357 614 357 546 357 c 0,5,6
 350 357 350 357 238.5 460 c 128,-1,7
 127 563 127 563 127 765 c 2,8,-1
 127 1083 l 1,9,-1
 324 1083 l 1,10,-1
 324 765 l 2,11,12
 324 635 324 635 380 574 c 128,-1,13
 436 513 436 513 546 513 c 0,14,15
 612 513 612 513 672 520.5 c 128,-1,16
 732 528 732 528 791 543 c 1,17,-1
 791 1082 l 1,18,-1
 988 1082 l 1,19,-1
 988 0 l 1,0,-1
EndSplineSet
Validated: 1
EndChar

StartChar: uni0448
Encoding: 1096 1096 500
Width: 1645
GlyphClass: 1
Flags: W
LayerCount: 2
Fore
SplineSet
340 1082 m 1,0,-1
 340 154 l 1,1,-1
 721 154 l 1,2,-1
 721 1082 l 1,3,-1
 918 1082 l 1,4,-1
 918 154 l 1,5,-1
 1299 154 l 1,6,-1
 1299 1082 l 1,7,-1
 1496 1082 l 1,8,-1
 1496 0 l 1,9,-1
 143 0 l 1,10,-1
 143 1082 l 1,11,-1
 340 1082 l 1,0,-1
EndSplineSet
Validated: 1
EndChar

StartChar: uni0449
Encoding: 1097 1097 501
Width: 1732
GlyphClass: 1
Flags: W
LayerCount: 2
Fore
SplineSet
340 1082 m 1,0,-1
 340 154 l 1,1,-1
 721 154 l 1,2,-1
 721 1082 l 1,3,-1
 918 1082 l 1,4,-1
 918 154 l 1,5,-1
 1299 154 l 1,6,-1
 1299 1082 l 1,7,-1
 1496 1082 l 1,8,-1
 1496 145 l 1,9,-1
 1672 145 l 1,10,-1
 1672 -338 l 1,11,-1
 1477 -338 l 1,12,-1
 1477 0 l 1,13,-1
 143 0 l 1,14,-1
 143 1082 l 1,15,-1
 340 1082 l 1,0,-1
EndSplineSet
Validated: 1
EndChar

StartChar: uni044A
Encoding: 1098 1098 502
Width: 1274
GlyphClass: 1
Flags: W
LayerCount: 2
Fore
SplineSet
45 1082 m 1,0,-1
 548 1082 l 1,1,-1
 548 670 l 1,2,-1
 817 670 l 2,3,4
 1009 670 1009 670 1115.5 578 c 128,-1,5
 1222 486 1222 486 1222 339 c 0,6,7
 1222 191 1222 191 1114.5 95.5 c 128,-1,8
 1007 0 1007 0 817 0 c 2,9,-1
 351 0 l 1,10,-1
 351 927 l 1,11,-1
 45 927 l 1,12,-1
 45 1082 l 1,0,-1
548 516 m 1,13,-1
 548 154 l 1,14,-1
 817 154 l 2,15,16
 923 154 923 154 973.5 205 c 128,-1,17
 1024 256 1024 256 1024 332 c 0,18,19
 1024 406 1024 406 973 461 c 128,-1,20
 922 516 922 516 817 516 c 2,21,-1
 548 516 l 1,13,-1
EndSplineSet
Validated: 1
EndChar

StartChar: uni044B
Encoding: 1099 1099 503
Width: 1617
GlyphClass: 1
Flags: W
LayerCount: 2
Fore
SplineSet
370 670 m 1,0,-1
 639 670 l 2,1,2
 831 670 831 670 937.5 578 c 128,-1,3
 1044 486 1044 486 1044 339 c 0,4,5
 1044 191 1044 191 936.5 95.5 c 128,-1,6
 829 0 829 0 639 0 c 2,7,-1
 173 0 l 1,8,-1
 173 1082 l 1,9,-1
 370 1082 l 1,10,-1
 370 670 l 1,0,-1
1432 0 m 1,11,-1
 1235 0 l 1,12,-1
 1235 1082 l 1,13,-1
 1432 1082 l 1,14,-1
 1432 0 l 1,11,-1
370 516 m 1,15,-1
 370 154 l 1,16,-1
 639 154 l 2,17,18
 745 154 745 154 795.5 205 c 128,-1,19
 846 256 846 256 846 332 c 0,20,21
 846 406 846 406 795 461 c 128,-1,22
 744 516 744 516 639 516 c 2,23,-1
 370 516 l 1,15,-1
EndSplineSet
Validated: 1
EndChar

StartChar: uni044C
Encoding: 1100 1100 504
Width: 1113
GlyphClass: 1
Flags: W
LayerCount: 2
Fore
SplineSet
350 670 m 1,0,-1
 619 670 l 2,1,2
 811 670 811 670 917.5 578 c 128,-1,3
 1024 486 1024 486 1024 339 c 0,4,5
 1024 191 1024 191 916.5 95.5 c 128,-1,6
 809 0 809 0 619 0 c 2,7,-1
 153 0 l 1,8,-1
 153 1082 l 1,9,-1
 350 1082 l 1,10,-1
 350 670 l 1,0,-1
350 516 m 1,11,-1
 350 154 l 1,12,-1
 619 154 l 2,13,14
 725 154 725 154 775.5 205 c 128,-1,15
 826 256 826 256 826 332 c 0,16,17
 826 406 826 406 775 461 c 128,-1,18
 724 516 724 516 619 516 c 2,19,-1
 350 516 l 1,11,-1
EndSplineSet
Validated: 1
EndChar

StartChar: uni044D
Encoding: 1101 1101 505
Width: 1102
GlyphClass: 1
Flags: W
LayerCount: 2
Fore
SplineSet
520 947 m 0,0,1
 428 947 428 947 356.5 886 c 128,-1,2
 285 825 285 825 285 738 c 1,3,-1
 107 738 l 1,4,-1
 105 744 l 1,5,6
 99 883 99 883 226.5 992.5 c 128,-1,7
 354 1102 354 1102 520 1102 c 0,8,9
 740 1102 740 1102 867.5 945.5 c 128,-1,10
 995 789 995 789 995 562 c 2,11,-1
 995 520 l 2,12,13
 995 292 995 292 867 135.5 c 128,-1,14
 739 -21 739 -21 520 -21 c 0,15,16
 337 -21 337 -21 218 90.5 c 128,-1,17
 99 202 99 202 104 365 c 1,18,-1
 106 371 l 1,19,-1
 285 371 l 1,20,21
 285 272 285 272 352.5 202.5 c 128,-1,22
 420 133 420 133 520 133 c 0,23,24
 646 133 646 133 715 231 c 128,-1,25
 784 329 784 329 792 469 c 1,26,-1
 789 474 l 1,27,-1
 404 474 l 1,28,-1
 404 628 l 1,29,-1
 787 628 l 1,30,-1
 789 633 l 1,31,32
 779 764 779 764 710.5 855.5 c 128,-1,33
 642 947 642 947 520 947 c 0,0,1
EndSplineSet
Validated: 33
EndChar

StartChar: uni044E
Encoding: 1102 1102 506
Width: 1671
GlyphClass: 1
Flags: W
LayerCount: 2
Fore
SplineSet
350 625 m 1,0,-1
 606 625 l 1,1,2
 626 837 626 837 753.5 969.5 c 128,-1,3
 881 1102 881 1102 1086 1102 c 0,4,5
 1311 1102 1311 1102 1441.5 947 c 128,-1,6
 1572 792 1572 792 1572 551 c 2,7,-1
 1572 529 l 2,8,9
 1572 287 1572 287 1442 133 c 128,-1,10
 1312 -21 1312 -21 1088 -21 c 0,11,12
 878 -21 878 -21 749.5 115.5 c 128,-1,13
 621 252 621 252 605 471 c 1,14,-1
 350 471 l 1,15,-1
 350 0 l 1,16,-1
 153 0 l 1,17,-1
 153 1082 l 1,18,-1
 350 1082 l 1,19,-1
 350 625 l 1,0,-1
800 529 m 2,20,21
 800 357 800 357 872.5 245 c 128,-1,22
 945 133 945 133 1088 133 c 0,23,24
 1229 133 1229 133 1302 245 c 128,-1,25
 1375 357 1375 357 1375 529 c 2,26,-1
 1375 551 l 2,27,28
 1375 721 1375 721 1301.5 834 c 128,-1,29
 1228 947 1228 947 1086 947 c 0,30,31
 945 947 945 947 872.5 834 c 128,-1,32
 800 721 800 721 800 551 c 2,33,-1
 800 529 l 2,20,21
EndSplineSet
Validated: 1
EndChar

StartChar: uni044F
Encoding: 1103 1103 507
Width: 1163
GlyphClass: 1
Flags: W
LayerCount: 2
Fore
SplineSet
1010 1082 m 1,0,-1
 1010 0 l 1,1,-1
 813 0 l 1,2,-1
 813 420 l 1,3,-1
 546 420 l 1,4,-1
 290 0 l 1,5,-1
 78 0 l 1,6,-1
 352 449 l 1,7,8
 249 486 249 486 193.5 566 c 128,-1,9
 138 646 138 646 138 751 c 0,10,11
 138 897 138 897 248.5 989.5 c 128,-1,12
 359 1082 359 1082 553 1082 c 2,13,-1
 1010 1082 l 1,0,-1
336 749 m 0,14,15
 336 677 336 677 385 626 c 128,-1,16
 434 575 434 575 532 575 c 2,17,-1
 813 575 l 1,18,-1
 813 929 l 1,19,-1
 553 929 l 2,20,21
 446 929 446 929 391 875.5 c 128,-1,22
 336 822 336 822 336 749 c 0,14,15
EndSplineSet
Validated: 1
EndChar

StartChar: uni0452
Encoding: 1106 1106 510
Width: 1164
GlyphClass: 1
Flags: W
LayerCount: 2
Fore
SplineSet
576 1228 m 1,0,-1
 340 1228 l 1,1,-1
 340 937 l 1,2,3
 396 1015 396 1015 477.5 1058.5 c 128,-1,4
 559 1102 559 1102 658 1102 c 0,5,6
 831 1102 831 1102 927.5 998 c 128,-1,7
 1024 894 1024 894 1024 678 c 2,8,-1
 1024 456 l 1,9,-1
 1025 456 l 1,10,-1
 1025 -89 l 2,11,12
 1025 -256 1025 -256 939 -346.5 c 128,-1,13
 853 -437 853 -437 699 -437 c 0,14,15
 666 -437 666 -437 640 -433 c 128,-1,16
 614 -429 614 -429 586 -420 c 1,17,-1
 601 -269 l 1,18,19
 614 -274 614 -274 648 -278 c 128,-1,20
 682 -282 682 -282 699 -282 c 0,21,22
 759 -282 759 -282 793 -230.5 c 128,-1,23
 827 -179 827 -179 827 -89 c 2,24,-1
 827 680 l 2,25,26
 827 814 827 814 769.5 878 c 128,-1,27
 712 942 712 942 598 942 c 0,28,29
 510 942 510 942 445 907.5 c 128,-1,30
 380 873 380 873 340 811 c 1,31,-1
 340 0 l 1,32,-1
 143 0 l 1,33,-1
 143 1228 l 1,34,-1
 -14 1228 l 1,35,-1
 -14 1352 l 1,36,-1
 143 1352 l 1,37,-1
 143 1560 l 1,38,-1
 340 1560 l 1,39,-1
 340 1352 l 1,40,-1
 576 1352 l 1,41,-1
 576 1228 l 1,0,-1
EndSplineSet
Validated: 1
EndChar

StartChar: uni0454
Encoding: 1108 1108 512
Width: 1103
GlyphClass: 1
Flags: W
LayerCount: 2
Fore
SplineSet
573 133 m 0,0,1
 664 133 664 133 732 193.5 c 128,-1,2
 800 254 800 254 800 342 c 1,3,-1
 978 342 l 1,4,-1
 981 336 l 1,5,6
 985 196 985 196 861 87.5 c 128,-1,7
 737 -21 737 -21 573 -21 c 0,8,9
 345 -21 345 -21 221 134 c 128,-1,10
 97 289 97 289 97 520 c 2,11,-1
 97 562 l 2,12,13
 97 791 97 791 221.5 946.5 c 128,-1,14
 346 1102 346 1102 573 1102 c 0,15,16
 754 1102 754 1102 869.5 990 c 128,-1,17
 985 878 985 878 981 715 c 1,18,-1
 979 709 l 1,19,-1
 800 709 l 1,20,21
 800 808 800 808 735.5 877.5 c 128,-1,22
 671 947 671 947 573 947 c 0,23,24
 441 947 441 947 374.5 853 c 128,-1,25
 308 759 308 759 302 622 c 1,26,-1
 304 617 l 1,27,-1
 690 617 l 1,28,-1
 690 463 l 1,29,-1
 304 463 l 1,30,-1
 302 458 l 1,31,32
 307 319 307 319 373 226 c 128,-1,33
 439 133 439 133 573 133 c 0,0,1
EndSplineSet
Validated: 33
EndChar

StartChar: uni0459
Encoding: 1113 1113 517
Width: 1782
GlyphClass: 1
Flags: W
LayerCount: 2
Fore
SplineSet
1020 1082 m 1,0,-1
 1020 671 l 1,1,-1
 1289 671 l 2,2,3
 1480 671 1480 671 1587 578.5 c 128,-1,4
 1694 486 1694 486 1694 339 c 0,5,6
 1694 191 1694 191 1586.5 95.5 c 128,-1,7
 1479 0 1479 0 1289 0 c 2,8,-1
 823 0 l 1,9,-1
 823 926 l 1,10,-1
 505 926 l 1,11,-1
 505 620 l 2,12,13
 505 302 505 302 416 151 c 128,-1,14
 327 0 327 0 121 0 c 2,15,-1
 65 0 l 1,16,-1
 69 158 l 1,17,-1
 110 159 l 2,18,19
 216 159 216 159 262 268 c 128,-1,20
 308 377 308 377 308 620 c 2,21,-1
 308 1082 l 1,22,-1
 1020 1082 l 1,0,-1
1020 517 m 1,23,-1
 1020 152 l 1,24,-1
 1289 152 l 2,25,26
 1394 152 1394 152 1445 208 c 128,-1,27
 1496 264 1496 264 1496 341 c 0,28,29
 1496 414 1496 414 1445.5 465.5 c 128,-1,30
 1395 517 1395 517 1289 517 c 2,31,-1
 1020 517 l 1,23,-1
EndSplineSet
Validated: 1
EndChar

StartChar: uni045A
Encoding: 1114 1114 518
Width: 1781
GlyphClass: 1
Flags: W
LayerCount: 2
Fore
SplineSet
340 674 m 1,0,-1
 822 674 l 1,1,-1
 822 1082 l 1,2,-1
 1019 1082 l 1,3,-1
 1019 670 l 1,4,-1
 1288 670 l 2,5,6
 1480 670 1480 670 1586.5 578 c 128,-1,7
 1693 486 1693 486 1693 339 c 0,8,9
 1693 191 1693 191 1585.5 95.5 c 128,-1,10
 1478 0 1478 0 1288 0 c 2,11,-1
 822 0 l 1,12,-1
 822 521 l 1,13,-1
 340 521 l 1,14,-1
 340 0 l 1,15,-1
 143 0 l 1,16,-1
 143 1082 l 1,17,-1
 340 1082 l 1,18,-1
 340 674 l 1,0,-1
1019 517 m 1,19,-1
 1019 152 l 1,20,-1
 1288 152 l 2,21,22
 1393 152 1393 152 1444 208 c 128,-1,23
 1495 264 1495 264 1495 341 c 0,24,25
 1495 414 1495 414 1444.5 465.5 c 128,-1,26
 1394 517 1394 517 1288 517 c 2,27,-1
 1019 517 l 1,19,-1
EndSplineSet
Validated: 1
EndChar

StartChar: uni045B
Encoding: 1115 1115 519
Width: 1164
GlyphClass: 1
Flags: W
LayerCount: 2
Fore
SplineSet
660 1211 m 1,0,-1
 340 1211 l 1,1,-1
 340 937 l 1,2,3
 396 1015 396 1015 477.5 1058.5 c 128,-1,4
 559 1102 559 1102 658 1102 c 0,5,6
 831 1102 831 1102 927.5 998 c 128,-1,7
 1024 894 1024 894 1024 678 c 2,8,-1
 1024 0 l 1,9,-1
 827 0 l 1,10,-1
 827 680 l 2,11,12
 827 814 827 814 769.5 878 c 128,-1,13
 712 942 712 942 598 942 c 0,14,15
 510 942 510 942 445 907.5 c 128,-1,16
 380 873 380 873 340 811 c 1,17,-1
 340 0 l 1,18,-1
 143 0 l 1,19,-1
 143 1211 l 1,20,-1
 19 1211 l 1,21,-1
 19 1366 l 1,22,-1
 143 1366 l 1,23,-1
 143 1560 l 1,24,-1
 340 1560 l 1,25,-1
 340 1366 l 1,26,-1
 660 1366 l 1,27,-1
 660 1211 l 1,0,-1
EndSplineSet
Validated: 1
EndChar

StartChar: uni045F
Encoding: 1119 1119 523
Width: 1164
GlyphClass: 1
Flags: W
LayerCount: 2
Fore
SplineSet
340 1082 m 1,0,-1
 340 154 l 1,1,-1
 823 154 l 1,2,-1
 823 1082 l 1,3,-1
 1020 1082 l 1,4,-1
 1020 0 l 1,5,-1
 683 0 l 1,6,-1
 683 -356 l 1,7,-1
 486 -356 l 1,8,-1
 486 0 l 1,9,-1
 143 0 l 1,10,-1
 143 1082 l 1,11,-1
 340 1082 l 1,0,-1
EndSplineSet
Validated: 1
EndChar

StartChar: uni0460
Encoding: 1120 1120 524
Width: 1934
GlyphClass: 1
Flags: W
LayerCount: 2
Fore
SplineSet
1101 1434 m 1,0,1
 1154 1454 1154 1454 1215 1465.5 c 128,-1,2
 1276 1477 1276 1477 1343 1477 c 0,3,4
 1558 1477 1558 1477 1695 1309.5 c 128,-1,5
 1832 1142 1832 1142 1832 878 c 2,6,-1
 1832 578 l 2,7,8
 1832 313 1832 313 1690 146 c 128,-1,9
 1548 -21 1548 -21 1330 -21 c 0,10,11
 1215 -21 1215 -21 1126.5 8 c 128,-1,12
 1038 37 1038 37 976 85 c 1,13,14
 913 37 913 37 824.5 8 c 128,-1,15
 736 -21 736 -21 622 -21 c 0,16,17
 403 -21 403 -21 261.5 146 c 128,-1,18
 120 313 120 313 120 578 c 2,19,-1
 120 878 l 2,20,21
 120 1142 120 1142 256.5 1309.5 c 128,-1,22
 393 1477 393 1477 609 1477 c 0,23,24
 675 1477 675 1477 736 1465.5 c 128,-1,25
 797 1454 797 1454 851 1434 c 1,26,-1
 793 1278 l 1,27,28
 756 1299 756 1299 709.5 1310.5 c 128,-1,29
 663 1322 663 1322 609 1322 c 0,30,31
 478 1322 478 1322 397.5 1197 c 128,-1,32
 317 1072 317 1072 317 880 c 2,33,-1
 317 578 l 2,34,35
 317 385 317 385 403 259 c 128,-1,36
 489 133 489 133 622 133 c 0,37,38
 725 133 725 133 785.5 165 c 128,-1,39
 846 197 846 197 877 242 c 1,40,-1
 877 574 l 1,41,-1
 679 574 l 1,42,-1
 679 728 l 1,43,-1
 1273 728 l 1,44,-1
 1273 574 l 1,45,-1
 1075 574 l 1,46,-1
 1075 242 l 1,47,48
 1103 198 1103 198 1164 165.5 c 128,-1,49
 1225 133 1225 133 1330 133 c 0,50,51
 1461 133 1461 133 1548 259 c 128,-1,52
 1635 385 1635 385 1635 578 c 2,53,-1
 1635 880 l 2,54,55
 1635 1072 1635 1072 1554 1197 c 128,-1,56
 1473 1322 1473 1322 1343 1322 c 0,57,58
 1288 1322 1288 1322 1242 1310.5 c 128,-1,59
 1196 1299 1196 1299 1159 1278 c 1,60,-1
 1101 1434 l 1,0,1
EndSplineSet
Validated: 1
EndChar

StartChar: uni0461
Encoding: 1121 1121 525
Width: 1410
GlyphClass: 1
Flags: W
LayerCount: 2
Fore
SplineSet
504 319 m 1,0,-1
 521 243 l 1,1,-1
 527 243 l 1,2,-1
 546 319 l 1,3,-1
 679 712 l 1,4,-1
 563 1082 l 1,5,-1
 764 1082 l 1,6,-1
 960 319 l 1,7,-1
 986 206 l 1,8,-1
 992 205 l 1,9,-1
 1003 239 l 1,10,11
 1093 379 1093 379 1128 611 c 128,-1,12
 1163 843 1163 843 1152 1082 c 1,13,-1
 1353 1082 l 1,14,15
 1356 772 1356 772 1279 503 c 128,-1,16
 1202 234 1202 234 1054 0 c 1,17,-1
 905 0 l 1,18,-1
 762 451 l 1,19,-1
 756 451 l 1,20,-1
 598 0 l 1,21,-1
 449 0 l 1,22,-1
 46 1082 l 1,23,-1
 248 1082 l 1,24,-1
 504 319 l 1,0,-1
EndSplineSet
Validated: 33
EndChar

StartChar: uni0462
Encoding: 1122 1122 526
Width: 1290
GlyphClass: 1
Flags: W
LayerCount: 2
Fore
SplineSet
590 1101 m 1,0,-1
 360 1101 l 1,1,-1
 360 880 l 1,2,-1
 719 880 l 2,3,4
 952 880 952 880 1081.5 760.5 c 128,-1,5
 1211 641 1211 641 1211 444 c 0,6,7
 1211 246 1211 246 1081 123 c 128,-1,8
 951 0 951 0 719 0 c 2,9,-1
 163 0 l 1,10,-1
 163 1101 l 1,11,-1
 -51 1101 l 1,12,-1
 -51 1256 l 1,13,-1
 163 1256 l 1,14,-1
 163 1456 l 1,15,-1
 360 1456 l 1,16,-1
 360 1256 l 1,17,-1
 590 1256 l 1,18,-1
 590 1101 l 1,0,-1
360 725 m 1,19,-1
 360 154 l 1,20,-1
 719 154 l 2,21,22
 866 154 866 154 940 238.5 c 128,-1,23
 1014 323 1014 323 1014 446 c 0,24,25
 1014 565 1014 565 940.5 645 c 128,-1,26
 867 725 867 725 719 725 c 2,27,-1
 360 725 l 1,19,-1
EndSplineSet
Validated: 1
EndChar

StartChar: uni0463
Encoding: 1123 1123 527
Width: 1113
GlyphClass: 1
Flags: W
LayerCount: 2
Fore
SplineSet
671 1078 m 1,0,-1
 350 1078 l 1,1,-1
 350 670 l 1,2,-1
 619 670 l 2,3,4
 811 670 811 670 917.5 578 c 128,-1,5
 1024 486 1024 486 1024 339 c 0,6,7
 1024 191 1024 191 916.5 95.5 c 128,-1,8
 809 0 809 0 619 0 c 2,9,-1
 153 0 l 1,10,-1
 153 1078 l 1,11,-1
 -37 1078 l 1,12,-1
 -37 1233 l 1,13,-1
 153 1233 l 1,14,-1
 153 1562 l 1,15,-1
 350 1562 l 1,16,-1
 350 1233 l 1,17,-1
 671 1233 l 1,18,-1
 671 1078 l 1,0,-1
350 516 m 1,19,-1
 350 154 l 1,20,-1
 619 154 l 2,21,22
 725 154 725 154 775.5 205 c 128,-1,23
 826 256 826 256 826 332 c 0,24,25
 826 406 826 406 775 461 c 128,-1,26
 724 516 724 516 619 516 c 2,27,-1
 350 516 l 1,19,-1
EndSplineSet
Validated: 1
EndChar

StartChar: uni0464
Encoding: 1124 1124 528
Width: 1837
GlyphClass: 1
Flags: W
LayerCount: 2
Fore
SplineSet
1261 639 m 1,0,-1
 782 639 l 1,1,-1
 782 599 l 2,2,3
 782 400 782 400 880 267 c 128,-1,4
 978 134 978 134 1143 134 c 0,5,6
 1307 134 1307 134 1397 222.5 c 128,-1,7
 1487 311 1487 311 1487 467 c 1,8,-1
 1676 467 l 1,9,-1
 1678 461 l 1,10,11
 1682 256 1682 256 1534 118 c 128,-1,12
 1386 -20 1386 -20 1143 -20 c 0,13,14
 896 -20 896 -20 740.5 155 c 128,-1,15
 585 330 585 330 585 599 c 2,16,-1
 585 639 l 1,17,-1
 389 639 l 1,18,-1
 389 0 l 1,19,-1
 191 0 l 1,20,-1
 191 1456 l 1,21,-1
 389 1456 l 1,22,-1
 389 793 l 1,23,-1
 585 793 l 1,24,-1
 585 858 l 2,25,26
 585 1127 585 1127 740.5 1302.5 c 128,-1,27
 896 1478 896 1478 1143 1478 c 256,28,29
 1390 1478 1390 1478 1536 1346.5 c 128,-1,30
 1682 1215 1682 1215 1678 998 c 1,31,-1
 1676 992 l 1,32,-1
 1487 992 l 1,33,34
 1487 1145 1487 1145 1397 1234 c 128,-1,35
 1307 1323 1307 1323 1143 1323 c 0,36,37
 978 1323 978 1323 880 1190 c 128,-1,38
 782 1057 782 1057 782 860 c 2,39,-1
 782 793 l 1,40,-1
 1261 793 l 1,41,-1
 1261 639 l 1,0,-1
EndSplineSet
Validated: 33
EndChar

StartChar: uni0465
Encoding: 1125 1125 529
Width: 1530
GlyphClass: 1
Flags: W
LayerCount: 2
Fore
SplineSet
1049 461 m 1,0,-1
 730 461 l 1,1,-1
 728 456 l 1,2,3
 734 317 734 317 800 225 c 128,-1,4
 866 133 866 133 999 133 c 0,5,6
 1090 133 1090 133 1158 193.5 c 128,-1,7
 1226 254 1226 254 1226 342 c 1,8,-1
 1404 342 l 1,9,-1
 1407 336 l 1,10,11
 1411 196 1411 196 1287 87.5 c 128,-1,12
 1163 -21 1163 -21 999 -21 c 0,13,14
 786 -21 786 -21 663 115 c 128,-1,15
 540 251 540 251 525 461 c 1,16,-1
 348 461 l 1,17,-1
 348 0 l 1,18,-1
 151 0 l 1,19,-1
 151 1082 l 1,20,-1
 348 1082 l 1,21,-1
 348 616 l 1,22,-1
 525 616 l 1,23,24
 540 826 540 826 663 964 c 128,-1,25
 786 1102 786 1102 999 1102 c 0,26,27
 1180 1102 1180 1102 1295.5 990 c 128,-1,28
 1411 878 1411 878 1407 715 c 1,29,-1
 1405 709 l 1,30,-1
 1226 709 l 1,31,32
 1226 808 1226 808 1161.5 877.5 c 128,-1,33
 1097 947 1097 947 999 947 c 0,34,35
 866 947 866 947 799.5 852.5 c 128,-1,36
 733 758 733 758 728 621 c 1,37,-1
 730 616 l 1,38,-1
 1049 616 l 1,39,-1
 1049 461 l 1,0,-1
EndSplineSet
Validated: 33
EndChar

StartChar: uni0466
Encoding: 1126 1126 530
Width: 1235
GlyphClass: 1
Flags: W
LayerCount: 2
Fore
SplineSet
901 438 m 1,0,-1
 740 438 l 1,1,-1
 740 0 l 1,2,-1
 544 0 l 1,3,-1
 544 438 l 1,4,-1
 396 438 l 1,5,-1
 244 0 l 1,6,-1
 43 0 l 1,7,-1
 568 1456 l 1,8,-1
 737 1456 l 1,9,-1
 1251 0 l 1,10,-1
 1050 0 l 1,11,-1
 901 438 l 1,0,-1
453 602 m 1,12,-1
 845 602 l 1,13,-1
 654 1165 l 1,14,-1
 648 1165 l 1,15,-1
 453 602 l 1,12,-1
EndSplineSet
Validated: 1
EndChar

StartChar: uni0467
Encoding: 1127 1127 531
Width: 1097
GlyphClass: 1
Flags: W
LayerCount: 2
Fore
SplineSet
745 294 m 1,0,-1
 639 294 l 1,1,-1
 639 0 l 1,2,-1
 443 0 l 1,3,-1
 443 294 l 1,4,-1
 330 294 l 1,5,-1
 214 0 l 1,6,-1
 13 0 l 1,7,-1
 453 1082 l 1,8,-1
 622 1082 l 1,9,-1
 1065 0 l 1,10,-1
 864 0 l 1,11,-1
 745 294 l 1,0,-1
391 449 m 1,12,-1
 683 449 l 1,13,-1
 557 761 l 1,14,-1
 539 829 l 1,15,-1
 533 829 l 1,16,-1
 515 761 l 1,17,-1
 391 449 l 1,12,-1
EndSplineSet
Validated: 1
EndChar

StartChar: uni0468
Encoding: 1128 1128 532
Width: 1805
GlyphClass: 1
Flags: W
LayerCount: 2
Fore
SplineSet
407 603 m 1,0,-1
 789 603 l 1,1,-1
 1097 1456 l 1,2,-1
 1266 1456 l 1,3,-1
 1780 0 l 1,4,-1
 1579 0 l 1,5,-1
 1430 438 l 1,6,-1
 1269 438 l 1,7,-1
 1269 0 l 1,8,-1
 1073 0 l 1,9,-1
 1073 438 l 1,10,-1
 925 438 l 1,11,-1
 773 0 l 1,12,-1
 572 0 l 1,13,-1
 730 439 l 1,14,-1
 407 439 l 1,15,-1
 407 0 l 1,16,-1
 209 0 l 1,17,-1
 209 1456 l 1,18,-1
 407 1456 l 1,19,-1
 407 603 l 1,0,-1
982 602 m 1,20,-1
 1374 602 l 1,21,-1
 1183 1165 l 1,22,-1
 1177 1165 l 1,23,-1
 982 602 l 1,20,-1
EndSplineSet
Validated: 1
EndChar

StartChar: uni0469
Encoding: 1129 1129 533
Width: 1549
GlyphClass: 1
Flags: W
LayerCount: 2
Fore
SplineSet
383 449 m 1,0,-1
 642 449 l 1,1,-1
 900 1082 l 1,2,-1
 1069 1082 l 1,3,-1
 1512 0 l 1,4,-1
 1311 0 l 1,5,-1
 1192 294 l 1,6,-1
 1086 294 l 1,7,-1
 1086 0 l 1,8,-1
 890 0 l 1,9,-1
 890 294 l 1,10,-1
 777 294 l 1,11,-1
 661 0 l 1,12,-1
 460 0 l 1,13,-1
 579 293 l 1,14,-1
 383 293 l 1,15,-1
 383 0 l 1,16,-1
 186 0 l 1,17,-1
 186 1082 l 1,18,-1
 383 1082 l 1,19,-1
 383 449 l 1,0,-1
838 449 m 1,20,-1
 1130 449 l 1,21,-1
 1004 761 l 1,22,-1
 986 829 l 1,23,-1
 980 829 l 1,24,-1
 962 761 l 1,25,-1
 838 449 l 1,20,-1
EndSplineSet
Validated: 1
EndChar

StartChar: uni046A
Encoding: 1130 1130 534
Width: 1759
GlyphClass: 1
Flags: W
LayerCount: 2
Fore
SplineSet
1100 814 m 1,0,-1
 1122 814 l 2,1,2
 1361 814 1361 814 1486 709.5 c 128,-1,3
 1611 605 1611 605 1611 371 c 2,4,-1
 1611 0 l 1,5,-1
 1414 0 l 1,6,-1
 1414 371 l 2,7,8
 1414 533 1414 533 1344.5 596 c 128,-1,9
 1275 659 1275 659 1122 659 c 2,10,-1
 1006 659 l 1,11,-1
 981 617 l 1,12,-1
 981 0 l 1,13,-1
 784 0 l 1,14,-1
 784 632 l 1,15,-1
 767 659 l 1,16,-1
 636 659 l 2,17,18
 483 659 483 659 414.5 596 c 128,-1,19
 346 533 346 533 346 371 c 2,20,-1
 346 0 l 1,21,-1
 149 0 l 1,22,-1
 149 371 l 2,23,24
 149 605 149 605 272.5 709.5 c 128,-1,25
 396 814 396 814 636 814 c 2,26,-1
 673 814 l 1,27,-1
 282 1456 l 1,28,-1
 508 1456 l 1,29,-1
 513 1447 l 1,30,-1
 519 1449 l 1,31,-1
 519 1456 l 1,32,-1
 1491 1456 l 1,33,-1
 1100 814 l 1,0,-1
882 814 m 1,34,-1
 892 814 l 1,35,-1
 1176 1301 l 1,36,-1
 598 1301 l 1,37,-1
 882 814 l 1,34,-1
EndSplineSet
Validated: 1
EndChar

StartChar: uni046B
Encoding: 1131 1131 535
Width: 1516
GlyphClass: 1
Flags: W
LayerCount: 2
Fore
SplineSet
1123 1082 m 1,0,-1
 1246 1082 l 1,1,-1
 961 603 l 1,2,3
 1159 593 1159 593 1263 488 c 128,-1,4
 1367 383 1367 383 1367 162 c 2,5,-1
 1367 0 l 1,6,-1
 1169 0 l 1,7,-1
 1169 162 l 2,8,9
 1169 325 1169 325 1109.5 387.5 c 128,-1,10
 1050 450 1050 450 918 450 c 2,11,-1
 871 450 l 1,12,-1
 860 431 l 1,13,-1
 860 0 l 1,14,-1
 663 0 l 1,15,-1
 663 440 l 1,16,-1
 657 450 l 1,17,-1
 597 450 l 2,18,19
 464 450 464 450 405 387.5 c 128,-1,20
 346 325 346 325 346 162 c 2,21,-1
 346 0 l 1,22,-1
 149 0 l 1,23,-1
 149 162 l 2,24,25
 149 388 149 388 255 492 c 128,-1,26
 361 596 361 596 566 603 c 1,27,-1
 282 1082 l 1,28,-1
 440 1082 l 1,29,-1
 440 1083 l 1,30,-1
 1123 1083 l 1,31,-1
 1123 1082 l 1,0,-1
764 607 m 1,32,-1
 940 927 l 1,33,-1
 588 927 l 1,34,-1
 764 607 l 1,32,-1
EndSplineSet
Validated: 1
EndChar

StartChar: uni046C
Encoding: 1132 1132 536
Width: 2326
GlyphClass: 1
Flags: W
LayerCount: 2
Fore
SplineSet
1276 660 m 1,0,-1
 361 660 l 1,1,-1
 361 814 l 1,2,-1
 1276 814 l 1,3,-1
 1276 660 l 1,0,-1
388 0 m 1,4,-1
 190 0 l 1,5,-1
 190 1456 l 1,6,-1
 388 1456 l 1,7,-1
 388 0 l 1,4,-1
1667 814 m 1,8,-1
 1689 814 l 2,9,10
 1928 814 1928 814 2053 709.5 c 128,-1,11
 2178 605 2178 605 2178 371 c 2,12,-1
 2178 0 l 1,13,-1
 1981 0 l 1,14,-1
 1981 371 l 2,15,16
 1981 533 1981 533 1911.5 596 c 128,-1,17
 1842 659 1842 659 1689 659 c 2,18,-1
 1573 659 l 1,19,-1
 1548 617 l 1,20,-1
 1548 0 l 1,21,-1
 1351 0 l 1,22,-1
 1351 632 l 1,23,-1
 1334 659 l 1,24,-1
 1203 659 l 2,25,26
 1050 659 1050 659 981.5 596 c 128,-1,27
 913 533 913 533 913 371 c 2,28,-1
 913 0 l 1,29,-1
 716 0 l 1,30,-1
 716 371 l 2,31,32
 716 605 716 605 839.5 709.5 c 128,-1,33
 963 814 963 814 1203 814 c 2,34,-1
 1240 814 l 1,35,-1
 849 1456 l 1,36,-1
 1075 1456 l 1,37,-1
 1080 1447 l 1,38,-1
 1086 1449 l 1,39,-1
 1086 1456 l 1,40,-1
 2058 1456 l 1,41,-1
 1667 814 l 1,8,-1
1449 814 m 1,42,-1
 1459 814 l 1,43,-1
 1743 1301 l 1,44,-1
 1165 1301 l 1,45,-1
 1449 814 l 1,42,-1
EndSplineSet
Validated: 5
EndChar

StartChar: uni046D
Encoding: 1133 1133 537
Width: 2019
GlyphClass: 1
Flags: W
LayerCount: 2
Fore
SplineSet
1272 450 m 1,0,-1
 259 450 l 1,1,-1
 259 605 l 1,2,-1
 1272 605 l 1,3,-1
 1272 450 l 1,0,-1
350 0 m 1,4,-1
 153 0 l 1,5,-1
 153 1082 l 1,6,-1
 350 1082 l 1,7,-1
 350 0 l 1,4,-1
1629 1082 m 1,8,-1
 1752 1082 l 1,9,-1
 1467 603 l 1,10,11
 1665 593 1665 593 1769 488 c 128,-1,12
 1873 383 1873 383 1873 162 c 2,13,-1
 1873 0 l 1,14,-1
 1675 0 l 1,15,-1
 1675 162 l 2,16,17
 1675 325 1675 325 1615.5 387.5 c 128,-1,18
 1556 450 1556 450 1424 450 c 2,19,-1
 1377 450 l 1,20,-1
 1366 431 l 1,21,-1
 1366 0 l 1,22,-1
 1169 0 l 1,23,-1
 1169 440 l 1,24,-1
 1163 450 l 1,25,-1
 1103 450 l 2,26,27
 970 450 970 450 911 387.5 c 128,-1,28
 852 325 852 325 852 162 c 2,29,-1
 852 0 l 1,30,-1
 655 0 l 1,31,-1
 655 162 l 2,32,33
 655 388 655 388 761 492 c 128,-1,34
 867 596 867 596 1072 603 c 1,35,-1
 788 1082 l 1,36,-1
 946 1082 l 1,37,-1
 946 1083 l 1,38,-1
 1629 1083 l 1,39,-1
 1629 1082 l 1,8,-1
1270 607 m 1,40,-1
 1446 927 l 1,41,-1
 1094 927 l 1,42,-1
 1270 607 l 1,40,-1
EndSplineSet
Validated: 5
EndChar

StartChar: uni046E
Encoding: 1134 1134 538
Width: 1061
GlyphClass: 1
Flags: W
LayerCount: 2
Fore
SplineSet
412 825 m 2,0,1
 566 825 566 825 639 888.5 c 128,-1,2
 712 952 712 952 712 1066 c 0,3,4
 712 1168 712 1168 640.5 1234.5 c 128,-1,5
 569 1301 569 1301 432 1301 c 2,6,-1
 128 1301 l 1,7,-1
 128 1456 l 1,8,-1
 432 1456 l 2,9,10
 643 1456 643 1456 776.5 1349.5 c 128,-1,11
 910 1243 910 1243 910 1062 c 0,12,13
 910 959 910 959 845 877 c 128,-1,14
 780 795 780 795 665 751 c 1,15,16
 794 710 794 710 863 622 c 128,-1,17
 932 534 932 534 932 407 c 0,18,19
 932 207 932 207 799.5 93.5 c 128,-1,20
 667 -20 667 -20 456 -20 c 2,21,-1
 406 -20 l 2,22,23
 330 -20 330 -20 295.5 -49.5 c 128,-1,24
 261 -79 261 -79 261 -132 c 0,25,26
 261 -202 261 -202 307.5 -244.5 c 128,-1,27
 354 -287 354 -287 420 -317 c 1,28,-1
 341 -444 l 1,29,30
 230 -397 230 -397 152.5 -315 c 128,-1,31
 75 -233 75 -233 74 -122 c 0,32,33
 74 7 74 7 163.5 71 c 128,-1,34
 253 135 253 135 414 135 c 2,35,-1
 456 135 l 2,36,37
 585 135 585 135 659.5 209.5 c 128,-1,38
 734 284 734 284 734 403 c 0,39,40
 734 536 734 536 652 603 c 128,-1,41
 570 670 570 670 412 670 c 2,42,-1
 269 670 l 1,43,-1
 269 825 l 1,44,-1
 412 825 l 2,0,1
535 1758 m 1,45,-1
 682 1906 l 1,46,-1
 852 1906 l 1,47,-1
 852 1888 l 1,48,-1
 595 1643 l 1,49,-1
 476 1643 l 1,50,-1
 222 1886 l 1,51,-1
 222 1906 l 1,52,-1
 388 1906 l 1,53,-1
 535 1758 l 1,45,-1
EndSplineSet
Validated: 1
EndChar

StartChar: uni046F
Encoding: 1135 1135 539
Width: 986
GlyphClass: 1
Flags: W
LayerCount: 2
Fore
SplineSet
410 618 m 2,0,1
 543 618 543 618 606 659.5 c 128,-1,2
 669 701 669 701 669 776 c 0,3,4
 669 841 669 841 607.5 883.5 c 128,-1,5
 546 926 546 926 430 926 c 2,6,-1
 127 926 l 1,7,-1
 127 1082 l 1,8,-1
 430 1082 l 2,9,10
 622 1082 622 1082 744.5 998 c 128,-1,11
 867 914 867 914 867 772 c 0,12,13
 867 699 867 699 815.5 639.5 c 128,-1,14
 764 580 764 580 673 545 c 1,15,16
 778 512 778 512 833.5 451 c 128,-1,17
 889 390 889 390 889 304 c 0,18,19
 889 153 889 153 767.5 66.5 c 128,-1,20
 646 -20 646 -20 454 -20 c 2,21,-1
 405 -20 l 2,22,23
 329 -20 329 -20 294.5 -49.5 c 128,-1,24
 260 -79 260 -79 260 -132 c 0,25,26
 260 -202 260 -202 307 -245 c 128,-1,27
 354 -288 354 -288 420 -317 c 1,28,-1
 340 -444 l 1,29,30
 229 -397 229 -397 151.5 -315 c 128,-1,31
 74 -233 74 -233 73 -122 c 0,32,33
 73 7 73 7 162.5 71 c 128,-1,34
 252 135 252 135 413 135 c 2,35,-1
 454 135 l 2,36,37
 564 135 564 135 627.5 180.5 c 128,-1,38
 691 226 691 226 691 300 c 0,39,40
 691 382 691 382 619.5 422.5 c 128,-1,41
 548 463 548 463 410 463 c 2,42,-1
 267 463 l 1,43,-1
 267 618 l 1,44,-1
 410 618 l 2,0,1
463 1414 m 1,45,-1
 610 1562 l 1,46,-1
 780 1562 l 1,47,-1
 780 1544 l 1,48,-1
 523 1299 l 1,49,-1
 404 1299 l 1,50,-1
 150 1542 l 1,51,-1
 150 1562 l 1,52,-1
 316 1562 l 1,53,-1
 463 1414 l 1,45,-1
EndSplineSet
Validated: 1
EndChar

